# Blender 4.1.1
# www.blender.org
mtllib brettAussen.mtl
o Cube.001
v -0.500000 1.795000 0.500000
v -0.500000 1.895000 0.500000
v -0.500000 1.795000 -0.500000
v -0.500000 1.895000 -0.500000
v 0.500000 1.795000 0.500000
v 0.500000 1.895000 0.500000
v 0.500000 1.795000 -0.500000
v 0.500000 1.895000 -0.500000
vn -1.0000 -0.0000 -0.0000
vn -0.0000 -0.0000 -1.0000
vn 1.0000 -0.0000 -0.0000
vn -0.0000 -0.0000 1.0000
vt 0 0
vt 0.1 0
vt 0.1 0.1
vt 0 0.1
s 0
f 2/3/1 3/1/1 1/2/1
f 2/3/1 4/4/1 3/1/1
f 4/3/2 7/1/2 3/2/2
f 4/3/2 8/4/2 7/1/2
f 8/3/3 5/1/3 7/2/3
f 8/3/3 6/4/3 5/1/3
f 6/3/4 1/1/4 5/2/4
f 6/3/4 2/4/4 1/1/4
