# Blender 4.1.1
# www.blender.org
mtllib lampeAußen.mtl
o Cylinder
v 0.000000 -0.015775 -0.199105
v 0.000000 0.015775 -0.199105
v 0.038843 -0.015775 -0.195279
v 0.038843 0.015775 -0.195279
v 0.076194 -0.015775 -0.183949
v 0.076194 0.015775 -0.183949
v 0.110617 -0.015775 -0.165550
v 0.110617 0.015775 -0.165550
v 0.140789 -0.015775 -0.140789
v 0.140789 0.015775 -0.140789
v 0.165550 -0.015775 -0.110617
v 0.165550 0.015775 -0.110617
v 0.183949 -0.015775 -0.076194
v 0.183949 0.015775 -0.076194
v 0.195279 -0.015775 -0.038843
v 0.195279 0.015775 -0.038843
v 0.199105 -0.015775 0.000000
v 0.199105 0.015775 0.000000
v 0.195279 -0.015775 0.038843
v 0.195279 0.015775 0.038843
v 0.183949 -0.015775 0.076194
v 0.183949 0.015775 0.076194
v 0.165550 -0.015775 0.110617
v 0.165550 0.015775 0.110617
v 0.140789 -0.015775 0.140789
v 0.140789 0.015775 0.140789
v 0.110617 -0.015775 0.165550
v 0.110617 0.015775 0.165550
v 0.076194 -0.015775 0.183949
v 0.076194 0.015775 0.183949
v 0.038843 -0.015775 0.195279
v 0.038843 0.015775 0.195279
v 0.000000 -0.015775 0.199105
v 0.000000 0.015775 0.199105
v -0.038843 -0.015775 0.195279
v -0.038843 0.015775 0.195279
v -0.076194 -0.015775 0.183949
v -0.076194 0.015775 0.183949
v -0.110617 -0.015775 0.165550
v -0.110617 0.015775 0.165550
v -0.140789 -0.015775 0.140789
v -0.140789 0.015775 0.140789
v -0.165550 -0.015775 0.110617
v -0.165550 0.015775 0.110617
v -0.183949 -0.015775 0.076194
v -0.183949 0.015775 0.076194
v -0.195279 -0.015775 0.038843
v -0.195279 0.015775 0.038843
v -0.199105 -0.015775 0.000000
v -0.199105 0.015775 0.000000
v -0.195279 -0.015775 -0.038843
v -0.195279 0.015775 -0.038843
v -0.183949 -0.015775 -0.076194
v -0.183949 0.015775 -0.076194
v -0.165550 -0.015775 -0.110617
v -0.165550 0.015775 -0.110617
v -0.140789 -0.015775 -0.140789
v -0.140789 0.015775 -0.140789
v -0.110617 -0.015775 -0.165550
v -0.110617 0.015775 -0.165550
v -0.076194 -0.015775 -0.183949
v -0.076194 0.015775 -0.183949
v -0.038843 -0.015775 -0.195279
v -0.038843 0.015775 -0.195279
v -0.000000 0.017918 -0.192212
v 0.037499 0.017918 -0.188519
v 0.073556 0.017918 -0.177581
v 0.106787 0.017918 -0.159819
v 0.135915 0.017918 -0.135915
v 0.159819 0.017918 -0.106787
v 0.177581 0.017918 -0.073556
v 0.188519 0.017918 -0.037499
v 0.192212 0.017918 0.000000
v 0.188519 0.017918 0.037499
v 0.177581 0.017918 0.073556
v 0.159819 0.017918 0.106787
v 0.135915 0.017918 0.135915
v 0.106787 0.017918 0.159819
v 0.073556 0.017918 0.177581
v 0.037499 0.017918 0.188519
v -0.000000 0.017918 0.192212
v -0.037499 0.017918 0.188519
v -0.073556 0.017918 0.177581
v -0.106787 0.017918 0.159819
v -0.135915 0.017918 0.135915
v -0.159819 0.017918 0.106787
v -0.177581 0.017918 0.073556
v -0.188519 0.017918 0.037499
v -0.192212 0.017918 0.000000
v -0.188519 0.017918 -0.037499
v -0.177581 0.017918 -0.073556
v -0.159819 0.017918 -0.106787
v -0.135915 0.017918 -0.135915
v -0.106787 0.017918 -0.159819
v -0.073556 0.017918 -0.177581
v -0.037499 0.017918 -0.188519
v -0.000000 0.020859 -0.177094
v 0.034549 0.020859 -0.173691
v 0.067771 0.020859 -0.163613
v 0.098388 0.020859 -0.147248
v 0.125224 0.020859 -0.125224
v 0.147248 0.020859 -0.098388
v 0.163613 0.020859 -0.067771
v 0.173691 0.020859 -0.034549
v 0.177094 0.020859 0.000000
v 0.173691 0.020859 0.034549
v 0.163613 0.020859 0.067771
v 0.147248 0.020859 0.098388
v 0.125224 0.020859 0.125224
v 0.098388 0.020859 0.147248
v 0.067771 0.020859 0.163613
v 0.034549 0.020859 0.173691
v -0.000000 0.020859 0.177094
v -0.034549 0.020859 0.173691
v -0.067771 0.020859 0.163613
v -0.098388 0.020859 0.147248
v -0.125224 0.020859 0.125224
v -0.147248 0.020859 0.098388
v -0.163613 0.020859 0.067771
v -0.173691 0.020859 0.034549
v -0.177094 0.020859 0.000000
v -0.173691 0.020859 -0.034549
v -0.163613 0.020859 -0.067771
v -0.147248 0.020859 -0.098388
v -0.125224 0.020859 -0.125224
v -0.098388 0.020859 -0.147248
v -0.067771 0.020859 -0.163613
v -0.034549 0.020859 -0.173691
v -0.000000 0.022728 -0.157652
v 0.030756 0.022728 -0.154622
v 0.060331 0.022728 -0.145651
v 0.087587 0.022728 -0.131082
v 0.111476 0.022728 -0.111476
v 0.131082 0.022728 -0.087587
v 0.145651 0.022728 -0.060331
v 0.154622 0.022728 -0.030756
v 0.157652 0.022728 0.000000
v 0.154622 0.022728 0.030756
v 0.145651 0.022728 0.060331
v 0.131082 0.022728 0.087587
v 0.111476 0.022728 0.111476
v 0.087587 0.022728 0.131082
v 0.060331 0.022728 0.145651
v 0.030756 0.022728 0.154622
v -0.000000 0.022728 0.157652
v -0.030756 0.022728 0.154622
v -0.060331 0.022728 0.145651
v -0.087587 0.022728 0.131082
v -0.111476 0.022728 0.111476
v -0.131082 0.022728 0.087587
v -0.145651 0.022728 0.060331
v -0.154622 0.022728 0.030756
v -0.157652 0.022728 0.000000
v -0.154622 0.022728 -0.030756
v -0.145651 0.022728 -0.060331
v -0.131082 0.022728 -0.087587
v -0.111476 0.022728 -0.111476
v -0.087587 0.022728 -0.131082
v -0.060331 0.022728 -0.145651
v -0.030756 0.022728 -0.154622
vn 0.0980 -0.0000 -0.9952
vn 0.2903 -0.0000 -0.9569
vn 0.4714 -0.0000 -0.8819
vn 0.6344 -0.0000 -0.7730
vn 0.7730 -0.0000 -0.6344
vn 0.8819 -0.0000 -0.4714
vn 0.9569 -0.0000 -0.2903
vn 0.9952 -0.0000 -0.0980
vn 0.9952 -0.0000 0.0980
vn 0.9569 -0.0000 0.2903
vn 0.8819 -0.0000 0.4714
vn 0.7730 -0.0000 0.6344
vn 0.6344 -0.0000 0.7730
vn 0.4714 -0.0000 0.8819
vn 0.2903 -0.0000 0.9569
vn 0.0980 -0.0000 0.9952
vn -0.0980 -0.0000 0.9952
vn -0.2903 -0.0000 0.9569
vn -0.4714 -0.0000 0.8819
vn -0.6344 -0.0000 0.7730
vn -0.7730 -0.0000 0.6344
vn -0.8819 -0.0000 0.4714
vn -0.9569 -0.0000 0.2903
vn -0.9952 -0.0000 0.0980
vn -0.9952 -0.0000 -0.0980
vn -0.9569 -0.0000 -0.2903
vn -0.8819 -0.0000 -0.4714
vn -0.7730 -0.0000 -0.6344
vn -0.6344 -0.0000 -0.7730
vn -0.4714 -0.0000 -0.8819
vn 0.0292 0.9545 0.2968
vn -0.2903 -0.0000 -0.9569
vn -0.0980 -0.0000 -0.9952
vn -0.0000 -1.0000 -0.0000
vn -0.0904 0.9814 0.1692
vn -0.2968 0.9545 -0.0292
vn 0.1406 0.9545 -0.2630
vn 0.2305 0.9545 0.1892
vn -0.2305 0.9545 0.1892
vn -0.1406 0.9545 -0.2630
vn 0.2968 0.9545 -0.0292
vn -0.0292 0.9545 0.2968
vn -0.2854 0.9545 -0.0866
vn 0.1892 0.9545 -0.2305
vn 0.1892 0.9545 0.2305
vn -0.2630 0.9545 0.1406
vn -0.0866 0.9545 -0.2854
vn 0.2968 0.9545 0.0292
vn -0.0866 0.9545 0.2854
vn -0.2630 0.9545 -0.1406
vn 0.2305 0.9545 -0.1892
vn 0.1406 0.9545 0.2630
vn -0.2854 0.9545 0.0866
vn 0.0292 0.9545 -0.2968
vn -0.0292 0.9545 -0.2968
vn 0.2854 0.9545 0.0866
vn -0.1406 0.9545 0.2630
vn -0.2305 0.9545 -0.1892
vn 0.2630 0.9545 -0.1406
vn 0.0866 0.9545 0.2854
vn -0.2968 0.9545 0.0292
vn 0.0866 0.9545 -0.2854
vn 0.2630 0.9545 0.1406
vn -0.1892 0.9545 0.2305
vn -0.1892 0.9545 -0.2305
vn 0.2854 0.9545 -0.0866
vn -0.0848 0.9954 0.0453
vn 0.1692 0.9814 -0.0904
vn -0.1217 0.9814 0.1483
vn 0.1836 0.9814 -0.0557
vn -0.1483 0.9814 0.1217
vn 0.1909 0.9814 -0.0188
vn -0.1692 0.9814 0.0904
vn 0.1909 0.9814 0.0188
vn -0.1836 0.9814 0.0557
vn 0.1836 0.9814 0.0557
vn -0.1909 0.9814 0.0188
vn 0.1692 0.9814 0.0904
vn -0.1909 0.9814 -0.0188
vn 0.1483 0.9814 0.1217
vn -0.1836 0.9814 -0.0557
vn 0.1217 0.9814 0.1483
vn -0.1692 0.9814 -0.0904
vn 0.0904 0.9814 0.1692
vn 0.0188 0.9814 -0.1909
vn -0.1483 0.9814 -0.1217
vn 0.0557 0.9814 0.1836
vn 0.0557 0.9814 -0.1836
vn -0.1217 0.9814 -0.1483
vn 0.0188 0.9814 0.1909
vn 0.0904 0.9814 -0.1692
vn -0.0904 0.9814 -0.1692
vn -0.0188 0.9814 0.1909
vn 0.1217 0.9814 -0.1483
vn -0.0557 0.9814 -0.1836
vn -0.0557 0.9814 0.1836
vn 0.1483 0.9814 -0.1217
vn -0.0188 0.9814 -0.1909
vn -0.0000 1.0000 -0.0000
vn 0.0957 0.9954 0.0094
vn -0.0920 0.9954 0.0279
vn 0.0920 0.9954 0.0279
vn -0.0957 0.9954 0.0094
vn 0.0848 0.9954 0.0453
vn -0.0957 0.9954 -0.0094
vn 0.0743 0.9954 0.0610
vn -0.0920 0.9954 -0.0279
vn 0.0610 0.9954 0.0743
vn -0.0848 0.9954 -0.0453
vn 0.0453 0.9954 0.0848
vn 0.0094 0.9954 -0.0957
vn -0.0743 0.9954 -0.0610
vn 0.0279 0.9954 0.0920
vn 0.0279 0.9954 -0.0920
vn -0.0610 0.9954 -0.0743
vn 0.0094 0.9954 0.0957
vn 0.0453 0.9954 -0.0848
vn -0.0453 0.9954 -0.0848
vn -0.0094 0.9954 0.0957
vn 0.0610 0.9954 -0.0743
vn -0.0279 0.9954 -0.0920
vn -0.0279 0.9954 0.0920
vn 0.0743 0.9954 -0.0610
vn -0.0094 0.9954 -0.0957
vn -0.0453 0.9954 0.0848
vn 0.0848 0.9954 -0.0453
vn -0.0610 0.9954 0.0743
vn 0.0920 0.9954 -0.0279
vn -0.0743 0.9954 0.0610
vn 0.0957 0.9954 -0.0094
vt 1.000000 1.000000
vt 0.968750 0.500000
vt 1.000000 0.500000
vt 0.968750 1.000000
vt 0.937500 0.500000
vt 0.937500 1.000000
vt 0.906250 0.500000
vt 0.906250 1.000000
vt 0.875000 0.500000
vt 0.875000 1.000000
vt 0.843750 0.500000
vt 0.843750 1.000000
vt 0.812500 0.500000
vt 0.812500 1.000000
vt 0.781250 0.500000
vt 0.781250 1.000000
vt 0.750000 0.500000
vt 0.750000 1.000000
vt 0.718750 0.500000
vt 0.718750 1.000000
vt 0.687500 0.500000
vt 0.687500 1.000000
vt 0.656250 0.500000
vt 0.656250 1.000000
vt 0.625000 0.500000
vt 0.625000 1.000000
vt 0.593750 0.500000
vt 0.593750 1.000000
vt 0.562500 0.500000
vt 0.562500 1.000000
vt 0.531250 0.500000
vt 0.531250 1.000000
vt 0.500000 0.500000
vt 0.500000 1.000000
vt 0.468750 0.500000
vt 0.468750 1.000000
vt 0.437500 0.500000
vt 0.437500 1.000000
vt 0.406250 0.500000
vt 0.406250 1.000000
vt 0.375000 0.500000
vt 0.375000 1.000000
vt 0.343750 0.500000
vt 0.343750 1.000000
vt 0.312500 0.500000
vt 0.312500 1.000000
vt 0.281250 0.500000
vt 0.281250 1.000000
vt 0.250000 0.500000
vt 0.250000 1.000000
vt 0.218750 0.500000
vt 0.218750 1.000000
vt 0.187500 0.500000
vt 0.187500 1.000000
vt 0.156250 0.500000
vt 0.156250 1.000000
vt 0.125000 0.500000
vt 0.125000 1.000000
vt 0.093750 0.500000
vt 0.093750 1.000000
vt 0.062500 0.500000
vt 0.062500 1.000000
vt 0.031250 0.500000
vt 0.031250 1.000000
vt 0.000000 0.500000
vt 0.796822 0.014612
vt 0.514612 0.203178
vt 0.703178 0.485388
vt 0.000000 1.000000
vt 0.158156 0.028269
vt 0.471731 0.158156
vt 0.341844 0.471731
vt 0.750000 0.490000
vt 0.796822 0.485388
vt 0.841844 0.471731
vt 0.883337 0.449553
vt 0.919706 0.419706
vt 0.949553 0.383337
vt 0.971731 0.341844
vt 0.985388 0.296822
vt 0.990000 0.250000
vt 0.985388 0.203178
vt 0.971731 0.158156
vt 0.949553 0.116663
vt 0.919706 0.080294
vt 0.883337 0.050447
vt 0.841844 0.028269
vt 0.750000 0.010000
vt 0.703178 0.014612
vt 0.658156 0.028269
vt 0.616663 0.050447
vt 0.580294 0.080294
vt 0.550447 0.116663
vt 0.528269 0.158156
vt 0.510000 0.250000
vt 0.514612 0.296822
vt 0.528269 0.341844
vt 0.550447 0.383337
vt 0.580294 0.419706
vt 0.616663 0.449553
vt 0.658156 0.471731
vt 0.296822 0.485388
vt 0.250000 0.490000
vt 0.203178 0.485388
vt 0.158156 0.471731
vt 0.116663 0.449553
vt 0.080294 0.419706
vt 0.050447 0.383337
vt 0.028269 0.341844
vt 0.014612 0.296822
vt 0.010000 0.250000
vt 0.014612 0.203178
vt 0.028269 0.158156
vt 0.050447 0.116663
vt 0.080294 0.080294
vt 0.116663 0.050447
vt 0.203178 0.014612
vt 0.250000 0.010000
vt 0.296822 0.014612
vt 0.341844 0.028269
vt 0.383337 0.050447
vt 0.419706 0.080294
vt 0.449553 0.116663
vt 0.485388 0.203178
vt 0.490000 0.250000
vt 0.485388 0.296822
vt 0.471731 0.341844
vt 0.449553 0.383337
vt 0.419706 0.419706
vt 0.383337 0.449553
s 0
f 2/1/1 3/2/1 1/3/1
f 4/4/2 5/5/2 3/2/2
f 6/6/3 7/7/3 5/5/3
f 8/8/4 9/9/4 7/7/4
f 10/10/5 11/11/5 9/9/5
f 12/12/6 13/13/6 11/11/6
f 14/14/7 15/15/7 13/13/7
f 16/16/8 17/17/8 15/15/8
f 18/18/9 19/19/9 17/17/9
f 20/20/10 21/21/10 19/19/10
f 22/22/11 23/23/11 21/21/11
f 24/24/12 25/25/12 23/23/12
f 26/26/13 27/27/13 25/25/13
f 28/28/14 29/29/14 27/27/14
f 30/30/15 31/31/15 29/29/15
f 32/32/16 33/33/16 31/31/16
f 34/34/17 35/35/17 33/33/17
f 36/36/18 37/37/18 35/35/18
f 38/38/19 39/39/19 37/37/19
f 40/40/20 41/41/20 39/39/20
f 42/42/21 43/43/21 41/41/21
f 44/44/22 45/45/22 43/43/22
f 46/46/23 47/47/23 45/45/23
f 48/48/24 49/49/24 47/47/24
f 50/50/25 51/51/25 49/49/25
f 52/52/26 53/53/26 51/51/26
f 54/54/27 55/55/27 53/53/27
f 56/56/28 57/57/28 55/55/28
f 58/58/29 59/59/29 57/57/29
f 60/60/30 61/61/30 59/59/30
f 32/32/31 81/34/31 34/34/31
f 62/62/32 63/63/32 61/61/32
f 64/64/33 1/65/33 63/63/33
f 31/66/34 47/67/34 63/68/34
f 84/40/35 115/38/35 116/40/35
f 52/52/36 89/50/36 90/52/36
f 8/8/37 67/6/37 68/8/37
f 26/26/38 76/24/38 77/26/38
f 42/42/39 86/44/39 44/44/39
f 60/60/40 95/62/40 62/62/40
f 16/16/41 73/18/41 18/18/41
f 36/36/42 81/34/42 82/36/42
f 52/52/43 91/54/43 54/54/43
f 10/10/44 68/8/44 69/10/44
f 26/26/45 78/28/45 28/28/45
f 44/44/46 87/46/46 46/46/46
f 64/64/47 95/62/47 96/64/47
f 20/20/48 73/18/48 74/20/48
f 36/36/49 83/38/49 38/38/49
f 56/56/50 91/54/50 92/56/50
f 10/10/51 70/12/51 12/12/51
f 28/28/52 79/30/52 30/30/52
f 48/48/53 87/46/53 88/48/53
f 4/4/54 65/1/54 66/4/54
f 64/64/55 65/69/55 2/69/55
f 20/20/56 75/22/56 22/22/56
f 40/40/57 83/38/57 84/40/57
f 58/58/58 92/56/58 93/58/58
f 12/12/59 71/14/59 14/14/59
f 32/32/60 79/30/60 80/32/60
f 48/48/61 89/50/61 50/50/61
f 4/4/62 67/6/62 6/6/62
f 24/24/63 75/22/63 76/24/63
f 42/42/64 84/40/64 85/42/64
f 58/58/65 94/60/65 60/60/65
f 16/16/66 71/14/66 72/16/66
f 119/46/67 150/44/67 151/46/67
f 71/14/68 102/12/68 103/14/68
f 85/42/69 116/40/69 117/42/69
f 71/14/70 104/16/70 72/16/70
f 85/42/71 118/44/71 86/44/71
f 72/16/72 105/18/72 73/18/72
f 87/46/73 118/44/73 119/46/73
f 73/18/74 106/20/74 74/20/74
f 87/46/75 120/48/75 88/48/75
f 74/20/76 107/22/76 75/22/76
f 88/48/77 121/50/77 89/50/77
f 75/22/78 108/24/78 76/24/78
f 89/50/79 122/52/79 90/52/79
f 77/26/80 108/24/80 109/26/80
f 90/52/81 123/54/81 91/54/81
f 77/26/82 110/28/82 78/28/82
f 91/54/83 124/56/83 92/56/83
f 79/30/84 110/28/84 111/30/84
f 65/1/85 98/4/85 66/4/85
f 93/58/86 124/56/86 125/58/86
f 79/30/87 112/32/87 80/32/87
f 66/4/88 99/6/88 67/6/88
f 93/58/89 126/60/89 94/60/89
f 80/32/90 113/34/90 81/34/90
f 67/6/91 100/8/91 68/8/91
f 95/62/92 126/60/92 127/62/92
f 81/34/93 114/36/93 82/36/93
f 68/8/94 101/10/94 69/10/94
f 95/62/95 128/64/95 96/64/95
f 82/36/96 115/38/96 83/38/96
f 69/10/97 102/12/97 70/12/97
f 96/64/98 97/69/98 65/69/98
f 147/70/99 139/71/99 131/72/99
f 106/20/100 137/18/100 138/20/100
f 120/48/101 151/46/101 152/48/101
f 106/20/102 139/22/102 107/22/102
f 120/48/103 153/50/103 121/50/103
f 108/24/104 139/22/104 140/24/104
f 121/50/105 154/52/105 122/52/105
f 109/26/106 140/24/106 141/26/106
f 122/52/107 155/54/107 123/54/107
f 109/26/108 142/28/108 110/28/108
f 124/56/109 155/54/109 156/56/109
f 110/28/110 143/30/110 111/30/110
f 98/4/111 129/1/111 130/4/111
f 125/58/112 156/56/112 157/58/112
f 112/32/113 143/30/113 144/32/113
f 98/4/114 131/6/114 99/6/114
f 125/58/115 158/60/115 126/60/115
f 112/32/116 145/34/116 113/34/116
f 100/8/117 131/6/117 132/8/117
f 126/60/118 159/62/118 127/62/118
f 114/36/119 145/34/119 146/36/119
f 101/10/120 132/8/120 133/10/120
f 128/64/121 159/62/121 160/64/121
f 114/36/122 147/38/122 115/38/122
f 101/10/123 134/12/123 102/12/123
f 128/64/124 129/69/124 97/69/124
f 115/38/125 148/40/125 116/40/125
f 103/14/126 134/12/126 135/14/126
f 117/42/127 148/40/127 149/42/127
f 104/16/128 135/14/128 136/16/128
f 117/42/129 150/44/129 118/44/129
f 104/16/130 137/18/130 105/18/130
f 2/1/1 4/4/1 3/2/1
f 4/4/2 6/6/2 5/5/2
f 6/6/3 8/8/3 7/7/3
f 8/8/4 10/10/4 9/9/4
f 10/10/5 12/12/5 11/11/5
f 12/12/6 14/14/6 13/13/6
f 14/14/7 16/16/7 15/15/7
f 16/16/8 18/18/8 17/17/8
f 18/18/9 20/20/9 19/19/9
f 20/20/10 22/22/10 21/21/10
f 22/22/11 24/24/11 23/23/11
f 24/24/12 26/26/12 25/25/12
f 26/26/13 28/28/13 27/27/13
f 28/28/14 30/30/14 29/29/14
f 30/30/15 32/32/15 31/31/15
f 32/32/16 34/34/16 33/33/16
f 34/34/17 36/36/17 35/35/17
f 36/36/18 38/38/18 37/37/18
f 38/38/19 40/40/19 39/39/19
f 40/40/20 42/42/20 41/41/20
f 42/42/21 44/44/21 43/43/21
f 44/44/22 46/46/22 45/45/22
f 46/46/23 48/48/23 47/47/23
f 48/48/24 50/50/24 49/49/24
f 50/50/25 52/52/25 51/51/25
f 52/52/26 54/54/26 53/53/26
f 54/54/27 56/56/27 55/55/27
f 56/56/28 58/58/28 57/57/28
f 58/58/29 60/60/29 59/59/29
f 60/60/30 62/62/30 61/61/30
f 32/32/31 80/32/31 81/34/31
f 62/62/32 64/64/32 63/63/32
f 64/64/33 2/69/33 1/65/33
f 63/68/34 1/73/34 3/74/34
f 3/74/34 5/75/34 7/76/34
f 7/76/34 9/77/34 11/78/34
f 11/78/34 13/79/34 15/80/34
f 15/80/34 17/81/34 19/82/34
f 19/82/34 21/83/34 23/84/34
f 23/84/34 25/85/34 27/86/34
f 27/86/34 29/87/34 31/66/34
f 31/66/34 33/88/34 35/89/34
f 35/89/34 37/90/34 39/91/34
f 39/91/34 41/92/34 43/93/34
f 43/93/34 45/94/34 47/67/34
f 47/67/34 49/95/34 51/96/34
f 51/96/34 53/97/34 55/98/34
f 55/98/34 57/99/34 59/100/34
f 59/100/34 61/101/34 63/68/34
f 63/68/34 3/74/34 7/76/34
f 7/76/34 11/78/34 15/80/34
f 15/80/34 19/82/34 23/84/34
f 23/84/34 27/86/34 31/66/34
f 31/66/34 35/89/34 39/91/34
f 39/91/34 43/93/34 47/67/34
f 47/67/34 51/96/34 55/98/34
f 55/98/34 59/100/34 63/68/34
f 63/68/34 7/76/34 15/80/34
f 15/80/34 23/84/34 31/66/34
f 31/66/34 39/91/34 47/67/34
f 47/67/34 55/98/34 63/68/34
f 63/68/34 15/80/34 31/66/34
f 84/40/35 83/38/35 115/38/35
f 52/52/36 50/50/36 89/50/36
f 8/8/37 6/6/37 67/6/37
f 26/26/38 24/24/38 76/24/38
f 42/42/39 85/42/39 86/44/39
f 60/60/40 94/60/40 95/62/40
f 16/16/41 72/16/41 73/18/41
f 36/36/42 34/34/42 81/34/42
f 52/52/43 90/52/43 91/54/43
f 10/10/44 8/8/44 68/8/44
f 26/26/45 77/26/45 78/28/45
f 44/44/46 86/44/46 87/46/46
f 64/64/47 62/62/47 95/62/47
f 20/20/48 18/18/48 73/18/48
f 36/36/49 82/36/49 83/38/49
f 56/56/50 54/54/50 91/54/50
f 10/10/51 69/10/51 70/12/51
f 28/28/52 78/28/52 79/30/52
f 48/48/53 46/46/53 87/46/53
f 4/4/54 2/1/54 65/1/54
f 64/64/55 96/64/55 65/69/55
f 20/20/56 74/20/56 75/22/56
f 40/40/57 38/38/57 83/38/57
f 58/58/58 56/56/58 92/56/58
f 12/12/59 70/12/59 71/14/59
f 32/32/60 30/30/60 79/30/60
f 48/48/61 88/48/61 89/50/61
f 4/4/62 66/4/62 67/6/62
f 24/24/63 22/22/63 75/22/63
f 42/42/64 40/40/64 84/40/64
f 58/58/65 93/58/65 94/60/65
f 16/16/66 14/14/66 71/14/66
f 119/46/67 118/44/67 150/44/67
f 71/14/68 70/12/68 102/12/68
f 85/42/69 84/40/69 116/40/69
f 71/14/70 103/14/70 104/16/70
f 85/42/71 117/42/71 118/44/71
f 72/16/72 104/16/72 105/18/72
f 87/46/73 86/44/73 118/44/73
f 73/18/74 105/18/74 106/20/74
f 87/46/75 119/46/75 120/48/75
f 74/20/76 106/20/76 107/22/76
f 88/48/77 120/48/77 121/50/77
f 75/22/78 107/22/78 108/24/78
f 89/50/79 121/50/79 122/52/79
f 77/26/80 76/24/80 108/24/80
f 90/52/81 122/52/81 123/54/81
f 77/26/82 109/26/82 110/28/82
f 91/54/83 123/54/83 124/56/83
f 79/30/84 78/28/84 110/28/84
f 65/1/85 97/1/85 98/4/85
f 93/58/86 92/56/86 124/56/86
f 79/30/87 111/30/87 112/32/87
f 66/4/88 98/4/88 99/6/88
f 93/58/89 125/58/89 126/60/89
f 80/32/90 112/32/90 113/34/90
f 67/6/91 99/6/91 100/8/91
f 95/62/92 94/60/92 126/60/92
f 81/34/93 113/34/93 114/36/93
f 68/8/94 100/8/94 101/10/94
f 95/62/95 127/62/95 128/64/95
f 82/36/96 114/36/96 115/38/96
f 69/10/97 101/10/97 102/12/97
f 96/64/98 128/64/98 97/69/98
f 131/72/99 130/102/99 129/103/99
f 129/103/99 160/104/99 159/105/99
f 159/105/99 158/106/99 157/107/99
f 157/107/99 156/108/99 155/109/99
f 155/109/99 154/110/99 153/111/99
f 153/111/99 152/112/99 151/113/99
f 151/113/99 150/114/99 149/115/99
f 149/115/99 148/116/99 147/70/99
f 147/70/99 146/117/99 145/118/99
f 145/118/99 144/119/99 143/120/99
f 143/120/99 142/121/99 141/122/99
f 141/122/99 140/123/99 139/71/99
f 139/71/99 138/124/99 137/125/99
f 137/125/99 136/126/99 135/127/99
f 135/127/99 134/128/99 133/129/99
f 133/129/99 132/130/99 131/72/99
f 131/72/99 129/103/99 159/105/99
f 159/105/99 157/107/99 155/109/99
f 155/109/99 153/111/99 151/113/99
f 151/113/99 149/115/99 147/70/99
f 147/70/99 145/118/99 143/120/99
f 143/120/99 141/122/99 139/71/99
f 139/71/99 137/125/99 135/127/99
f 135/127/99 133/129/99 131/72/99
f 131/72/99 159/105/99 155/109/99
f 155/109/99 151/113/99 147/70/99
f 147/70/99 143/120/99 139/71/99
f 139/71/99 135/127/99 131/72/99
f 131/72/99 155/109/99 147/70/99
f 106/20/100 105/18/100 137/18/100
f 120/48/101 119/46/101 151/46/101
f 106/20/102 138/20/102 139/22/102
f 120/48/103 152/48/103 153/50/103
f 108/24/104 107/22/104 139/22/104
f 121/50/105 153/50/105 154/52/105
f 109/26/106 108/24/106 140/24/106
f 122/52/107 154/52/107 155/54/107
f 109/26/108 141/26/108 142/28/108
f 124/56/109 123/54/109 155/54/109
f 110/28/110 142/28/110 143/30/110
f 98/4/111 97/1/111 129/1/111
f 125/58/112 124/56/112 156/56/112
f 112/32/113 111/30/113 143/30/113
f 98/4/114 130/4/114 131/6/114
f 125/58/115 157/58/115 158/60/115
f 112/32/116 144/32/116 145/34/116
f 100/8/117 99/6/117 131/6/117
f 126/60/118 158/60/118 159/62/118
f 114/36/119 113/34/119 145/34/119
f 101/10/120 100/8/120 132/8/120
f 128/64/121 127/62/121 159/62/121
f 114/36/122 146/36/122 147/38/122
f 101/10/123 133/10/123 134/12/123
f 128/64/124 160/64/124 129/69/124
f 115/38/125 147/38/125 148/40/125
f 103/14/126 102/12/126 134/12/126
f 117/42/127 116/40/127 148/40/127
f 104/16/128 103/14/128 135/14/128
f 117/42/129 149/42/129 150/44/129
f 104/16/130 136/16/130 137/18/130
