# Blender 4.1.1
# www.blender.org
mtllib stuhl.mtl
o Plane.003
v -0.000000 1.000000 -0.000000
v -0.000000 0.900000 -0.000000
v -0.000000 0.950000 -0.520000
v -0.500000 0.950000 -0.000000
v -0.000000 0.950000 0.520000
v 0.500000 0.950000 0.000000
v -0.000000 1.000000 -0.260000
v -0.000000 1.000000 0.260000
v -0.250000 1.000000 -0.000000
v 0.250000 1.000000 -0.000000
v -0.000000 0.900000 -0.260000
v -0.000000 0.900000 0.260000
v 0.250000 0.900000 -0.000000
v -0.250000 0.900000 -0.000000
v 0.250000 0.950000 -0.520000
v -0.250000 0.950000 -0.520000
v -0.000000 0.925000 -0.520000
v -0.000000 0.975000 -0.520000
v -0.500000 0.950000 -0.260000
v -0.500000 0.950000 0.260000
v -0.500000 0.925000 -0.000000
v -0.500000 0.975000 -0.000000
v -0.250000 0.950000 0.520000
v 0.250000 0.950000 0.520000
v -0.000000 0.925000 0.520000
v -0.000000 0.975000 0.520000
v 0.500000 0.950000 0.260000
v 0.500000 0.950000 -0.260000
v 0.500000 0.925000 0.000000
v 0.500000 0.975000 0.000000
v 0.500000 0.975000 -0.260000
v 0.500000 0.925000 -0.260000
v 0.500000 0.925000 0.260000
v 0.250000 0.975000 0.520000
v 0.250000 0.925000 0.520000
v -0.250000 0.925000 0.520000
v -0.500000 0.975000 0.260000
v -0.500000 0.925000 0.260000
v -0.500000 0.925000 -0.260000
v -0.250000 0.975000 -0.520000
v -0.250000 0.925000 -0.520000
v 0.250000 0.925000 -0.520000
v -0.250000 0.900000 0.260000
v 0.250000 0.900000 0.260000
v 0.250000 0.900000 -0.260000
v 0.250000 1.000000 0.260000
v -0.250000 1.000000 0.260000
v -0.250000 1.000000 -0.260000
v 0.250000 1.000000 -0.260000
v -0.250000 0.900000 -0.260000
v 0.250000 0.975000 -0.520000
v -0.500000 0.975000 -0.260000
v -0.250000 0.975000 0.520000
v 0.500000 0.975000 0.260000
v -0.000000 1.000000 -0.390000
v -0.000000 1.000000 0.130000
v -0.375000 1.000000 -0.000000
v 0.125000 1.000000 -0.000000
v -0.000000 0.900000 -0.390000
v -0.000000 0.900000 0.130000
v 0.375000 0.900000 0.000000
v -0.125000 0.900000 -0.000000
v 0.375000 0.950000 -0.520000
v -0.125000 0.950000 -0.520000
v -0.000000 0.912500 -0.520000
v -0.000000 0.962500 -0.520000
v -0.500000 0.950000 -0.390000
v -0.500000 0.950000 0.130000
v -0.500000 0.912500 -0.000000
v -0.500000 0.962500 -0.000000
v -0.375000 0.950000 0.520000
v 0.125000 0.950000 0.520000
v -0.000000 0.912500 0.520000
v -0.000000 0.962500 0.520000
v 0.500000 0.950000 0.390000
v 0.500000 0.950000 -0.130000
v 0.500000 0.912500 0.000000
v 0.500000 0.962500 0.000000
v -0.000000 1.000000 -0.130000
v -0.000000 1.000000 0.390000
v -0.125000 1.000000 -0.000000
v 0.375000 1.000000 -0.000000
v -0.000000 0.900000 -0.130000
v -0.000000 0.900000 0.390000
v 0.125000 0.900000 -0.000000
v -0.375000 0.900000 -0.000000
v 0.125000 0.950000 -0.520000
v -0.375000 0.950000 -0.520000
v -0.000000 0.937500 -0.520000
v -0.000000 0.987500 -0.520000
v -0.500000 0.950000 -0.130000
v -0.500000 0.950000 0.390000
v -0.500000 0.937500 -0.000000
v -0.500000 0.987500 -0.000000
v -0.125000 0.950000 0.520000
v 0.375000 0.950000 0.520000
v -0.000000 0.937500 0.520000
v -0.000000 0.987500 0.520000
v 0.500000 0.950000 0.130000
v 0.500000 0.950000 -0.390000
v 0.500000 0.937500 0.000000
v 0.500000 0.987500 0.000000
v 0.500000 0.975000 -0.130000
v 0.500000 0.975000 -0.390000
v 0.500000 0.962500 -0.260000
v 0.500000 0.987500 -0.260000
v 0.500000 0.925000 -0.130000
v 0.500000 0.925000 -0.390000
v 0.500000 0.912500 -0.260000
v 0.500000 0.937500 -0.260000
v 0.500000 0.925000 0.390000
v 0.500000 0.925000 0.130000
v 0.500000 0.912500 0.260000
v 0.500000 0.937500 0.260000
v 0.125000 0.975000 0.520000
v 0.375000 0.975000 0.520000
v 0.250000 0.962500 0.520000
v 0.250000 0.987500 0.520000
v 0.125000 0.925000 0.520000
v 0.375000 0.925000 0.520000
v 0.250000 0.912500 0.520000
v 0.250000 0.937500 0.520000
v -0.375000 0.925000 0.520000
v -0.125000 0.925000 0.520000
v -0.250000 0.912500 0.520000
v -0.250000 0.937500 0.520000
v -0.500000 0.975000 0.130000
v -0.500000 0.975000 0.390000
v -0.500000 0.962500 0.260000
v -0.500000 0.987500 0.260000
v -0.500000 0.925000 0.130000
v -0.500000 0.925000 0.390000
v -0.500000 0.912500 0.260000
v -0.500000 0.937500 0.260000
v -0.500000 0.925000 -0.390000
v -0.500000 0.925000 -0.130000
v -0.500000 0.912500 -0.260000
v -0.500000 0.937500 -0.260000
v -0.125000 0.975000 -0.520000
v -0.375000 0.975000 -0.520000
v -0.250000 0.962500 -0.520000
v -0.250000 0.987500 -0.520000
v -0.125000 0.925000 -0.520000
v -0.375000 0.925000 -0.520000
v -0.250000 0.912500 -0.520000
v -0.250000 0.937500 -0.520000
v 0.375000 0.925000 -0.520000
v 0.125000 0.925000 -0.520000
v 0.250000 0.912500 -0.520000
v 0.250000 0.937500 -0.520000
v -0.250000 0.900000 0.130000
v -0.250000 0.900000 0.390000
v -0.125000 0.900000 0.260000
v -0.375000 0.900000 0.260000
v 0.250000 0.900000 0.130000
v 0.250000 0.900000 0.390000
v 0.375000 0.900000 0.260000
v 0.125000 0.900000 0.260000
v 0.250000 0.900000 -0.390000
v 0.250000 0.900000 -0.130000
v 0.375000 0.900000 -0.260000
v 0.125000 0.900000 -0.260000
v 0.250000 1.000000 0.130000
v 0.250000 1.000000 0.390000
v 0.125000 1.000000 0.260000
v 0.375000 1.000000 0.260000
v -0.250000 1.000000 0.130000
v -0.250000 1.000000 0.390000
v -0.375000 1.000000 0.260000
v -0.125000 1.000000 0.260000
v -0.250000 1.000000 -0.390000
v -0.250000 1.000000 -0.130000
v -0.375000 1.000000 -0.260000
v -0.125000 1.000000 -0.260000
v 0.250000 1.000000 -0.390000
v 0.250000 1.000000 -0.130000
v 0.125000 1.000000 -0.260000
v 0.375000 1.000000 -0.260000
v -0.250000 0.900000 -0.390000
v -0.250000 0.900000 -0.130000
v -0.125000 0.900000 -0.260000
v -0.375000 0.900000 -0.260000
v 0.375000 0.975000 -0.520000
v 0.125000 0.975000 -0.520000
v 0.250000 0.962500 -0.520000
v 0.250000 0.987500 -0.520000
v -0.500000 0.975000 -0.390000
v -0.500000 0.975000 -0.130000
v -0.500000 0.962500 -0.260000
v -0.500000 0.987500 -0.260000
v -0.375000 0.975000 0.520000
v -0.125000 0.975000 0.520000
v -0.250000 0.962500 0.520000
v -0.250000 0.987500 0.520000
v 0.500000 0.975000 0.390000
v 0.500000 0.975000 0.130000
v 0.500000 0.962500 0.260000
v 0.500000 0.987500 0.260000
v 0.500000 0.987500 0.130000
v 0.500000 0.962500 0.130000
v 0.500000 0.962500 0.390000
v -0.125000 0.987500 0.520000
v -0.125000 0.962500 0.520000
v -0.375000 0.962500 0.520000
v -0.500000 0.987500 -0.130000
v -0.500000 0.962500 -0.130000
v -0.500000 0.962500 -0.390000
v 0.125000 0.987500 -0.520000
v 0.125000 0.962500 -0.520000
v 0.375000 0.962500 -0.520000
v -0.375000 0.900000 -0.130000
v -0.125000 0.900000 -0.130000
v -0.125000 0.900000 -0.390000
v 0.375000 1.000000 -0.130000
v 0.125000 1.000000 -0.130000
v 0.125000 1.000000 -0.390000
v -0.125000 1.000000 -0.130000
v -0.375000 1.000000 -0.130000
v -0.125000 1.000000 0.390000
v -0.375000 1.000000 0.390000
v -0.375000 1.000000 0.130000
v 0.375000 1.000000 0.390000
v 0.125000 1.000000 0.390000
v 0.125000 1.000000 0.130000
v 0.125000 0.900000 -0.130000
v 0.375000 0.900000 -0.130000
v 0.125000 0.900000 0.390000
v 0.375000 0.900000 0.130000
v -0.125000 0.900000 0.390000
v -0.125000 0.900000 0.130000
v 0.125000 0.937500 -0.520000
v 0.125000 0.912500 -0.520000
v 0.375000 0.912500 -0.520000
v -0.375000 0.937500 -0.520000
v -0.375000 0.912500 -0.520000
v -0.125000 0.912500 -0.520000
v -0.375000 0.987500 -0.520000
v -0.375000 0.962500 -0.520000
v -0.125000 0.962500 -0.520000
v -0.500000 0.937500 -0.130000
v -0.500000 0.912500 -0.130000
v -0.500000 0.912500 -0.390000
v -0.500000 0.937500 0.390000
v -0.500000 0.912500 0.390000
v -0.500000 0.912500 0.130000
v -0.500000 0.987500 0.390000
v -0.500000 0.962500 0.390000
v -0.500000 0.962500 0.130000
v -0.125000 0.937500 0.520000
v -0.125000 0.912500 0.520000
v -0.375000 0.912500 0.520000
v 0.375000 0.937500 0.520000
v 0.375000 0.912500 0.520000
v 0.125000 0.912500 0.520000
v 0.375000 0.987500 0.520000
v 0.375000 0.962500 0.520000
v 0.125000 0.962500 0.520000
v 0.500000 0.937500 0.130000
v 0.500000 0.912500 0.130000
v 0.500000 0.912500 0.390000
v 0.500000 0.937500 -0.390000
v 0.500000 0.912500 -0.390000
v 0.500000 0.912500 -0.130000
v 0.500000 0.987500 -0.390000
v 0.500000 0.962500 -0.390000
v 0.500000 0.962500 -0.130000
v 0.500000 0.987500 -0.130000
v 0.500000 0.937500 -0.130000
v 0.500000 0.937500 0.390000
v 0.125000 0.987500 0.520000
v 0.125000 0.937500 0.520000
v -0.375000 0.937500 0.520000
v -0.500000 0.987500 0.130000
v -0.500000 0.937500 0.130000
v -0.500000 0.937500 -0.390000
v -0.125000 0.987500 -0.520000
v -0.125000 0.937500 -0.520000
v 0.375000 0.937500 -0.520000
v -0.375000 0.900000 0.130000
v 0.125000 0.900000 0.130000
v 0.125000 0.900000 -0.390000
v 0.375000 1.000000 0.130000
v -0.125000 1.000000 0.130000
v -0.125000 1.000000 -0.390000
v 0.375000 0.987500 -0.520000
v -0.500000 0.987500 -0.390000
v -0.375000 0.987500 0.520000
v 0.500000 0.987500 0.390000
v -0.400000 1.075000 -0.416000
v -0.400000 1.075000 -0.416000
v -0.400000 1.075000 -0.416000
v -0.400000 1.275000 -0.416000
v -0.400000 1.275000 -0.416000
v -0.400000 1.275000 -0.416000
v 0.400000 1.075000 -0.416000
v 0.400000 1.075000 -0.416000
v 0.400000 1.075000 -0.416000
v 0.400000 1.275000 -0.416000
v 0.400000 1.275000 -0.416000
v 0.400000 1.275000 -0.416000
v -0.400000 1.075000 -0.468000
v -0.400000 1.075000 -0.468000
v -0.400000 1.075000 -0.468000
v -0.400000 1.275000 -0.468000
v -0.400000 1.275000 -0.468000
v -0.400000 1.275000 -0.468000
v 0.400000 1.075000 -0.468000
v 0.400000 1.075000 -0.468000
v 0.400000 1.075000 -0.468000
v 0.400000 1.275000 -0.468000
v 0.400000 1.275000 -0.468000
v 0.400000 1.275000 -0.468000
v -0.400000 1.750000 -0.416000
v -0.400000 1.750000 -0.416000
v -0.400000 1.750000 -0.416000
v -0.400000 1.950000 -0.416000
v -0.400000 1.950000 -0.416000
v -0.400000 1.950000 -0.416000
v 0.400000 1.750000 -0.416000
v 0.400000 1.750000 -0.416000
v 0.400000 1.750000 -0.416000
v 0.400000 1.950000 -0.416000
v 0.400000 1.950000 -0.416000
v 0.400000 1.950000 -0.416000
v -0.400000 1.750000 -0.468000
v -0.400000 1.750000 -0.468000
v -0.400000 1.750000 -0.468000
v -0.400000 1.950000 -0.468000
v -0.400000 1.950000 -0.468000
v -0.400000 1.950000 -0.468000
v 0.400000 1.750000 -0.468000
v 0.400000 1.750000 -0.468000
v 0.400000 1.750000 -0.468000
v 0.400000 1.950000 -0.468000
v 0.400000 1.950000 -0.468000
v 0.400000 1.950000 -0.468000
v 0.500000 0.900000 -0.520000
v 0.500000 0.900000 -0.520000
v 0.500000 0.900000 -0.520000
v 0.500000 0.900000 -0.520000
v 0.500000 0.900000 -0.520000
v 0.500000 1.000000 -0.520000
v 0.500000 1.000000 -0.520000
v 0.500000 0.900000 0.520000
v 0.500000 0.900000 0.520000
v 0.500000 0.900000 0.520000
v 0.500000 0.900000 0.520000
v 0.500000 0.900000 0.520000
v 0.500000 1.000000 0.520000
v 0.500000 1.000000 0.520000
v 0.500000 1.000000 0.520000
v -0.500000 0.900000 -0.520000
v -0.500000 0.900000 -0.520000
v -0.500000 0.900000 -0.520000
v -0.500000 0.900000 -0.520000
v -0.500000 0.900000 -0.520000
v -0.500000 1.000000 -0.520000
v -0.500000 1.000000 -0.520000
v -0.500000 0.900000 0.520000
v -0.500000 0.900000 0.520000
v -0.500000 0.900000 0.520000
v -0.500000 0.900000 0.520000
v -0.500000 0.900000 0.520000
v -0.500000 1.000000 0.520000
v -0.500000 1.000000 0.520000
v -0.500000 1.000000 0.520000
v 0.500000 0.900000 0.000000
v 0.500000 0.900000 0.000000
v 0.500000 0.950000 -0.520000
v 0.500000 0.950000 -0.520000
v 0.500000 1.000000 0.000000
v 0.500000 1.000000 0.000000
v 0.500000 0.950000 0.520000
v 0.500000 0.950000 0.520000
v -0.000000 0.900000 0.520000
v -0.000000 0.900000 0.520000
v -0.000000 1.000000 0.520000
v -0.000000 1.000000 0.520000
v -0.500000 0.950000 0.520000
v -0.500000 0.950000 0.520000
v -0.500000 0.900000 -0.000000
v -0.500000 0.900000 -0.000000
v -0.500000 1.000000 -0.000000
v -0.500000 1.000000 -0.000000
v -0.500000 0.950000 -0.520000
v -0.500000 0.950000 -0.520000
v -0.000000 0.900000 -0.520000
v -0.000000 0.900000 -0.520000
v -0.000000 1.000000 -0.520000
v -0.000000 1.000000 -0.520000
v 0.500000 0.900000 -0.260000
v 0.500000 0.900000 -0.260000
v 0.500000 0.975000 -0.520000
v 0.500000 0.975000 -0.520000
v 0.500000 1.000000 0.260000
v 0.500000 1.000000 0.260000
v 0.500000 0.925000 0.520000
v 0.500000 0.925000 0.520000
v 0.250000 0.900000 0.520000
v 0.250000 0.900000 0.520000
v -0.250000 1.000000 0.520000
v -0.250000 1.000000 0.520000
v -0.500000 0.925000 0.520000
v -0.500000 0.925000 0.520000
v -0.500000 0.900000 0.260000
v -0.500000 0.900000 0.260000
v -0.500000 1.000000 -0.260000
v -0.500000 1.000000 -0.260000
v -0.500000 0.925000 -0.520000
v -0.500000 0.925000 -0.520000
v -0.250000 0.900000 -0.520000
v -0.250000 0.900000 -0.520000
v 0.250000 1.000000 -0.520000
v 0.250000 1.000000 -0.520000
v 0.500000 0.900000 0.260000
v 0.500000 0.900000 0.260000
v 0.500000 0.925000 -0.520000
v 0.500000 0.925000 -0.520000
v 0.500000 1.000000 -0.260000
v 0.500000 1.000000 -0.260000
v 0.500000 0.975000 0.520000
v 0.500000 0.975000 0.520000
v -0.250000 0.900000 0.520000
v -0.250000 0.900000 0.520000
v 0.250000 1.000000 0.520000
v 0.250000 1.000000 0.520000
v -0.500000 0.975000 0.520000
v -0.500000 0.975000 0.520000
v -0.500000 0.900000 -0.260000
v -0.500000 0.900000 -0.260000
v -0.500000 1.000000 0.260000
v -0.500000 1.000000 0.260000
v -0.500000 0.975000 -0.520000
v -0.500000 0.975000 -0.520000
v 0.250000 0.900000 -0.520000
v 0.250000 0.900000 -0.520000
v -0.250000 1.000000 -0.520000
v -0.250000 1.000000 -0.520000
v 0.500000 0.900000 -0.390000
v 0.500000 0.900000 -0.390000
v 0.500000 0.900000 -0.390000
v 0.500000 0.900000 -0.390000
v 0.500000 0.900000 -0.390000
v 0.500000 0.987500 -0.520000
v 0.500000 0.987500 -0.520000
v 0.500000 1.000000 0.390000
v 0.500000 1.000000 0.390000
v 0.500000 0.912500 0.520000
v 0.500000 0.912500 0.520000
v 0.375000 0.900000 0.520000
v 0.375000 0.900000 0.520000
v 0.375000 0.900000 0.520000
v 0.375000 0.900000 0.520000
v 0.375000 0.900000 0.520000
v -0.375000 1.000000 0.520000
v -0.375000 1.000000 0.520000
v -0.500000 0.912500 0.520000
v -0.500000 0.912500 0.520000
v -0.500000 0.900000 0.390000
v -0.500000 0.900000 0.390000
v -0.500000 0.900000 0.390000
v -0.500000 0.900000 0.390000
v -0.500000 0.900000 0.390000
v -0.500000 1.000000 -0.390000
v -0.500000 1.000000 -0.390000
v -0.500000 1.000000 -0.390000
v -0.500000 0.912500 -0.520000
v -0.500000 0.912500 -0.520000
v -0.375000 0.900000 -0.520000
v -0.375000 0.900000 -0.520000
v -0.375000 0.900000 -0.520000
v -0.375000 0.900000 -0.520000
v -0.375000 0.900000 -0.520000
v 0.375000 1.000000 -0.520000
v 0.375000 1.000000 -0.520000
v 0.375000 1.000000 -0.520000
v 0.500000 0.900000 0.130000
v 0.500000 0.900000 0.130000
v 0.500000 0.937500 -0.520000
v 0.500000 0.937500 -0.520000
v 0.500000 1.000000 -0.130000
v 0.500000 1.000000 -0.130000
v 0.500000 0.962500 0.520000
v 0.500000 0.962500 0.520000
v -0.125000 0.900000 0.520000
v -0.125000 0.900000 0.520000
v 0.125000 1.000000 0.520000
v 0.125000 1.000000 0.520000
v -0.500000 0.962500 0.520000
v -0.500000 0.962500 0.520000
v -0.500000 0.900000 -0.130000
v -0.500000 0.900000 -0.130000
v -0.500000 1.000000 0.130000
v -0.500000 1.000000 0.130000
v -0.500000 0.962500 -0.520000
v -0.500000 0.962500 -0.520000
v 0.125000 0.900000 -0.520000
v 0.125000 0.900000 -0.520000
v -0.125000 1.000000 -0.520000
v -0.125000 1.000000 -0.520000
v 0.500000 0.900000 -0.130000
v 0.500000 0.900000 -0.130000
v 0.500000 0.962500 -0.520000
v 0.500000 0.962500 -0.520000
v 0.500000 1.000000 0.130000
v 0.500000 1.000000 0.130000
v 0.500000 0.937500 0.520000
v 0.500000 0.937500 0.520000
v 0.125000 0.900000 0.520000
v 0.125000 0.900000 0.520000
v -0.125000 1.000000 0.520000
v -0.125000 1.000000 0.520000
v -0.500000 0.937500 0.520000
v -0.500000 0.937500 0.520000
v -0.500000 0.900000 0.130000
v -0.500000 0.900000 0.130000
v -0.500000 1.000000 -0.130000
v -0.500000 1.000000 -0.130000
v -0.500000 0.937500 -0.520000
v -0.500000 0.937500 -0.520000
v -0.125000 0.900000 -0.520000
v -0.125000 0.900000 -0.520000
v 0.125000 1.000000 -0.520000
v 0.125000 1.000000 -0.520000
v 0.500000 0.900000 0.390000
v 0.500000 0.900000 0.390000
v 0.500000 0.900000 0.390000
v 0.500000 0.900000 0.390000
v 0.500000 0.900000 0.390000
v 0.500000 0.912500 -0.520000
v 0.500000 0.912500 -0.520000
v 0.500000 1.000000 -0.390000
v 0.500000 1.000000 -0.390000
v 0.500000 1.000000 -0.390000
v 0.500000 0.987500 0.520000
v 0.500000 0.987500 0.520000
v -0.375000 0.900000 0.520000
v -0.375000 0.900000 0.520000
v -0.375000 0.900000 0.520000
v -0.375000 0.900000 0.520000
v -0.375000 0.900000 0.520000
v 0.375000 1.000000 0.520000
v 0.375000 1.000000 0.520000
v -0.500000 0.987500 0.520000
v -0.500000 0.987500 0.520000
v -0.500000 0.900000 -0.390000
v -0.500000 0.900000 -0.390000
v -0.500000 0.900000 -0.390000
v -0.500000 0.900000 -0.390000
v -0.500000 0.900000 -0.390000
v -0.500000 1.000000 0.390000
v -0.500000 1.000000 0.390000
v -0.500000 0.987500 -0.520000
v -0.500000 0.987500 -0.520000
v 0.375000 0.900000 -0.520000
v 0.375000 0.900000 -0.520000
v 0.375000 0.900000 -0.520000
v 0.375000 0.900000 -0.520000
v 0.375000 0.900000 -0.520000
v -0.375000 1.000000 -0.520000
v -0.375000 1.000000 -0.520000
v -0.375000 1.000000 -0.520000
v -0.375000 1.000000 -0.390000
v -0.375000 1.000000 -0.390000
v -0.375000 1.000000 -0.390000
v 0.375000 0.900000 -0.390000
v 0.375000 0.900000 -0.390000
v 0.375000 0.900000 -0.390000
v 0.375000 0.900000 -0.390000
v 0.375000 0.900000 0.390000
v 0.375000 0.900000 0.390000
v 0.375000 0.900000 0.390000
v 0.375000 0.900000 0.390000
v -0.375000 0.900000 0.390000
v -0.375000 0.900000 0.390000
v -0.375000 0.900000 0.390000
v -0.375000 0.900000 0.390000
v 0.375000 1.000000 -0.390000
v 0.375000 1.000000 -0.390000
v 0.375000 1.000000 -0.390000
v -0.375000 0.900000 -0.390000
v -0.375000 0.900000 -0.390000
v -0.375000 0.900000 -0.390000
v -0.375000 0.900000 -0.390000
v -0.500000 2.000000 -0.390000
v -0.500000 2.000000 -0.390000
v -0.500000 2.000000 -0.390000
v -0.500000 2.000000 -0.520000
v -0.500000 2.000000 -0.520000
v -0.500000 2.000000 -0.520000
v 0.375000 2.000000 -0.520000
v 0.375000 2.000000 -0.520000
v 0.375000 2.000000 -0.520000
v 0.500000 2.000000 -0.520000
v 0.500000 2.000000 -0.520000
v 0.500000 2.000000 -0.520000
v 0.500000 2.000000 -0.390000
v 0.500000 2.000000 -0.390000
v 0.500000 2.000000 -0.390000
v -0.375000 2.000000 -0.520000
v -0.375000 2.000000 -0.520000
v -0.375000 2.000000 -0.520000
v -0.375000 2.000000 -0.390000
v -0.375000 2.000000 -0.390000
v -0.375000 2.000000 -0.390000
v 0.375000 2.000000 -0.390000
v 0.375000 2.000000 -0.390000
v 0.375000 2.000000 -0.390000
v 0.500000 0.900000 -0.390000
v 0.500000 0.900000 -0.390000
v 0.500000 0.900000 -0.390000
v 0.500000 0.900000 -0.390000
v 0.500000 0.900000 -0.390000
v 0.500000 0.900000 -0.390000
v 0.500000 0.900000 -0.520000
v 0.500000 0.900000 -0.520000
v 0.500000 0.900000 -0.520000
v 0.500000 0.900000 -0.520000
v 0.500000 0.900000 -0.520000
v 0.500000 0.900000 -0.520000
v 0.375000 0.900000 0.520000
v 0.375000 0.900000 0.520000
v 0.375000 0.900000 0.520000
v 0.375000 0.900000 0.520000
v 0.375000 0.900000 0.520000
v 0.375000 0.900000 0.520000
v 0.500000 0.900000 0.520000
v 0.500000 0.900000 0.520000
v 0.500000 0.900000 0.520000
v 0.500000 0.900000 0.520000
v 0.500000 0.900000 0.520000
v 0.500000 0.900000 0.520000
v -0.500000 0.900000 0.390000
v -0.500000 0.900000 0.390000
v -0.500000 0.900000 0.390000
v -0.500000 0.900000 0.390000
v -0.500000 0.900000 0.390000
v -0.500000 0.900000 0.390000
v -0.500000 0.900000 0.520000
v -0.500000 0.900000 0.520000
v -0.500000 0.900000 0.520000
v -0.500000 0.900000 0.520000
v -0.500000 0.900000 0.520000
v -0.500000 0.900000 0.520000
v -0.375000 0.900000 -0.520000
v -0.375000 0.900000 -0.520000
v -0.375000 0.900000 -0.520000
v -0.375000 0.900000 -0.520000
v -0.375000 0.900000 -0.520000
v -0.375000 0.900000 -0.520000
v -0.500000 0.900000 -0.520000
v -0.500000 0.900000 -0.520000
v -0.500000 0.900000 -0.520000
v -0.500000 0.900000 -0.520000
v -0.500000 0.900000 -0.520000
v -0.500000 0.900000 -0.520000
v 0.500000 0.900000 0.390000
v 0.500000 0.900000 0.390000
v 0.500000 0.900000 0.390000
v 0.500000 0.900000 0.390000
v 0.500000 0.900000 0.390000
v 0.500000 0.900000 0.390000
v -0.375000 0.900000 0.520000
v -0.375000 0.900000 0.520000
v -0.375000 0.900000 0.520000
v -0.375000 0.900000 0.520000
v -0.375000 0.900000 0.520000
v -0.375000 0.900000 0.520000
v -0.500000 0.900000 -0.390000
v -0.500000 0.900000 -0.390000
v -0.500000 0.900000 -0.390000
v -0.500000 0.900000 -0.390000
v -0.500000 0.900000 -0.390000
v -0.500000 0.900000 -0.390000
v 0.375000 0.900000 -0.520000
v 0.375000 0.900000 -0.520000
v 0.375000 0.900000 -0.520000
v 0.375000 0.900000 -0.520000
v 0.375000 0.900000 -0.520000
v 0.375000 0.900000 -0.520000
v 0.375000 0.900000 -0.390000
v 0.375000 0.900000 -0.390000
v 0.375000 0.900000 -0.390000
v 0.375000 0.900000 -0.390000
v 0.375000 0.900000 -0.390000
v 0.375000 0.900000 -0.390000
v 0.375000 0.900000 0.390000
v 0.375000 0.900000 0.390000
v 0.375000 0.900000 0.390000
v 0.375000 0.900000 0.390000
v 0.375000 0.900000 0.390000
v 0.375000 0.900000 0.390000
v -0.375000 0.900000 0.390000
v -0.375000 0.900000 0.390000
v -0.375000 0.900000 0.390000
v -0.375000 0.900000 0.390000
v -0.375000 0.900000 0.390000
v -0.375000 0.900000 0.390000
v -0.375000 0.900000 -0.390000
v -0.375000 0.900000 -0.390000
v -0.375000 0.900000 -0.390000
v -0.375000 0.900000 -0.390000
v -0.375000 0.900000 -0.390000
v -0.375000 0.900000 -0.390000
v 0.500000 0.900000 -0.390000
v 0.500000 0.900000 -0.390000
v 0.500000 0.900000 -0.390000
v 0.500000 0.900000 -0.390000
v 0.500000 0.900000 -0.390000
v 0.500000 0.900000 -0.390000
v 0.500000 0.900000 -0.520000
v 0.500000 0.900000 -0.520000
v 0.500000 0.900000 -0.520000
v 0.500000 0.900000 -0.520000
v 0.500000 0.900000 -0.520000
v 0.500000 0.900000 -0.520000
v 0.375000 0.900000 0.520000
v 0.375000 0.900000 0.520000
v 0.375000 0.900000 0.520000
v 0.375000 0.900000 0.520000
v 0.375000 0.900000 0.520000
v 0.375000 0.900000 0.520000
v 0.500000 0.900000 0.520000
v 0.500000 0.900000 0.520000
v 0.500000 0.900000 0.520000
v 0.500000 0.900000 0.520000
v 0.500000 0.900000 0.520000
v 0.500000 0.900000 0.520000
v -0.500000 0.900000 0.390000
v -0.500000 0.900000 0.390000
v -0.500000 0.900000 0.390000
v -0.500000 0.900000 0.390000
v -0.500000 0.900000 0.390000
v -0.500000 0.900000 0.390000
v -0.500000 0.900000 0.520000
v -0.500000 0.900000 0.520000
v -0.500000 0.900000 0.520000
v -0.500000 0.900000 0.520000
v -0.500000 0.900000 0.520000
v -0.500000 0.900000 0.520000
v -0.375000 0.900000 -0.520000
v -0.375000 0.900000 -0.520000
v -0.375000 0.900000 -0.520000
v -0.375000 0.900000 -0.520000
v -0.375000 0.900000 -0.520000
v -0.375000 0.900000 -0.520000
v -0.500000 0.900000 -0.520000
v -0.500000 0.900000 -0.520000
v -0.500000 0.900000 -0.520000
v -0.500000 0.900000 -0.520000
v -0.500000 0.900000 -0.520000
v -0.500000 0.900000 -0.520000
v 0.500000 0.900000 0.390000
v 0.500000 0.900000 0.390000
v 0.500000 0.900000 0.390000
v 0.500000 0.900000 0.390000
v 0.500000 0.900000 0.390000
v 0.500000 0.900000 0.390000
v -0.375000 0.900000 0.520000
v -0.375000 0.900000 0.520000
v -0.375000 0.900000 0.520000
v -0.375000 0.900000 0.520000
v -0.375000 0.900000 0.520000
v -0.375000 0.900000 0.520000
v -0.500000 0.900000 -0.390000
v -0.500000 0.900000 -0.390000
v -0.500000 0.900000 -0.390000
v -0.500000 0.900000 -0.390000
v -0.500000 0.900000 -0.390000
v -0.500000 0.900000 -0.390000
v 0.375000 0.900000 -0.520000
v 0.375000 0.900000 -0.520000
v 0.375000 0.900000 -0.520000
v 0.375000 0.900000 -0.520000
v 0.375000 0.900000 -0.520000
v 0.375000 0.900000 -0.520000
v 0.375000 0.900000 -0.390000
v 0.375000 0.900000 -0.390000
v 0.375000 0.900000 -0.390000
v 0.375000 0.900000 -0.390000
v 0.375000 0.900000 -0.390000
v 0.375000 0.900000 -0.390000
v 0.375000 0.900000 0.390000
v 0.375000 0.900000 0.390000
v 0.375000 0.900000 0.390000
v 0.375000 0.900000 0.390000
v 0.375000 0.900000 0.390000
v 0.375000 0.900000 0.390000
v -0.375000 0.900000 0.390000
v -0.375000 0.900000 0.390000
v -0.375000 0.900000 0.390000
v -0.375000 0.900000 0.390000
v -0.375000 0.900000 0.390000
v -0.375000 0.900000 0.390000
v -0.375000 0.900000 -0.390000
v -0.375000 0.900000 -0.390000
v -0.375000 0.900000 -0.390000
v -0.375000 0.900000 -0.390000
v -0.375000 0.900000 -0.390000
v -0.375000 0.900000 -0.390000
v 0.500000 0.900000 -0.390000
v 0.500000 0.900000 -0.390000
v 0.500000 0.900000 -0.390000
v 0.500000 0.900000 -0.390000
v 0.500000 0.900000 -0.390000
v 0.500000 0.900000 -0.520000
v 0.500000 0.900000 -0.520000
v 0.500000 0.900000 -0.520000
v 0.500000 0.900000 -0.520000
v 0.500000 0.900000 -0.520000
v 0.375000 0.900000 0.520000
v 0.375000 0.900000 0.520000
v 0.375000 0.900000 0.520000
v 0.375000 0.900000 0.520000
v 0.375000 0.900000 0.520000
v 0.500000 0.900000 0.520000
v 0.500000 0.900000 0.520000
v 0.500000 0.900000 0.520000
v 0.500000 0.900000 0.520000
v 0.500000 0.900000 0.520000
v -0.500000 0.900000 0.390000
v -0.500000 0.900000 0.390000
v -0.500000 0.900000 0.390000
v -0.500000 0.900000 0.390000
v -0.500000 0.900000 0.390000
v -0.500000 0.900000 0.390000
v -0.500000 0.900000 0.520000
v -0.500000 0.900000 0.520000
v -0.500000 0.900000 0.520000
v -0.500000 0.900000 0.520000
v -0.500000 0.900000 0.520000
v -0.500000 0.900000 0.520000
v -0.375000 0.900000 -0.520000
v -0.375000 0.900000 -0.520000
v -0.375000 0.900000 -0.520000
v -0.375000 0.900000 -0.520000
v -0.375000 0.900000 -0.520000
v -0.500000 0.900000 -0.520000
v -0.500000 0.900000 -0.520000
v -0.500000 0.900000 -0.520000
v -0.500000 0.900000 -0.520000
v -0.500000 0.900000 -0.520000
v 0.500000 0.900000 0.390000
v 0.500000 0.900000 0.390000
v 0.500000 0.900000 0.390000
v 0.500000 0.900000 0.390000
v 0.500000 0.900000 0.390000
v -0.375000 0.900000 0.520000
v -0.375000 0.900000 0.520000
v -0.375000 0.900000 0.520000
v -0.375000 0.900000 0.520000
v -0.375000 0.900000 0.520000
v -0.375000 0.900000 0.520000
v -0.500000 0.900000 -0.390000
v -0.500000 0.900000 -0.390000
v -0.500000 0.900000 -0.390000
v -0.500000 0.900000 -0.390000
v -0.500000 0.900000 -0.390000
v 0.375000 0.900000 -0.520000
v 0.375000 0.900000 -0.520000
v 0.375000 0.900000 -0.520000
v 0.375000 0.900000 -0.520000
v 0.375000 0.900000 -0.520000
v 0.375000 0.900000 -0.390000
v 0.375000 0.900000 -0.390000
v 0.375000 0.900000 -0.390000
v 0.375000 0.900000 -0.390000
v 0.375000 0.900000 -0.390000
v 0.375000 0.900000 0.390000
v 0.375000 0.900000 0.390000
v 0.375000 0.900000 0.390000
v 0.375000 0.900000 0.390000
v 0.375000 0.900000 0.390000
v -0.375000 0.900000 0.390000
v -0.375000 0.900000 0.390000
v -0.375000 0.900000 0.390000
v -0.375000 0.900000 0.390000
v -0.375000 0.900000 0.390000
v -0.375000 0.900000 0.390000
v -0.375000 0.900000 -0.390000
v -0.375000 0.900000 -0.390000
v -0.375000 0.900000 -0.390000
v -0.375000 0.900000 -0.390000
v -0.375000 0.900000 -0.390000
v -0.500000 0.900000 0.390000
v -0.500000 0.900000 0.390000
v -0.500000 0.900000 0.390000
v -0.500000 0.900000 0.390000
v -0.500000 0.900000 0.390000
v -0.500000 0.900000 0.520000
v -0.500000 0.900000 0.520000
v -0.500000 0.900000 0.520000
v -0.500000 0.900000 0.520000
v -0.500000 0.900000 0.520000
v -0.375000 0.900000 0.520000
v -0.375000 0.900000 0.520000
v -0.375000 0.900000 0.520000
v -0.375000 0.900000 0.520000
v -0.375000 0.900000 0.520000
v -0.375000 0.900000 0.390000
v -0.375000 0.900000 0.390000
v -0.375000 0.900000 0.390000
v -0.375000 0.900000 0.390000
v -0.375000 0.900000 0.390000
v 0.500000 -0.000000 -0.390000
v 0.500000 -0.000000 -0.390000
v 0.500000 -0.000000 -0.390000
v 0.500000 -0.000000 -0.520000
v 0.500000 -0.000000 -0.520000
v 0.500000 -0.000000 -0.520000
v 0.375000 -0.000000 0.520000
v 0.375000 -0.000000 0.520000
v 0.375000 -0.000000 0.520000
v 0.500000 0.000000 0.520000
v 0.500000 0.000000 0.520000
v 0.500000 0.000000 0.520000
v -0.375000 -0.000000 -0.520000
v -0.375000 -0.000000 -0.520000
v -0.375000 -0.000000 -0.520000
v -0.500000 -0.000000 -0.520000
v -0.500000 -0.000000 -0.520000
v -0.500000 -0.000000 -0.520000
v 0.500000 0.000000 0.390000
v 0.500000 0.000000 0.390000
v 0.500000 0.000000 0.390000
v -0.500000 -0.000000 -0.390000
v -0.500000 -0.000000 -0.390000
v -0.500000 -0.000000 -0.390000
v 0.375000 -0.000000 -0.520000
v 0.375000 -0.000000 -0.520000
v 0.375000 -0.000000 -0.520000
v 0.375000 -0.000000 -0.390000
v 0.375000 -0.000000 -0.390000
v 0.375000 -0.000000 -0.390000
v 0.375000 -0.000000 0.390000
v 0.375000 -0.000000 0.390000
v 0.375000 -0.000000 0.390000
v -0.375000 -0.000000 -0.390000
v -0.375000 -0.000000 -0.390000
v -0.375000 -0.000000 -0.390000
v -0.500000 -0.000000 0.390000
v -0.500000 -0.000000 0.390000
v -0.500000 -0.000000 0.390000
v -0.500000 -0.000000 0.520000
v -0.500000 -0.000000 0.520000
v -0.500000 -0.000000 0.520000
v -0.375000 -0.000000 0.520000
v -0.375000 -0.000000 0.520000
v -0.375000 -0.000000 0.520000
v -0.375000 -0.000000 0.390000
v -0.375000 -0.000000 0.390000
v -0.375000 -0.000000 0.390000
v -0.400000 1.525000 -0.416000
v -0.400000 1.525000 -0.416000
v -0.400000 1.525000 -0.416000
v -0.400000 1.725000 -0.416000
v -0.400000 1.725000 -0.416000
v -0.400000 1.725000 -0.416000
v 0.400000 1.525000 -0.416000
v 0.400000 1.525000 -0.416000
v 0.400000 1.525000 -0.416000
v 0.400000 1.725000 -0.416000
v 0.400000 1.725000 -0.416000
v 0.400000 1.725000 -0.416000
v -0.400000 1.525000 -0.468000
v -0.400000 1.525000 -0.468000
v -0.400000 1.525000 -0.468000
v -0.400000 1.725000 -0.468000
v -0.400000 1.725000 -0.468000
v -0.400000 1.725000 -0.468000
v 0.400000 1.525000 -0.468000
v 0.400000 1.525000 -0.468000
v 0.400000 1.525000 -0.468000
v 0.400000 1.725000 -0.468000
v 0.400000 1.725000 -0.468000
v 0.400000 1.725000 -0.468000
v -0.400000 1.300000 -0.416000
v -0.400000 1.300000 -0.416000
v -0.400000 1.300000 -0.416000
v -0.400000 1.500000 -0.416000
v -0.400000 1.500000 -0.416000
v -0.400000 1.500000 -0.416000
v 0.400000 1.300000 -0.416000
v 0.400000 1.300000 -0.416000
v 0.400000 1.300000 -0.416000
v 0.400000 1.500000 -0.416000
v 0.400000 1.500000 -0.416000
v 0.400000 1.500000 -0.416000
v -0.400000 1.300000 -0.468000
v -0.400000 1.300000 -0.468000
v -0.400000 1.300000 -0.468000
v -0.400000 1.500000 -0.468000
v -0.400000 1.500000 -0.468000
v -0.400000 1.500000 -0.468000
v 0.400000 1.300000 -0.468000
v 0.400000 1.300000 -0.468000
v 0.400000 1.300000 -0.468000
v 0.400000 1.500000 -0.468000
v 0.400000 1.500000 -0.468000
v 0.400000 1.500000 -0.468000
vn -1.0000 -0.0000 -0.0000
vn -0.0000 -0.0000 -1.0000
vn -0.0000 -1.0000 -0.0000
vn -0.0000 -0.0000 1.0000
vn 1.0000 -0.0000 -0.0000
vn -0.0000 1.0000 -0.0000
vt 1.000000 0.000000
vt 0.000000 0.000000
vt 1.000000 1.000000
vt 0.000000 1.000000
vt 0.406250 0.250000
vt 0.437500 0.281250
vt 0.406250 0.281250
vt 0.625000 0.500000
vt 0.625000 0.531250
vt 0.593750 0.531250
vt 0.406250 0.750000
vt 0.406250 0.781250
vt 0.375000 0.781250
vt 0.875000 0.531250
vt 0.843750 0.562500
vt 0.843750 0.531250
vt 0.625000 0.718750
vt 0.625000 0.750000
vt 0.593750 0.750000
vt 0.625000 0.000000
vt 0.593750 0.031250
vt 0.593750 0.000000
vt 0.156250 0.625000
vt 0.156250 0.656250
vt 0.125000 0.656250
vt 0.750000 0.593750
vt 0.718750 0.625000
vt 0.718750 0.593750
vt 0.468750 0.250000
vt 0.500000 0.281250
vt 0.468750 0.281250
vt 0.625000 0.843750
vt 0.593750 0.875000
vt 0.593750 0.843750
vt 0.250000 0.593750
vt 0.218750 0.625000
vt 0.218750 0.593750
vt 0.625000 0.656250
vt 0.593750 0.687500
vt 0.593750 0.656250
vt 0.875000 0.656250
vt 0.843750 0.687500
vt 0.843750 0.656250
vt 0.500000 0.843750
vt 0.468750 0.875000
vt 0.468750 0.843750
vt 0.750000 0.718750
vt 0.718750 0.750000
vt 0.718750 0.718750
vt 0.250000 0.718750
vt 0.281250 0.718750
vt 0.281250 0.750000
vt 0.500000 0.593750
vt 0.468750 0.625000
vt 0.468750 0.593750
vt 0.562500 0.718750
vt 0.531250 0.750000
vt 0.531250 0.718750
vt 0.406250 0.562500
vt 0.406250 0.593750
vt 0.375000 0.593750
vt 0.468750 0.343750
vt 0.500000 0.375000
vt 0.468750 0.375000
vt 0.531250 0.500000
vt 0.500000 0.531250
vt 0.500000 0.500000
vt 0.218750 0.500000
vt 0.218750 0.531250
vt 0.187500 0.531250
vt 0.500000 0.093750
vt 0.468750 0.125000
vt 0.468750 0.093750
vt 0.562500 0.218750
vt 0.531250 0.250000
vt 0.531250 0.218750
vt 0.562500 0.093750
vt 0.531250 0.125000
vt 0.531250 0.093750
vt 0.562500 0.031250
vt 0.531250 0.062500
vt 0.531250 0.031250
vt 0.875000 0.718750
vt 0.843750 0.718750
vt 0.437500 0.093750
vt 0.406250 0.125000
vt 0.406250 0.093750
vt 0.437500 0.031250
vt 0.406250 0.062500
vt 0.406250 0.031250
vt 0.500000 0.031250
vt 0.468750 0.062500
vt 0.468750 0.031250
vt 0.437500 0.156250
vt 0.406250 0.187500
vt 0.406250 0.156250
vt 0.500000 0.156250
vt 0.468750 0.187500
vt 0.468750 0.156250
vt 0.531250 0.343750
vt 0.562500 0.375000
vt 0.531250 0.375000
vt 0.531250 0.281250
vt 0.562500 0.312500
vt 0.531250 0.312500
vt 0.812500 0.500000
vt 0.812500 0.531250
vt 0.781250 0.531250
vt 0.437500 0.343750
vt 0.406250 0.375000
vt 0.406250 0.343750
vt 0.406250 0.312500
vt 0.500000 0.312500
vt 0.468750 0.312500
vt 0.437500 0.500000
vt 0.437500 0.531250
vt 0.406250 0.531250
vt 0.437500 0.406250
vt 0.406250 0.437500
vt 0.406250 0.406250
vt 0.500000 0.406250
vt 0.468750 0.437500
vt 0.468750 0.406250
vt 0.562500 0.593750
vt 0.531250 0.625000
vt 0.531250 0.593750
vt 0.562500 0.531250
vt 0.531250 0.562500
vt 0.531250 0.531250
vt 0.593750 0.781250
vt 0.562500 0.781250
vt 0.437500 0.593750
vt 0.406250 0.625000
vt 0.468750 0.562500
vt 0.468750 0.531250
vt 0.437500 0.656250
vt 0.406250 0.687500
vt 0.406250 0.656250
vt 0.500000 0.656250
vt 0.468750 0.687500
vt 0.468750 0.656250
vt 0.562500 0.843750
vt 0.531250 0.875000
vt 0.531250 0.843750
vt 0.531250 0.812500
vt 0.531250 0.781250
vt 0.656250 0.687500
vt 0.687500 0.718750
vt 0.656250 0.718750
vt 0.437500 0.843750
vt 0.406250 0.875000
vt 0.406250 0.843750
vt 0.437500 0.781250
vt 0.406250 0.812500
vt 0.500000 0.781250
vt 0.468750 0.812500
vt 0.468750 0.781250
vt 0.625000 0.031250
vt 0.593750 0.062500
vt 0.437500 0.906250
vt 0.406250 0.937500
vt 0.406250 0.906250
vt 0.500000 0.906250
vt 0.468750 0.937500
vt 0.468750 0.906250
vt 0.312500 0.593750
vt 0.281250 0.625000
vt 0.281250 0.593750
vt 0.312500 0.531250
vt 0.281250 0.562500
vt 0.281250 0.531250
vt 0.375000 0.531250
vt 0.343750 0.531250
vt 0.187500 0.593750
vt 0.156250 0.593750
vt 0.156250 0.531250
vt 0.125000 0.531250
vt 0.250000 0.531250
vt 0.218750 0.562500
vt 0.656250 0.750000
vt 0.187500 0.656250
vt 0.156250 0.687500
vt 0.250000 0.656250
vt 0.218750 0.687500
vt 0.218750 0.656250
vt 0.812500 0.593750
vt 0.781250 0.625000
vt 0.781250 0.593750
vt 0.781250 0.562500
vt 0.625000 0.218750
vt 0.593750 0.250000
vt 0.593750 0.218750
vt 0.656250 0.593750
vt 0.687500 0.625000
vt 0.656250 0.625000
vt 0.687500 0.531250
vt 0.656250 0.562500
vt 0.656250 0.531250
vt 0.750000 0.531250
vt 0.718750 0.562500
vt 0.718750 0.531250
vt 0.687500 0.750000
vt 0.656250 0.656250
vt 0.687500 0.687500
vt 0.750000 0.656250
vt 0.718750 0.687500
vt 0.718750 0.656250
vt 0.812500 0.656250
vt 0.781250 0.687500
vt 0.781250 0.656250
vt 0.625000 0.093750
vt 0.593750 0.125000
vt 0.593750 0.093750
vt 0.625000 0.906250
vt 0.593750 0.937500
vt 0.593750 0.906250
vt 0.312500 0.656250
vt 0.281250 0.687500
vt 0.281250 0.656250
vt 0.375000 0.656250
vt 0.531250 0.000000
vt 0.562500 0.906250
vt 0.531250 0.937500
vt 0.531250 0.906250
vt 0.812500 0.718750
vt 0.781250 0.750000
vt 0.781250 0.718750
vt 0.562500 0.656250
vt 0.531250 0.687500
vt 0.531250 0.656250
vt 0.562500 0.500000
vt 0.531250 0.406250
vt 0.562500 0.437500
vt 0.531250 0.437500
vt 0.468750 0.468750
vt 0.468750 0.500000
vt 0.562500 0.156250
vt 0.531250 0.187500
vt 0.531250 0.156250
vt 0.875000 0.593750
vt 0.843750 0.625000
vt 0.843750 0.593750
vt 0.593750 0.156250
vt 0.562500 0.187500
vt 0.562500 0.125000
vt 0.875000 0.625000
vt 0.500000 0.187500
vt 0.500000 0.125000
vt 0.500000 0.218750
vt 0.500000 0.250000
vt 0.562500 0.406250
vt 0.593750 0.437500
vt 0.593750 0.406250
vt 0.718750 0.500000
vt 0.500000 0.437500
vt 0.500000 0.468750
vt 0.531250 0.468750
vt 0.562500 0.687500
vt 0.593750 0.625000
vt 0.562500 0.625000
vt 0.625000 0.625000
vt 0.500000 0.687500
vt 0.500000 0.625000
vt 0.500000 0.718750
vt 0.500000 0.750000
vt 0.468750 0.750000
vt 0.562500 0.937500
vt 0.562500 0.875000
vt 0.750000 0.750000
vt 0.500000 0.937500
vt 0.500000 0.875000
vt 0.500000 0.000000
vt 0.500000 0.968750
vt 0.531250 0.968750
vt 0.343750 0.656250
vt 0.312500 0.687500
vt 0.343750 0.625000
vt 0.312500 0.625000
vt 0.375000 0.625000
vt 0.250000 0.687500
vt 0.250000 0.625000
vt 0.375000 0.906250
vt 0.375000 0.875000
vt 0.812500 0.687500
vt 0.812500 0.625000
vt 0.750000 0.687500
vt 0.750000 0.625000
vt 0.625000 0.875000
vt 0.687500 0.656250
vt 0.625000 0.687500
vt 0.625000 0.968750
vt 0.625000 1.000000
vt 0.593750 0.718750
vt 0.687500 0.562500
vt 0.625000 0.437500
vt 0.625000 0.468750
vt 0.781250 0.500000
vt 0.750000 0.500000
vt 0.625000 0.593750
vt 0.625000 0.562500
vt 0.593750 0.468750
vt 0.593750 0.500000
vt 0.687500 0.500000
vt 0.593750 0.593750
vt 0.812500 0.562500
vt 0.593750 0.312500
vt 0.625000 0.312500
vt 0.625000 0.343750
vt 0.406250 0.718750
vt 0.375000 0.750000
vt 0.750000 0.562500
vt 0.593750 0.375000
vt 0.625000 0.375000
vt 0.625000 0.406250
vt 0.843750 0.500000
vt 0.187500 0.687500
vt 0.187500 0.625000
vt 0.562500 0.968750
vt 0.562500 1.000000
vt 0.531250 1.000000
vt 0.500000 1.000000
vt 0.468750 1.000000
vt 0.375000 0.062500
vt 0.375000 0.031250
vt 0.187500 0.718750
vt 0.156250 0.718750
vt 0.187500 0.562500
vt 0.375000 0.312500
vt 0.250000 0.500000
vt 0.437500 0.968750
vt 0.437500 1.000000
vt 0.406250 1.000000
vt 0.843750 0.750000
vt 0.125000 0.625000
vt 0.375000 0.187500
vt 0.375000 0.156250
vt 0.156250 0.562500
vt 0.375000 0.437500
vt 0.406250 0.468750
vt 0.406250 0.218750
vt 0.375000 0.218750
vt 0.250000 0.562500
vt 0.375000 0.375000
vt 0.375000 0.406250
vt 0.312500 0.562500
vt 0.437500 0.937500
vt 0.437500 0.875000
vt 0.375000 0.937500
vt 0.375000 0.843750
vt 0.375000 0.968750
vt 0.375000 1.000000
vt 0.218750 0.718750
vt 0.187500 0.750000
vt 0.406250 0.968750
vt 0.437500 0.812500
vt 0.468750 0.718750
vt 0.437500 0.750000
vt 0.437500 0.718750
vt 0.375000 0.812500
vt 0.312500 0.718750
vt 0.312500 0.750000
vt 0.343750 0.718750
vt 0.562500 0.812500
vt 0.562500 0.750000
vt 0.625000 0.781250
vt 0.500000 0.812500
vt 0.156250 0.750000
vt 0.437500 0.687500
vt 0.437500 0.625000
vt 0.375000 0.687500
vt 0.343750 0.687500
vt 0.437500 0.562500
vt 0.437500 0.468750
vt 0.375000 0.562500
vt 0.343750 0.562500
vt 0.343750 0.593750
vt 0.562500 0.562500
vt 0.375000 0.718750
vt 0.656250 0.500000
vt 0.500000 0.562500
vt 0.437500 0.437500
vt 0.437500 0.375000
vt 0.312500 0.500000
vt 0.593750 0.343750
vt 0.375000 0.468750
vt 0.375000 0.500000
vt 0.343750 0.500000
vt 0.437500 0.312500
vt 0.375000 0.343750
vt 0.468750 0.218750
vt 0.187500 0.500000
vt 0.875000 0.500000
vt 0.437500 0.218750
vt 0.562500 0.281250
vt 0.500000 0.343750
vt 0.437500 0.187500
vt 0.437500 0.125000
vt 0.125000 0.562500
vt 0.375000 0.125000
vt 0.375000 0.093750
vt 0.125000 0.593750
vt 0.437500 0.062500
vt 0.437500 0.000000
vt 0.125000 0.687500
vt 0.468750 0.968750
vt 0.125000 0.718750
vt 0.562500 0.062500
vt 0.562500 0.000000
vt 0.375000 0.250000
vt 0.500000 0.062500
vt 0.593750 0.968750
vt 0.593750 1.000000
vt 0.875000 0.687500
vt 0.437500 0.250000
vt 0.562500 0.343750
vt 0.406250 0.500000
vt 0.593750 0.562500
vt 0.593750 0.812500
vt 0.468750 0.000000
vt 0.625000 0.187500
vt 0.593750 0.187500
vt 0.687500 0.593750
vt 0.625000 0.812500
vt 0.625000 0.937500
vt 0.562500 0.250000
vt 0.812500 0.750000
vt 0.562500 0.468750
vt 0.375000 0.281250
vt 0.375000 0.000000
vt 0.343750 0.750000
vt 0.125000 0.750000
vt 0.156250 0.500000
vt 0.625000 0.250000
vt 0.625000 0.281250
vt 0.625000 0.125000
vt 0.250000 0.750000
vt 0.625000 0.156250
vt 0.625000 0.062500
vt 0.875000 0.562500
vt 0.406250 0.000000
vt 0.281250 0.500000
vt 0.218750 0.750000
vt 0.593750 0.281250
vt 0.875000 0.750000
vt 0.125000 0.500000
s 0
f 294/1/1 302/2/1 290/2/1
f 306/1/2 312/3/2 307/4/2
f 291/2/3 301/2/3 309/4/3
f 294/1/1 304/1/1 302/2/1
f 297/4/4 292/1/4 289/2/4
f 296/4/5 308/4/5 311/3/5
f 318/1/1 326/2/1 314/2/1
f 330/1/2 336/3/2 331/4/2
f 315/2/3 325/2/3 333/4/3
f 318/1/1 328/1/1 326/2/1
f 321/4/4 316/1/4 313/2/4
f 320/4/5 332/4/5 335/3/5
f 449/5/4 120/6/4 253/7/4
f 365/8/1 551/9/1 246/10/1
f 468/11/2 235/12/2 469/13/2
f 447/14/6 166/15/6 222/16/6
f 466/17/1 357/18/1 553/19/1
f 343/20/5 264/21/5 444/22/5
f 61/23/3 226/24/3 502/25/3
f 56/26/6 81/27/6 283/28/6
f 508/29/4 96/30/4 252/31/4
f 499/32/2 90/33/2 276/34/2
f 60/35/3 85/36/3 280/37/3
f 517/38/1 190/39/1 205/40/1
f 482/41/6 178/42/6 214/43/6
f 64/44/2 89/45/2 277/46/2
f 55/47/6 500/48/6 284/49/6
f 59/50/3 213/51/3 522/52/3
f 68/53/1 93/54/1 274/55/1
f 187/56/1 495/57/1 207/58/1
f 133/59/1 245/60/1 515/61/1
f 271/62/4 5/63/4 97/64/4
f 490/65/1 92/66/1 379/67/1
f 510/68/3 227/69/3 156/70/3
f 76/71/5 101/72/5 268/73/5
f 195/74/5 483/75/5 201/76/5
f 103/77/5 78/78/5 266/79/5
f 104/80/5 105/81/5 265/82/5
f 533/83/4 607/84/4 579/84/4
f 107/85/5 77/86/5 263/87/5
f 108/88/5 109/89/5 262/90/5
f 100/91/5 110/92/5 261/93/5
f 453/2/2 573/2/2 688/2/2
f 112/94/5 113/95/5 259/96/5
f 99/97/5 114/98/5 258/99/5
f 257/100/4 26/101/4 74/102/4
f 256/103/4 34/104/4 117/105/4
f 425/106/6 164/107/6 223/108/6
f 119/109/4 73/110/4 254/111/4
f 120/6/4 121/112/4 253/7/4
f 252/31/4 24/113/4 122/114/4
f 403/115/1 132/116/1 244/117/1
f 124/118/4 125/119/4 250/120/4
f 95/121/4 126/122/4 249/123/4
f 127/124/1 70/125/1 248/126/1
f 128/127/1 129/128/1 247/129/1
f 554/19/2 237/130/2 140/131/2
f 131/132/1 69/133/1 245/60/1
f 132/116/1 133/59/1 244/117/1
f 92/66/1 134/134/1 243/135/1
f 471/2/2 584/2/2 700/2/2
f 136/136/1 137/137/1 241/138/1
f 91/139/1 138/140/1 240/141/1
f 139/142/2 66/143/2 239/144/2
f 140/131/2 141/145/2 238/146/2
f 173/147/6 171/148/6 565/149/6
f 143/150/2 65/151/2 236/152/2
f 144/153/2 145/154/2 235/12/2
f 88/155/2 146/156/2 234/157/2
f 532/158/5 106/159/5 264/21/5
f 148/160/2 149/161/2 232/162/2
f 87/163/2 150/164/2 231/165/2
f 151/166/3 62/167/3 230/168/3
f 152/169/3 153/170/3 229/171/3
f 462/172/2 696/173/2 635/172/2
f 155/174/3 61/23/3 228/175/3
f 572/176/2 660/177/2 689/176/2
f 84/178/3 158/179/3 227/69/3
f 561/180/5 605/149/5 563/149/5
f 160/181/3 161/182/3 226/24/3
f 83/183/3 162/184/3 225/185/3
f 163/186/6 58/187/6 224/188/6
f 164/107/6 165/189/6 223/108/6
f 446/190/5 535/191/5 288/192/5
f 221/193/6 9/194/6 57/195/6
f 168/196/6 169/197/6 220/198/6
f 80/199/6 170/200/6 219/201/6
f 284/49/6 437/202/6 171/148/6
f 218/203/6 48/204/6 173/147/6
f 79/205/6 174/206/6 217/207/6
f 571/176/2 528/177/2 661/177/2
f 176/208/6 177/209/6 215/210/6
f 481/211/5 102/212/5 267/213/5
f 523/214/2 186/215/2 208/216/2
f 180/217/3 181/218/3 212/219/3
f 69/133/1 241/138/1 491/220/1
f 503/221/5 265/82/5 100/91/5
f 184/222/2 185/223/2 209/224/2
f 175/225/6 524/226/6 216/227/6
f 496/57/2 238/146/2 88/155/2
f 188/228/1 189/229/1 206/230/1
f 518/38/6 218/203/6 173/147/6
f 427/231/1 128/127/1 247/129/1
f 203/232/4 53/233/4 193/234/4
f 272/235/4 513/236/4 404/115/4
f 484/75/4 256/103/4 96/30/4
f 196/237/5 197/238/5 200/239/5
f 506/240/6 82/241/6 282/242/6
f 199/243/5 54/244/5 196/237/5
f 102/212/5 196/237/5 30/245/5
f 371/246/6 214/43/6 82/241/6
f 200/239/5 27/247/5 99/97/5
f 78/78/5 99/97/5 6/248/5
f 30/245/5 200/239/5 78/78/5
f 75/249/5 374/250/5 507/29/5
f 197/238/5 75/249/5 27/247/5
f 54/244/5 201/76/5 197/238/5
f 192/251/4 194/252/4 53/233/4
f 26/101/4 202/253/4 192/251/4
f 512/254/6 219/201/6 168/196/6
f 95/121/4 193/234/4 23/255/4
f 5/63/4 203/232/4 95/121/4
f 26/101/4 203/232/4 74/102/4
f 71/256/4 380/67/4 513/236/4
f 23/255/4 204/257/4 71/256/4
f 53/233/4 204/257/4 193/234/4
f 205/40/1 52/258/1 188/228/1
f 94/259/1 188/228/1 22/260/1
f 383/261/6 218/203/6 518/38/6
f 206/230/1 19/262/1 91/139/1
f 70/125/1 91/139/1 4/263/1
f 22/260/1 206/230/1 70/125/1
f 67/264/1 386/265/1 519/266/1
f 189/229/1 67/264/1 19/262/1
f 52/258/1 207/58/1 189/229/1
f 208/216/2 51/267/2 184/222/2
f 90/33/2 184/222/2 18/268/2
f 216/227/6 524/226/6 389/269/6
f 209/224/2 15/270/2 87/163/2
f 66/143/2 87/163/2 3/271/2
f 18/268/2 209/224/2 66/143/2
f 503/221/5 100/91/5 370/272/5
f 185/223/2 63/273/2 15/270/2
f 51/267/2 210/274/2 185/223/2
f 211/275/3 50/276/3 180/217/3
f 86/277/3 180/217/3 14/278/3
f 245/60/1 69/133/1 382/279/1
f 83/183/3 181/218/3 11/280/3
f 62/167/3 83/183/3 2/281/3
f 14/278/3 212/219/3 62/167/3
f 65/151/2 497/282/2 388/283/2
f 181/218/3 59/50/3 11/280/3
f 50/276/3 213/51/3 181/218/3
f 176/208/6 178/42/6 49/284/6
f 82/241/6 176/208/6 10/285/6
f 201/76/5 483/75/5 374/250/5
f 215/210/6 7/286/6 79/205/6
f 58/187/6 79/205/6 1/287/6
f 10/285/6 215/210/6 58/187/6
f 390/288/2 523/214/2 208/216/2
f 177/209/6 55/47/6 7/286/6
f 49/284/6 216/227/6 177/209/6
f 217/207/6 48/204/6 172/289/6
f 81/27/6 172/289/6 9/194/6
f 1/287/6 217/207/6 81/27/6
f 173/147/6 464/17/6 407/290/6
f 221/193/6 57/195/6 383/261/6
f 57/195/6 172/289/6 218/203/6
f 476/291/2 591/291/2 596/292/2
f 408/290/1 466/17/1 286/293/1
f 564/149/4 604/149/4 586/17/4
f 219/201/6 47/294/6 168/196/6
f 194/252/4 402/295/4 455/296/4
f 488/297/6 80/199/6 377/298/6
f 169/197/6 494/299/6 431/300/6
f 287/301/4 366/8/4 544/302/4
f 512/254/6 168/196/6 401/303/6
f 383/261/6 57/195/6 218/203/6
f 432/300/1 493/299/1 273/304/1
f 47/294/6 221/193/6 169/197/6
f 222/16/6 46/305/6 164/107/6
f 118/306/4 426/307/4 487/308/4
f 242/309/1 467/11/1 356/310/1
f 223/108/6 8/311/6 80/199/6
f 98/312/4 378/313/4 511/314/4
f 543/315/6 164/107/6 425/106/6
f 224/188/6 1/287/6 56/26/6
f 165/189/6 56/26/6 8/311/6
f 46/305/6 224/188/6 165/189/6
f 225/185/3 45/316/3 160/181/3
f 85/36/3 160/181/3 13/317/3
f 2/281/3 225/185/3 85/36/3
f 183/318/2 393/319/2 504/320/2
f 63/273/2 369/321/2 480/322/2
f 13/317/3 226/24/3 61/23/3
f 173/147/6 565/149/6 464/17/6
f 262/90/5 392/323/5 439/324/5
f 45/316/3 159/325/3 569/326/3
f 227/69/3 44/327/3 156/70/3
f 400/328/4 121/112/4 254/111/4
f 375/329/3 229/171/3 84/178/3
f 147/330/2 417/331/2 531/332/2
f 175/225/6 578/84/6 474/333/6
f 253/7/4 121/112/4 400/328/4
f 61/23/3 502/25/3 367/334/3
f 259/96/5 416/335/5 477/336/5
f 44/327/3 228/175/3 157/337/3
f 575/2/2 666/2/2 698/2/2
f 424/338/4 125/119/4 251/339/4
f 113/95/5 260/340/5 525/341/5
f 229/171/3 12/342/3 84/178/3
f 376/343/4 250/120/4 485/344/4
f 250/120/4 125/119/4 424/338/4
f 230/168/3 2/281/3 60/35/3
f 12/342/3 230/168/3 60/35/3
f 43/345/3 230/168/3 153/170/3
f 231/165/2 42/346/2 148/160/2
f 89/45/2 148/160/2 17/347/2
f 3/271/2 231/165/2 89/45/2
f 232/162/2 149/161/2 436/348/2
f 236/152/2 388/283/2 521/349/2
f 17/347/2 232/162/2 65/151/2
f 556/350/2 339/351/2 619/351/2
f 281/352/3 435/353/3 159/325/3
f 42/346/2 233/354/2 149/161/2
f 234/157/2 41/355/2 144/153/2
f 275/356/1 410/357/1 135/358/1
f 496/57/2 88/155/2 385/265/2
f 235/12/2 145/154/2 412/359/2
f 353/310/2 473/13/2 646/13/2
f 179/360/3 411/361/3 522/52/3
f 236/152/2 65/151/2 388/283/2
f 581/362/3 411/361/3 179/360/3
f 41/355/2 236/152/2 145/154/2
f 237/130/2 40/363/2 140/131/2
f 286/293/1 434/364/1 187/56/1
f 358/18/2 602/365/2 560/365/2
f 238/146/2 16/366/2 88/155/2
f 207/58/1 386/265/1 67/264/1
f 159/325/3 435/353/3 559/367/3
f 239/144/2 3/271/2 64/44/2
f 141/145/2 64/44/2 16/366/2
f 40/363/2 239/144/2 141/145/2
f 240/141/1 39/368/1 136/136/1
f 93/54/1 136/136/1 21/369/1
f 4/263/1 240/141/1 93/54/1
f 492/220/3 429/370/3 182/371/3
f 245/60/1 382/279/1 515/61/1
f 21/369/1 241/138/1 69/133/1
f 547/2/2 355/2/2 655/2/2
f 241/138/1 430/370/1 491/220/1
f 39/368/1 242/309/1 137/137/1
f 243/135/1 38/372/1 132/116/1
f 272/235/4 404/115/4 123/373/4
f 381/279/3 492/220/3 211/275/3
f 460/172/3 405/374/3 154/375/3
f 361/2/2 463/2/2 634/2/2
f 405/374/3 516/61/3 279/376/3
f 516/61/3 381/279/3 86/277/3
f 244/117/1 406/374/1 459/172/1
f 38/372/1 245/60/1 133/59/1
f 246/10/1 37/377/1 128/127/1
f 429/370/3 550/378/3 581/362/3
f 456/379/6 552/9/6 364/8/6
f 247/129/1 20/380/1 92/66/1
f 71/256/4 489/65/4 380/67/4
f 545/302/1 128/127/1 427/231/1
f 248/126/1 4/263/1 68/53/1
f 129/128/1 68/53/1 20/380/1
f 37/377/1 248/126/1 129/128/1
f 249/123/4 36/381/4 124/118/4
f 25/382/4 249/123/4 124/118/4
f 97/64/4 95/121/4 249/123/4
f 423/383/3 152/169/3 229/171/3
f 270/384/4 487/308/4 378/313/4
f 73/110/4 124/118/4 250/120/4
f 538/385/2 363/386/2 643/386/2
f 541/387/3 152/169/3 423/383/3
f 125/119/4 123/373/4 251/339/4
f 252/31/4 35/388/4 120/6/4
f 400/328/4 254/111/4 509/389/4
f 75/249/5 507/29/5 269/390/5
f 399/391/3 156/70/3 570/176/3
f 349/392/6 447/14/6 222/16/6
f 111/393/5 448/5/5 260/340/5
f 375/329/3 84/178/3 227/69/3
f 510/68/3 156/70/3 399/391/3
f 121/112/4 119/109/4 254/111/4
f 116/394/4 118/306/4 34/104/4
f 424/338/4 251/339/4 537/385/4
f 574/2/2 540/2/2 667/2/2
f 96/30/4 117/105/4 24/113/4
f 201/76/5 374/250/5 75/249/5
f 488/297/6 223/108/6 80/199/6
f 72/395/4 74/102/4 5/63/4
f 117/105/4 72/395/4 24/113/4
f 34/104/4 257/100/4 117/105/4
f 258/99/5 33/396/5 112/94/5
f 101/72/5 112/94/5 29/397/5
f 6/248/5 258/99/5 101/72/5
f 570/176/3 157/337/3 415/398/3
f 263/87/5 368/399/5 501/400/5
f 29/397/5 259/96/5 77/86/5
f 526/2/2 347/2/2 631/2/2
f 157/337/3 478/401/3 415/398/3
f 33/396/5 260/340/5 113/95/5
f 261/93/5 32/402/5 108/88/5
f 418/403/5 108/88/5 262/90/5
f 371/246/6 482/41/6 214/43/6
f 226/24/3 161/182/3 391/404/3
f 233/354/2 340/351/2 555/350/2
f 278/405/2 480/322/2 417/331/2
f 228/175/3 61/23/3 367/334/3
f 161/182/3 440/406/3 391/404/3
f 32/402/5 263/87/5 109/89/5
f 264/21/5 31/407/5 104/80/5
f 394/408/5 104/80/5 265/82/5
f 260/340/5 448/5/5 348/409/5
f 265/82/5 28/410/5 100/91/5
f 370/272/5 100/91/5 261/93/5
f 285/411/2 445/412/2 393/319/2
f 266/79/5 6/248/5 76/71/5
f 105/81/5 76/71/5 28/410/5
f 31/407/5 266/79/5 105/81/5
f 267/213/5 30/245/5 103/77/5
f 106/159/5 103/77/5 31/407/5
f 419/413/6 578/84/6 178/42/6
f 268/73/5 29/397/5 107/85/5
f 110/92/5 107/85/5 32/402/5
f 28/410/5 268/73/5 110/92/5
f 111/393/5 398/414/5 448/5/5
f 114/98/5 111/393/5 33/396/5
f 27/247/5 269/390/5 114/98/5
f 115/415/4 98/312/4 26/101/4
f 118/306/4 115/415/4 34/104/4
f 71/256/4 204/257/4 489/65/4
f 271/62/4 25/382/4 119/109/4
f 35/388/4 271/62/4 119/109/4
f 122/114/4 72/395/4 271/62/4
f 251/339/4 404/115/4 457/416/4
f 36/381/4 272/235/4 123/373/4
f 126/122/4 71/256/4 272/235/4
f 273/304/1 22/260/1 127/124/1
f 130/417/1 127/124/1 37/377/1
f 220/198/6 431/300/6 552/9/6
f 274/55/1 21/369/1 131/132/1
f 134/134/1 131/132/1 38/372/1
f 20/380/1 274/55/1 134/134/1
f 135/358/1 410/357/1 467/11/1
f 138/140/1 135/358/1 39/368/1
f 19/262/1 275/356/1 138/140/1
f 276/34/2 18/268/2 139/142/2
f 142/418/2 139/142/2 40/363/2
f 284/49/6 500/48/6 437/202/6
f 277/46/2 17/347/2 143/150/2
f 146/156/2 143/150/2 41/355/2
f 16/366/2 277/46/2 146/156/2
f 479/419/5 108/88/5 418/403/5
f 150/164/2 147/330/2 42/346/2
f 15/270/2 278/405/2 150/164/2
f 279/376/3 14/278/3 151/166/3
f 154/375/3 151/166/3 43/345/3
f 517/38/1 408/290/1 190/39/1
f 280/37/3 13/317/3 155/174/3
f 158/179/3 155/174/3 44/327/3
f 12/342/3 280/37/3 158/179/3
f 232/162/2 436/348/2 497/282/2
f 162/184/3 159/325/3 45/316/3
f 11/280/3 281/352/3 162/184/3
f 282/242/6 10/285/6 163/186/6
f 166/15/6 163/186/6 46/305/6
f 396/420/5 288/192/5 198/421/5
f 283/28/6 9/194/6 167/422/6
f 170/200/6 167/422/6 47/294/6
f 8/311/6 283/28/6 170/200/6
f 438/423/2 499/32/2 276/34/2
f 174/206/6 171/148/6 48/204/6
f 7/286/6 284/49/6 174/206/6
f 414/424/2 476/291/2 285/411/2
f 580/84/1 606/84/1 592/333/1
f 288/192/5 535/191/5 422/425/5
f 235/12/2 412/359/2 469/13/2
f 182/371/3 179/360/3 50/276/3
f 551/9/1 432/300/1 130/417/1
f 444/22/5 104/80/5 394/408/5
f 186/215/2 183/318/2 51/267/2
f 175/225/6 413/426/6 524/226/6
f 187/56/1 434/364/1 495/57/1
f 190/39/1 187/56/1 52/258/1
f 518/38/6 173/147/6 407/290/6
f 204/257/4 428/231/4 489/65/4
f 53/233/4 287/301/4 191/427/4
f 458/416/1 244/117/1 459/172/1
f 195/74/5 422/425/5 483/75/5
f 198/421/5 195/74/5 54/244/5
f 269/390/5 507/29/5 398/414/5
f 615/2/2 614/2/2 706/2/2
f 603/149/6 600/180/6 588/18/6
f 533/83/4 598/83/4 607/84/4
f 466/17/1 590/18/1 357/18/1
f 537/385/4 457/416/4 359/386/4
f 466/17/1 585/17/1 590/18/1
f 561/180/5 601/180/5 605/149/5
f 343/20/5 532/158/5 264/21/5
f 651/310/2 650/13/2 742/13/2
f 612/406/2 683/326/2 781/326/2
f 639/2/2 638/2/2 730/2/2
f 691/176/2 756/177/2 785/176/2
f 159/325/3 559/367/3 569/326/3
f 603/149/6 588/18/6 587/17/6
f 344/409/4 449/5/4 253/7/4
f 156/70/3 157/337/3 570/176/3
f 541/387/3 577/173/3 152/169/3
f 456/379/6 220/198/6 552/9/6
f 444/22/5 264/21/5 104/80/5
f 49/284/6 178/42/6 578/84/6
f 577/173/3 154/375/3 43/345/3
f 458/416/1 459/172/1 360/386/1
f 582/362/2 549/378/2 673/378/2
f 476/291/2 342/292/2 445/412/2
f 778/2/2 861/2/2 868/2/2
f 744/2/2 800/2/2 881/2/2
f 777/2/2 773/2/2 862/2/2
f 732/172/2 791/173/2 878/173/2
f 624/2/2 692/2/2 784/2/2
f 690/176/2 659/177/2 757/177/2
f 694/2/2 762/2/2 794/2/2
f 693/2/2 665/2/2 763/2/2
f 703/362/2 768/378/2 797/362/2
f 702/362/2 671/378/2 769/378/2
f 636/172/2 695/173/2 793/173/2
f 681/2/2 677/2/2 775/2/2
f 648/2/2 704/2/2 796/2/2
f 682/2/2 774/2/2 782/2/2
f 627/409/2 626/428/2 718/428/2
f 711/2/2 710/2/2 802/2/2
f 807/351/2 909/351/2 931/350/2
f 837/13/2 917/13/2 922/310/2
f 839/310/1 921/310/1 928/378/1
f 855/378/4 939/362/4 883/362/4
f 723/409/2 722/428/2 812/428/2
f 805/324/5 910/429/5 806/429/5
f 787/176/2 845/177/2 871/176/2
f 735/2/2 734/2/2 822/2/2
f 708/406/2 779/326/2 867/326/2
f 747/310/2 746/13/2 834/13/2
f 720/2/2 788/2/2 870/2/2
f 786/176/2 755/177/2 846/177/2
f 790/2/2 851/2/2 879/2/2
f 789/2/2 761/2/2 852/2/2
f 799/362/2 856/378/2 882/362/2
f 798/362/2 767/378/2 857/378/2
f 889/172/1 941/172/1 946/386/1
f 884/362/5 938/362/5 918/430/5
f 837/13/2 922/310/2 838/310/2
f 824/172/2 876/173/2 903/173/2
f 944/386/3 943/172/3 950/173/3
f 932/326/3 929/367/3 908/431/3
f 913/432/3 937/176/3 923/177/3
f 955/2/3 973/4/3 959/4/3
f 865/326/4 906/406/4 804/406/4
f 855/378/4 927/378/4 939/362/4
f 860/367/1 930/367/1 934/326/1
f 873/176/1 912/432/1 814/432/1
f 805/324/5 905/324/5 910/429/5
f 901/173/2 942/172/2 888/172/2
f 815/428/4 911/428/4 916/409/4
f 884/362/5 918/430/5 836/430/5
f 891/386/4 945/386/4 949/385/4
f 844/177/2 924/177/2 936/176/2
f 817/409/5 915/409/5 925/341/5
f 896/387/5 948/387/5 952/173/5
f 958/1/1 966/2/1 954/2/1
f 970/1/2 976/3/2 971/4/2
f 955/2/3 965/2/3 973/4/3
f 958/1/1 968/1/1 966/2/1
f 961/4/4 956/1/4 953/2/4
f 960/4/5 972/4/5 975/3/5
f 982/1/1 990/2/1 978/2/1
f 994/1/2 1000/3/2 995/4/2
f 979/2/3 989/2/3 997/4/3
f 982/1/1 992/1/1 990/2/1
f 985/4/4 980/1/4 977/2/4
f 984/4/5 996/4/5 999/3/5
f 300/3/6 305/1/6 293/1/6
f 315/2/3 333/4/3 319/4/3
f 296/4/5 311/3/5 299/3/5
f 306/1/2 307/4/2 303/2/2
f 297/4/4 298/3/4 292/1/4
f 300/3/6 310/3/6 305/1/6
f 324/3/6 329/1/6 317/1/6
f 337/2/2 443/2/2 610/2/2
f 320/4/5 335/3/5 323/3/5
f 330/1/2 331/4/2 327/2/2
f 321/4/4 322/3/4 316/1/4
f 324/3/6 334/3/6 329/1/6
f 536/191/4 350/433/4 542/434/4
f 365/8/1 246/10/1 545/302/1
f 358/18/2 560/365/2 237/130/2
f 476/291/2 596/292/2 342/292/2
f 242/309/1 356/310/1 546/378/1
f 343/20/5 599/158/5 532/158/5
f 216/227/6 389/269/6 55/47/6
f 56/26/6 1/287/6 81/27/6
f 481/211/5 372/435/5 102/212/5
f 59/50/3 522/52/3 387/436/3
f 60/35/3 2/281/3 85/36/3
f 381/279/3 211/275/3 86/277/3
f 210/274/2 369/321/2 63/273/2
f 64/44/2 3/271/2 89/45/2
f 390/288/2 208/216/2 90/33/2
f 385/265/2 88/155/2 234/157/2
f 68/53/1 4/263/1 93/54/1
f 384/261/1 205/40/1 94/259/1
f 379/67/1 92/66/1 243/135/1
f 271/62/4 72/395/4 5/63/4
f 377/298/6 219/201/6 512/254/6
f 508/29/4 373/250/4 96/30/4
f 76/71/5 6/248/5 101/72/5
f 372/435/5 199/243/5 102/212/5
f 103/77/5 30/245/5 78/78/5
f 104/80/5 31/407/5 105/81/5
f 482/41/6 419/413/6 178/42/6
f 107/85/5 29/397/5 77/86/5
f 108/88/5 32/402/5 109/89/5
f 100/91/5 28/410/5 110/92/5
f 449/5/4 397/414/4 120/6/4
f 112/94/5 33/396/5 113/95/5
f 99/97/5 27/247/5 114/98/5
f 257/100/4 115/415/4 26/101/4
f 256/103/4 116/394/4 34/104/4
f 425/106/6 223/108/6 488/297/6
f 119/109/4 25/382/4 73/110/4
f 120/6/4 35/388/4 121/112/4
f 252/31/4 96/30/4 24/113/4
f 403/115/1 244/117/1 458/416/1
f 124/118/4 36/381/4 125/119/4
f 95/121/4 23/255/4 126/122/4
f 127/124/1 22/260/1 70/125/1
f 128/127/1 37/377/1 129/128/1
f 220/198/6 169/197/6 431/300/6
f 131/132/1 21/369/1 69/133/1
f 132/116/1 38/372/1 133/59/1
f 92/66/1 20/380/1 134/134/1
f 409/357/2 144/153/2 235/12/2
f 136/136/1 39/368/1 137/137/1
f 91/139/1 19/262/1 138/140/1
f 139/142/2 18/268/2 66/143/2
f 140/131/2 40/363/2 141/145/2
f 565/149/6 171/148/6 437/202/6
f 143/150/2 17/347/2 65/151/2
f 144/153/2 41/355/2 145/154/2
f 88/155/2 16/366/2 146/156/2
f 278/405/2 417/331/2 147/330/2
f 148/160/2 42/346/2 149/161/2
f 87/163/2 15/270/2 150/164/2
f 151/166/3 14/278/3 62/167/3
f 152/169/3 43/345/3 153/170/3
f 244/117/1 133/59/1 406/374/1
f 155/174/3 13/317/3 61/23/3
f 156/70/3 44/327/3 157/337/3
f 84/178/3 12/342/3 158/179/3
f 149/161/2 555/350/2 436/348/2
f 160/181/3 45/316/3 161/182/3
f 83/183/3 11/280/3 162/184/3
f 163/186/6 10/285/6 58/187/6
f 164/107/6 46/305/6 165/189/6
f 505/437/5 396/420/5 198/421/5
f 221/193/6 167/422/6 9/194/6
f 168/196/6 47/294/6 169/197/6
f 80/199/6 8/311/6 170/200/6
f 438/423/2 276/34/2 142/418/2
f 218/203/6 172/289/6 48/204/6
f 79/205/6 7/286/6 174/206/6
f 175/225/6 474/333/6 413/426/6
f 176/208/6 49/284/6 177/209/6
f 420/438/5 267/213/5 106/159/5
f 145/154/2 521/349/2 412/359/2
f 180/217/3 50/276/3 181/218/3
f 241/138/1 137/137/1 430/370/1
f 285/411/2 393/319/2 183/318/2
f 184/222/2 51/267/2 185/223/2
f 414/424/2 285/411/2 186/215/2
f 433/364/2 140/131/2 238/146/2
f 188/228/1 52/258/1 189/229/1
f 408/290/1 286/293/1 190/39/1
f 427/231/1 247/129/1 490/65/1
f 203/232/4 192/251/4 53/233/4
f 401/303/6 220/198/6 456/379/6
f 484/75/4 421/425/4 116/394/4
f 196/237/5 54/244/5 197/238/5
f 395/439/6 282/242/6 166/15/6
f 199/243/5 198/421/5 54/244/5
f 102/212/5 199/243/5 196/237/5
f 506/240/6 371/246/6 82/241/6
f 200/239/5 197/238/5 27/247/5
f 78/78/5 200/239/5 99/97/5
f 30/245/5 196/237/5 200/239/5
f 484/75/4 96/30/4 373/250/4
f 197/238/5 201/76/5 75/249/5
f 54/244/5 195/74/5 201/76/5
f 192/251/4 202/253/4 194/252/4
f 26/101/4 98/312/4 202/253/4
f 377/298/6 80/199/6 219/201/6
f 95/121/4 203/232/4 193/234/4
f 5/63/4 74/102/4 203/232/4
f 26/101/4 192/251/4 203/232/4
f 490/65/1 247/129/1 92/66/1
f 23/255/4 193/234/4 204/257/4
f 53/233/4 191/427/4 204/257/4
f 205/40/1 190/39/1 52/258/1
f 94/259/1 205/40/1 188/228/1
f 207/58/1 495/57/1 386/265/1
f 206/230/1 189/229/1 19/262/1
f 70/125/1 206/230/1 91/139/1
f 22/260/1 188/228/1 206/230/1
f 385/265/2 234/157/2 520/266/2
f 189/229/1 207/58/1 67/264/1
f 52/258/1 187/56/1 207/58/1
f 208/216/2 186/215/2 51/267/2
f 90/33/2 208/216/2 184/222/2
f 109/89/5 501/400/5 392/323/5
f 209/224/2 185/223/2 15/270/2
f 66/143/2 209/224/2 87/163/2
f 18/268/2 184/222/2 209/224/2
f 370/272/5 261/93/5 479/419/5
f 185/223/2 210/274/2 63/273/2
f 51/267/2 183/318/2 210/274/2
f 211/275/3 182/371/3 50/276/3
f 86/277/3 211/275/3 180/217/3
f 69/133/1 491/220/1 382/279/1
f 83/183/3 212/219/3 181/218/3
f 62/167/3 212/219/3 83/183/3
f 14/278/3 180/217/3 212/219/3
f 145/154/2 236/152/2 521/349/2
f 181/218/3 213/51/3 59/50/3
f 50/276/3 179/360/3 213/51/3
f 176/208/6 214/43/6 178/42/6
f 82/241/6 214/43/6 176/208/6
f 372/435/5 505/437/5 199/243/5
f 215/210/6 177/209/6 7/286/6
f 58/187/6 215/210/6 79/205/6
f 10/285/6 176/208/6 215/210/6
f 55/47/6 389/269/6 500/48/6
f 177/209/6 216/227/6 55/47/6
f 49/284/6 175/225/6 216/227/6
f 217/207/6 174/206/6 48/204/6
f 81/27/6 217/207/6 172/289/6
f 1/287/6 79/205/6 217/207/6
f 520/266/2 234/157/2 144/153/2
f 384/261/1 517/38/1 205/40/1
f 57/195/6 9/194/6 172/289/6
f 182/371/3 581/362/3 179/360/3
f 564/149/4 586/17/4 465/17/4
f 173/147/6 48/204/6 171/148/6
f 219/201/6 170/200/6 47/294/6
f 514/236/1 243/135/1 132/116/1
f 270/384/4 378/313/4 98/312/4
f 432/300/1 273/304/1 130/417/1
f 194/252/4 455/296/4 287/301/4
f 202/253/4 402/295/4 194/252/4
f 221/193/6 383/261/6 494/299/6
f 493/299/1 94/259/1 273/304/1
f 47/294/6 167/422/6 221/193/6
f 222/16/6 166/15/6 46/305/6
f 545/302/1 246/10/1 128/127/1
f 446/190/5 351/433/5 535/191/5
f 223/108/6 165/189/6 8/311/6
f 118/306/4 487/308/4 270/384/4
f 191/427/4 544/302/4 428/231/4
f 224/188/6 58/187/6 1/287/6
f 165/189/6 224/188/6 56/26/6
f 46/305/6 163/186/6 224/188/6
f 225/185/3 162/184/3 45/316/3
f 85/36/3 225/185/3 160/181/3
f 2/281/3 83/183/3 225/185/3
f 262/90/5 109/89/5 392/323/5
f 109/89/5 263/87/5 501/400/5
f 13/317/3 160/181/3 226/24/3
f 460/172/3 154/375/3 577/173/3
f 530/440/5 262/90/5 439/324/5
f 567/2/2 678/2/2 686/2/2
f 227/69/3 158/179/3 44/327/3
f 509/389/4 254/111/4 73/110/4
f 375/329/3 227/69/3 510/68/3
f 259/96/5 113/95/5 416/335/5
f 472/2/2 699/2/2 647/2/2
f 399/391/3 570/176/3 452/432/3
f 263/87/5 77/86/5 368/399/5
f 77/86/5 259/96/5 477/336/5
f 44/327/3 155/174/3 228/175/3
f 577/173/3 43/345/3 152/169/3
f 543/315/6 222/16/6 164/107/6
f 344/409/4 253/7/4 451/428/4
f 229/171/3 153/170/3 12/342/3
f 376/343/4 73/110/4 250/120/4
f 423/383/3 229/171/3 486/441/3
f 230/168/3 62/167/3 2/281/3
f 12/342/3 153/170/3 230/168/3
f 43/345/3 151/166/3 230/168/3
f 231/165/2 150/164/2 42/346/2
f 89/45/2 231/165/2 148/160/2
f 3/271/2 87/163/2 231/165/2
f 281/352/3 498/442/3 435/353/3
f 59/50/3 498/442/3 281/352/3
f 17/347/2 148/160/2 232/162/2
f 338/2/2 609/2/2 620/2/2
f 557/350/2 618/351/2 680/350/2
f 42/346/2 147/330/2 233/354/2
f 234/157/2 146/156/2 41/355/2
f 67/264/1 519/266/1 275/356/1
f 59/50/3 387/436/3 498/442/3
f 581/362/3 470/430/3 411/361/3
f 135/358/1 467/11/1 242/309/1
f 409/357/2 235/12/2 468/11/2
f 499/32/2 390/288/2 90/33/2
f 179/360/3 522/52/3 213/51/3
f 41/355/2 143/150/2 236/152/2
f 237/130/2 142/418/2 40/363/2
f 566/2/2 558/2/2 679/2/2
f 358/18/2 589/18/2 602/365/2
f 238/146/2 141/145/2 16/366/2
f 65/151/2 232/162/2 497/282/2
f 433/364/2 238/146/2 496/57/2
f 239/144/2 66/143/2 3/271/2
f 141/145/2 239/144/2 64/44/2
f 40/363/2 139/142/2 239/144/2
f 240/141/1 138/140/1 39/368/1
f 93/54/1 240/141/1 136/136/1
f 4/263/1 91/139/1 240/141/1
f 429/370/3 581/362/3 182/371/3
f 169/197/6 221/193/6 494/299/6
f 21/369/1 136/136/1 241/138/1
f 468/11/2 469/13/2 352/310/2
f 548/2/2 654/2/2 674/2/2
f 39/368/1 135/358/1 242/309/1
f 243/135/1 134/134/1 38/372/1
f 71/256/4 513/236/4 272/235/4
f 379/67/1 243/135/1 514/236/1
f 405/374/3 279/376/3 154/375/3
f 537/385/4 251/339/4 457/416/4
f 251/339/4 123/373/4 404/115/4
f 493/299/1 384/261/1 94/259/1
f 516/61/3 86/277/3 279/376/3
f 38/372/1 131/132/1 245/60/1
f 246/10/1 130/417/1 37/377/1
f 191/427/4 287/301/4 544/302/4
f 77/86/5 477/336/5 368/399/5
f 247/129/1 129/128/1 20/380/1
f 492/220/3 182/371/3 211/275/3
f 204/257/4 191/427/4 428/231/4
f 248/126/1 70/125/1 4/263/1
f 129/128/1 248/126/1 68/53/1
f 37/377/1 127/124/1 248/126/1
f 249/123/4 126/122/4 36/381/4
f 25/382/4 97/64/4 249/123/4
f 97/64/4 5/63/4 95/121/4
f 255/443/4 542/434/4 426/307/4
f 509/389/4 73/110/4 376/343/4
f 73/110/4 25/382/4 124/118/4
f 461/172/2 576/173/2 697/173/2
f 250/120/4 424/338/4 485/344/4
f 125/119/4 36/381/4 123/373/4
f 252/31/4 122/114/4 35/388/4
f 269/390/5 398/414/5 111/393/5
f 375/329/3 486/441/3 229/171/3
f 202/253/4 511/314/4 402/295/4
f 345/409/2 450/428/2 622/428/2
f 397/414/4 252/31/4 120/6/4
f 98/312/4 511/314/4 202/253/4
f 253/7/4 400/328/4 451/428/4
f 121/112/4 35/388/4 119/109/4
f 116/394/4 255/443/4 118/306/4
f 288/192/5 422/425/5 195/74/5
f 349/392/6 222/16/6 543/315/6
f 96/30/4 256/103/4 117/105/4
f 484/75/4 116/394/4 256/103/4
f 421/425/4 255/443/4 116/394/4
f 72/395/4 257/100/4 74/102/4
f 117/105/4 257/100/4 72/395/4
f 34/104/4 115/415/4 257/100/4
f 258/99/5 114/98/5 33/396/5
f 101/72/5 258/99/5 112/94/5
f 6/248/5 99/97/5 258/99/5
f 570/176/3 415/398/3 529/177/3
f 479/419/5 261/93/5 108/88/5
f 29/397/5 112/94/5 259/96/5
f 346/409/2 621/428/2 632/409/2
f 147/330/2 531/332/2 233/354/2
f 33/396/5 111/393/5 260/340/5
f 261/93/5 110/92/5 32/402/5
f 63/273/2 480/322/2 278/405/2
f 210/274/2 504/320/2 369/321/2
f 226/24/3 391/404/3 502/25/3
f 442/406/2 684/326/2 611/406/2
f 418/403/5 262/90/5 530/440/5
f 228/175/3 367/334/3 478/401/3
f 183/318/2 504/320/2 210/274/2
f 32/402/5 107/85/5 263/87/5
f 264/21/5 106/159/5 31/407/5
f 476/291/2 445/412/2 285/411/2
f 343/20/5 595/20/5 599/158/5
f 265/82/5 105/81/5 28/410/5
f 505/437/5 198/421/5 199/243/5
f 394/408/5 265/82/5 503/221/5
f 266/79/5 78/78/5 6/248/5
f 105/81/5 266/79/5 76/71/5
f 31/407/5 103/77/5 266/79/5
f 267/213/5 102/212/5 30/245/5
f 106/159/5 267/213/5 103/77/5
f 532/158/5 420/438/5 106/159/5
f 268/73/5 101/72/5 29/397/5
f 110/92/5 268/73/5 107/85/5
f 28/410/5 76/71/5 268/73/5
f 397/414/4 508/29/4 252/31/4
f 114/98/5 269/390/5 111/393/5
f 27/247/5 75/249/5 269/390/5
f 115/415/4 270/384/4 98/312/4
f 118/306/4 270/384/4 115/415/4
f 255/443/4 426/307/4 118/306/4
f 271/62/4 97/64/4 25/382/4
f 35/388/4 122/114/4 271/62/4
f 122/114/4 24/113/4 72/395/4
f 514/236/1 132/116/1 403/115/1
f 36/381/4 126/122/4 272/235/4
f 126/122/4 23/255/4 71/256/4
f 273/304/1 94/259/1 22/260/1
f 130/417/1 273/304/1 127/124/1
f 286/293/1 553/19/1 434/364/1
f 274/55/1 93/54/1 21/369/1
f 134/134/1 274/55/1 131/132/1
f 20/380/1 68/53/1 274/55/1
f 520/266/2 144/153/2 409/357/2
f 138/140/1 275/356/1 135/358/1
f 19/262/1 67/264/1 275/356/1
f 276/34/2 90/33/2 18/268/2
f 142/418/2 276/34/2 139/142/2
f 441/406/2 568/326/2 685/326/2
f 277/46/2 89/45/2 17/347/2
f 146/156/2 277/46/2 143/150/2
f 16/366/2 64/44/2 277/46/2
f 419/413/6 534/83/6 578/84/6
f 150/164/2 278/405/2 147/330/2
f 15/270/2 63/273/2 278/405/2
f 279/376/3 86/277/3 14/278/3
f 154/375/3 279/376/3 151/166/3
f 133/59/1 515/61/1 406/374/1
f 280/37/3 85/36/3 13/317/3
f 158/179/3 280/37/3 155/174/3
f 12/342/3 60/35/3 280/37/3
f 560/365/2 438/423/2 142/418/2
f 162/184/3 281/352/3 159/325/3
f 11/280/3 59/50/3 281/352/3
f 282/242/6 82/241/6 10/285/6
f 166/15/6 282/242/6 163/186/6
f 396/420/5 446/190/5 288/192/5
f 283/28/6 81/27/6 9/194/6
f 170/200/6 283/28/6 167/422/6
f 8/311/6 56/26/6 283/28/6
f 565/149/6 437/202/6 562/180/6
f 174/206/6 284/49/6 171/148/6
f 7/286/6 55/47/6 284/49/6
f 580/84/1 592/333/1 475/333/1
f 49/284/6 578/84/6 175/225/6
f 420/438/5 481/211/5 267/213/5
f 523/214/2 414/424/2 186/215/2
f 583/362/2 672/378/2 701/362/2
f 137/137/1 546/378/1 430/370/1
f 395/439/6 506/240/6 282/242/6
f 186/215/2 285/411/2 183/318/2
f 113/95/5 525/341/5 416/335/5
f 554/19/2 140/131/2 433/364/2
f 190/39/1 286/293/1 187/56/1
f 275/356/1 519/266/1 410/357/1
f 137/137/1 242/309/1 546/378/1
f 53/233/4 194/252/4 287/301/4
f 401/303/6 168/196/6 220/198/6
f 421/425/4 536/191/4 255/443/4
f 198/421/5 288/192/5 195/74/5
f 447/14/6 395/439/6 166/15/6
f 597/83/6 593/333/6 608/84/6
f 597/83/6 594/444/6 593/333/6
f 536/191/4 542/434/4 255/443/4
f 358/18/2 237/130/2 554/19/2
f 466/17/1 553/19/1 286/293/1
f 45/316/3 569/326/3 161/182/3
f 560/365/2 142/418/2 237/130/2
f 157/337/3 228/175/3 478/401/3
f 637/172/2 792/173/2 731/172/2
f 675/350/2 617/351/2 715/351/2
f 625/2/2 783/2/2 719/2/2
f 676/350/2 714/351/2 776/350/2
f 233/354/2 531/332/2 340/351/2
f 551/9/1 130/417/1 246/10/1
f 260/340/5 348/409/5 525/341/5
f 149/161/2 233/354/2 555/350/2
f 362/2/2 633/2/2 644/2/2
f 454/2/2 687/2/2 623/2/2
f 161/182/3 569/326/3 440/406/3
f 539/385/2 642/386/2 668/385/2
f 527/2/2 630/2/2 662/2/2
f 287/301/4 455/296/4 366/8/4
f 354/310/2 645/13/2 656/310/2
f 530/440/5 439/324/5 341/429/5
f 712/2/2 801/2/2 810/2/2
f 765/2/2 749/2/2 841/2/2
f 748/310/2 833/13/2 842/310/2
f 759/385/2 737/386/2 831/386/2
f 657/2/2 629/2/2 727/2/2
f 649/2/2 795/2/2 743/2/2
f 658/2/2 726/2/2 758/2/2
f 628/409/2 717/428/2 728/409/2
f 664/385/2 738/386/2 764/385/2
f 640/2/2 729/2/2 740/2/2
f 663/385/2 641/386/2 739/386/2
f 652/310/2 741/13/2 752/310/2
f 669/2/2 653/2/2 751/2/2
f 616/2/2 705/2/2 716/2/2
f 613/406/2 780/326/2 707/406/2
f 670/2/2 750/2/2 770/2/2
f 815/428/4 916/409/4 816/409/4
f 889/172/1 946/386/1 890/386/1
f 844/177/2 936/176/2 872/176/2
f 828/2/2 885/2/2 894/2/2
f 709/406/2 866/326/2 803/406/2
f 766/2/2 840/2/2 858/2/2
f 772/350/2 808/351/2 863/350/2
f 721/2/2 869/2/2 813/2/2
f 771/350/2 713/351/2 809/351/2
f 733/172/2 877/173/2 823/172/2
f 753/2/2 725/2/2 819/2/2
f 745/2/2 880/2/2 835/2/2
f 754/2/2 818/2/2 847/2/2
f 724/409/2 811/428/2 820/409/2
f 760/385/2 830/386/2 853/385/2
f 736/2/2 821/2/2 832/2/2
f 932/326/3 908/431/3 907/406/3
f 849/385/2 892/386/2 899/385/2
f 825/172/2 902/173/2 887/172/2
f 848/385/2 829/386/2 893/386/2
f 926/378/3 919/430/3 940/362/3
f 913/432/3 923/177/3 914/445/3
f 926/378/3 920/310/3 919/430/3
f 944/386/3 950/173/3 947/387/3
f 807/351/2 931/350/2 859/350/2
f 860/367/1 934/326/1 864/326/1
f 865/326/4 933/326/4 906/406/4
f 817/409/5 925/341/5 843/341/5
f 873/176/1 935/176/1 912/432/1
f 891/386/4 949/385/4 895/385/4
f 875/2/2 897/2/2 904/2/2
f 839/310/1 928/378/1 854/378/1
f 896/387/5 952/173/5 900/173/5
f 874/2/2 850/2/2 898/2/2
f 827/2/2 826/2/2 886/2/2
f 901/173/2 951/173/2 942/172/2
f 964/3/6 969/1/6 957/1/6
f 979/2/3 997/4/3 983/4/3
f 960/4/5 975/3/5 963/3/5
f 970/1/2 971/4/2 967/2/2
f 961/4/4 962/3/4 956/1/4
f 964/3/6 974/3/6 969/1/6
f 988/3/6 993/1/6 981/1/6
f 984/4/5 999/3/5 987/3/5
f 994/1/2 995/4/2 991/2/2
f 985/4/4 986/3/4 980/1/4
f 988/3/6 998/3/6 993/1/6
f 289/2/2 290/2/2 291/2/2
f 292/1/2 293/1/2 294/1/2
f 295/4/2 296/4/2 297/4/2
f 298/3/2 299/3/2 300/3/2
f 301/2/2 302/2/2 303/2/2
f 304/1/2 305/1/2 306/1/2
f 307/4/2 308/4/2 309/4/2
f 310/3/2 311/3/2 312/3/2
f 313/2/2 314/2/2 315/2/2
f 316/1/2 317/1/2 318/1/2
f 319/4/2 320/4/2 321/4/2
f 322/3/2 323/3/2 324/3/2
f 325/2/2 326/2/2 327/2/2
f 328/1/2 329/1/2 330/1/2
f 331/4/2 332/4/2 333/4/2
f 334/3/2 335/3/2 336/3/2
f 337/2/2 338/2/2 339/2/2 340/2/2 341/2/2
f 344/409/2 345/409/2 346/409/2 347/2/2 348/409/2
f 349/433/2 350/433/2 351/433/2
f 352/310/2 353/310/2 354/310/2 355/2/2 356/310/2
f 359/386/2 360/386/2 361/2/2 362/2/2 363/386/2
f 364/8/2 365/8/2 366/8/2
f 439/406/2 440/406/2 441/406/2 442/406/2 443/406/2
f 450/428/2 451/428/2 452/428/2 453/428/2 454/428/2
f 459/172/2 460/172/2 461/172/2 462/172/2 463/2/2
f 464/17/2 465/17/2 466/17/2
f 469/430/2 470/430/2 471/430/2 472/430/2 473/430/2
f 474/333/2 475/333/2 476/333/2
f 525/2/2 526/2/2 527/2/2 528/2/2 529/2/2
f 532/83/2 533/83/2 534/83/2
f 537/385/2 538/385/2 539/385/2 540/385/2 541/385/2
f 546/378/2 547/2/2 548/2/2 549/378/2 550/378/2
f 555/350/2 556/350/2 557/350/2 558/350/2 559/350/2
f 560/180/2 561/180/2 562/180/2
f 563/149/2 564/149/2 565/149/2
f 566/2/2 567/2/2 568/326/2 569/326/2
f 570/176/2 571/176/2 572/176/2 573/2/2
f 574/2/2 575/2/2 576/173/2 577/173/2
f 578/84/2 579/84/2 580/84/2
f 581/362/2 582/362/2 583/362/2 584/2/2
f 585/17/2 586/17/2 587/17/2
f 588/18/2 589/18/2 590/18/2
f 591/333/2 592/333/2 593/333/2
f 594/444/2 595/444/2 596/444/2
f 597/83/2 598/83/2 599/83/2
f 600/180/2 601/180/2 602/180/2
f 603/149/2 604/149/2 605/149/2
f 606/84/2 607/84/2 608/84/2
f 609/2/2 610/2/2 611/2/2 612/2/2 613/2/2 614/2/2
f 615/2/2 616/2/2 617/2/2 618/2/2 619/2/2 620/2/2
f 621/428/2 622/428/2 623/428/2 624/428/2 625/428/2 626/428/2
f 627/409/2 628/409/2 629/2/2 630/2/2 631/2/2 632/409/2
f 633/2/2 634/2/2 635/172/2 636/172/2 637/172/2 638/2/2
f 639/2/2 640/2/2 641/386/2 642/386/2 643/386/2 644/2/2
f 645/13/2 646/13/2 647/13/2 648/13/2 649/13/2 650/13/2
f 651/310/2 652/310/2 653/2/2 654/2/2 655/2/2 656/310/2
f 657/2/2 658/2/2 659/2/2 660/2/2 661/2/2 662/2/2
f 663/385/2 664/385/2 665/385/2 666/385/2 667/385/2 668/385/2
f 669/2/2 670/2/2 671/378/2 672/378/2 673/378/2 674/2/2
f 675/350/2 676/350/2 677/350/2 678/350/2 679/350/2 680/350/2
f 681/2/2 682/2/2 683/326/2 684/326/2 685/326/2 686/2/2
f 687/2/2 688/2/2 689/176/2 690/176/2 691/176/2 692/2/2
f 693/2/2 694/2/2 695/173/2 696/173/2 697/173/2 698/2/2
f 699/2/2 700/2/2 701/362/2 702/362/2 703/362/2 704/2/2
f 705/2/2 706/2/2 707/2/2 708/2/2 709/2/2 710/2/2
f 711/2/2 712/2/2 713/2/2 714/2/2 715/2/2 716/2/2
f 717/428/2 718/428/2 719/428/2 720/428/2 721/428/2 722/428/2
f 723/409/2 724/409/2 725/2/2 726/2/2 727/2/2 728/409/2
f 729/2/2 730/2/2 731/172/2 732/172/2 733/172/2 734/2/2
f 735/2/2 736/2/2 737/386/2 738/386/2 739/386/2 740/2/2
f 741/13/2 742/13/2 743/13/2 744/13/2 745/13/2 746/13/2
f 747/310/2 748/310/2 749/2/2 750/2/2 751/2/2 752/310/2
f 753/2/2 754/2/2 755/2/2 756/2/2 757/2/2 758/2/2
f 759/385/2 760/385/2 761/385/2 762/385/2 763/385/2 764/385/2
f 765/2/2 766/2/2 767/378/2 768/378/2 769/378/2 770/2/2
f 771/350/2 772/350/2 773/350/2 774/350/2 775/350/2 776/350/2
f 777/2/2 778/2/2 779/326/2 780/326/2 781/326/2 782/2/2
f 783/2/2 784/2/2 785/176/2 786/176/2 787/176/2 788/2/2
f 789/2/2 790/2/2 791/173/2 792/173/2 793/173/2 794/2/2
f 795/2/2 796/2/2 797/362/2 798/362/2 799/362/2 800/2/2
f 801/324/2 802/324/2 803/324/2 804/324/2 805/324/2
f 806/429/2 807/429/2 808/429/2 809/429/2 810/429/2
f 811/428/2 812/428/2 813/428/2 814/428/2 815/428/2
f 816/409/2 817/409/2 818/2/2 819/2/2 820/409/2
f 821/2/2 822/2/2 823/172/2 824/172/2 825/172/2 826/2/2
f 827/2/2 828/2/2 829/386/2 830/386/2 831/386/2 832/2/2
f 833/13/2 834/13/2 835/13/2 836/13/2 837/13/2
f 838/310/2 839/310/2 840/2/2 841/2/2 842/310/2
f 843/341/2 844/341/2 845/341/2 846/341/2 847/341/2
f 848/385/2 849/385/2 850/385/2 851/385/2 852/385/2 853/385/2
f 854/378/2 855/378/2 856/378/2 857/378/2 858/2/2
f 859/367/2 860/367/2 861/367/2 862/367/2 863/367/2
f 864/326/2 865/326/2 866/326/2 867/326/2 868/2/2
f 869/2/2 870/2/2 871/176/2 872/176/2 873/176/2
f 874/2/2 875/2/2 876/173/2 877/173/2 878/173/2 879/2/2
f 880/2/2 881/2/2 882/362/2 883/362/2 884/362/2
f 885/2/2 886/2/2 887/172/2 888/172/2 889/172/2
f 890/386/2 891/386/2 892/386/2 893/386/2 894/2/2
f 895/385/2 896/385/2 897/385/2 898/385/2 899/385/2
f 900/173/2 901/173/2 902/173/2 903/173/2 904/2/2
f 905/406/2 906/406/2 907/406/2
f 908/431/2 909/431/2 910/431/2
f 911/432/2 912/432/2 913/432/2
f 914/445/2 915/445/2 916/445/2
f 917/430/2 918/430/2 919/430/2
f 920/310/2 921/310/2 922/310/2
f 923/177/2 924/177/2 925/177/2
f 926/378/2 927/378/2 928/378/2
f 929/367/2 930/367/2 931/367/2
f 932/326/2 933/326/2 934/326/2
f 935/176/2 936/176/2 937/176/2
f 938/362/2 939/362/2 940/362/2
f 941/172/2 942/172/2 943/172/2
f 944/386/2 945/386/2 946/386/2
f 947/387/2 948/387/2 949/387/2
f 950/173/2 951/173/2 952/173/2
f 953/2/2 954/2/2 955/2/2
f 956/1/2 957/1/2 958/1/2
f 959/4/2 960/4/2 961/4/2
f 962/3/2 963/3/2 964/3/2
f 965/2/2 966/2/2 967/2/2
f 968/1/2 969/1/2 970/1/2
f 971/4/2 972/4/2 973/4/2
f 974/3/2 975/3/2 976/3/2
f 977/2/2 978/2/2 979/2/2
f 980/1/2 981/1/2 982/1/2
f 983/4/2 984/4/2 985/4/2
f 986/3/2 987/3/2 988/3/2
f 989/2/2 990/2/2 991/2/2
f 992/1/2 993/1/2 994/1/2
f 995/4/2 996/4/2 997/4/2
f 998/3/2 999/3/2 1000/3/2
f 297/4/2 289/2/2 291/2/2 295/4/2
f 289/2/2 292/1/2 294/1/2 290/2/2
f 292/1/2 298/3/2 300/3/2 293/1/2
f 298/3/2 297/4/2 296/4/2 299/3/2
f 309/4/2 301/2/2 303/2/2 307/4/2
f 302/2/2 304/1/2 306/1/2 303/2/2
f 305/1/2 310/3/2 312/3/2 306/1/2
f 311/3/2 308/4/2 307/4/2 312/3/2
f 293/1/2 305/1/2 304/1/2 294/1/2
f 301/2/2 291/2/2 290/2/2 302/2/2
f 299/3/2 311/3/2 310/3/2 300/3/2
f 308/4/2 296/4/2 295/4/2 309/4/2
f 321/4/2 313/2/2 315/2/2 319/4/2
f 313/2/2 316/1/2 318/1/2 314/2/2
f 316/1/2 322/3/2 324/3/2 317/1/2
f 322/3/2 321/4/2 320/4/2 323/3/2
f 333/4/2 325/2/2 327/2/2 331/4/2
f 326/2/2 328/1/2 330/1/2 327/2/2
f 329/1/2 334/3/2 336/3/2 330/1/2
f 335/3/2 332/4/2 331/4/2 336/3/2
f 317/1/2 329/1/2 328/1/2 318/1/2
f 325/2/2 315/2/2 314/2/2 326/2/2
f 323/3/2 335/3/2 334/3/2 324/3/2
f 332/4/2 320/4/2 319/4/2 333/4/2
f 443/2/2 337/2/2 341/429/2 439/324/2
f 445/22/2 342/20/2 343/20/2 444/22/2
f 447/190/2 349/433/2 351/433/2 446/190/2
f 449/5/2 344/409/2 348/409/2 448/5/2
f 450/428/2 345/409/2 344/409/2 451/428/2
f 456/296/2 364/8/2 366/8/2 455/296/2
f 458/416/2 360/386/2 359/386/2 457/416/2
f 463/2/2 361/2/2 360/386/2 459/172/2
f 468/11/2 352/310/2 356/310/2 467/11/2
f 473/13/2 353/310/2 352/310/2 469/13/2
f 478/401/2 367/334/2 368/334/2 477/401/2
f 480/419/2 369/272/2 370/272/2 479/419/2
f 482/211/2 371/435/2 372/435/2 481/211/2
f 484/75/2 373/250/2 374/250/2 483/75/2
f 486/344/2 375/343/2 376/343/2 485/344/2
f 488/308/2 377/313/2 378/313/2 487/308/2
f 490/65/2 379/67/2 380/67/2 489/65/2
f 492/220/2 381/279/2 382/279/2 491/220/2
f 494/299/2 383/261/2 384/261/2 493/299/2
f 496/57/2 385/265/2 386/265/2 495/57/2
f 498/442/2 387/436/2 388/436/2 497/442/2
f 500/48/2 389/269/2 390/269/2 499/48/2
f 502/25/2 391/404/2 392/404/2 501/25/2
f 504/221/2 393/408/2 394/408/2 503/221/2
f 506/437/2 395/420/2 396/420/2 505/437/2
f 508/29/2 397/414/2 398/414/2 507/29/2
f 510/389/2 399/328/2 400/328/2 509/389/2
f 512/314/2 401/295/2 402/295/2 511/314/2
f 514/236/2 403/115/2 404/115/2 513/236/2
f 516/61/2 405/374/2 406/374/2 515/61/2
f 518/38/2 407/290/2 408/290/2 517/38/2
f 520/266/2 409/357/2 410/357/2 519/266/2
f 522/52/2 411/361/2 412/361/2 521/52/2
f 524/226/2 413/426/2 414/426/2 523/226/2
f 529/177/2 415/398/2 416/398/2 525/177/2
f 531/440/2 417/403/2 418/403/2 530/440/2
f 534/158/2 419/438/2 420/438/2 532/158/2
f 536/191/2 421/425/2 422/425/2 535/191/2
f 541/385/2 423/338/2 424/338/2 537/385/2
f 543/434/2 425/307/2 426/307/2 542/434/2
f 545/302/2 427/231/2 428/231/2 544/302/2
f 550/378/2 429/370/2 430/370/2 546/378/2
f 552/9/2 431/300/2 432/300/2 551/9/2
f 554/19/2 433/364/2 434/364/2 553/19/2
f 559/367/2 435/353/2 436/353/2 555/367/2
f 562/180/2 437/202/2 438/202/2 560/180/2
f 391/404/2 440/406/2 439/406/2 392/404/2
f 393/408/2 445/22/2 444/22/2 394/408/2
f 395/420/2 447/190/2 446/190/2 396/420/2
f 397/414/2 449/5/2 448/5/2 398/414/2
f 399/328/2 452/428/2 451/428/2 400/328/2
f 401/295/2 456/296/2 455/296/2 402/295/2
f 403/115/2 458/416/2 457/416/2 404/115/2
f 405/374/2 460/172/2 459/172/2 406/374/2
f 407/290/2 464/17/2 466/17/2 408/290/2
f 409/357/2 468/11/2 467/11/2 410/357/2
f 411/361/2 470/430/2 469/430/2 412/361/2
f 413/426/2 474/333/2 476/333/2 414/426/2
f 415/398/2 478/401/2 477/401/2 416/398/2
f 417/403/2 480/419/2 479/419/2 418/403/2
f 419/438/2 482/211/2 481/211/2 420/438/2
f 421/425/2 484/75/2 483/75/2 422/425/2
f 423/338/2 486/344/2 485/344/2 424/338/2
f 425/307/2 488/308/2 487/308/2 426/307/2
f 427/231/2 490/65/2 489/65/2 428/231/2
f 429/370/2 492/220/2 491/220/2 430/370/2
f 431/300/2 494/299/2 493/299/2 432/300/2
f 433/364/2 496/57/2 495/57/2 434/364/2
f 435/353/2 498/442/2 497/442/2 436/353/2
f 437/202/2 500/48/2 499/48/2 438/202/2
f 367/334/2 502/25/2 501/25/2 368/334/2
f 369/272/2 504/221/2 503/221/2 370/272/2
f 371/435/2 506/437/2 505/437/2 372/435/2
f 373/250/2 508/29/2 507/29/2 374/250/2
f 375/343/2 510/389/2 509/389/2 376/343/2
f 377/313/2 512/314/2 511/314/2 378/313/2
f 379/67/2 514/236/2 513/236/2 380/67/2
f 381/279/2 516/61/2 515/61/2 382/279/2
f 383/261/2 518/38/2 517/38/2 384/261/2
f 385/265/2 520/266/2 519/266/2 386/265/2
f 387/436/2 522/52/2 521/52/2 388/436/2
f 389/269/2 524/226/2 523/226/2 390/269/2
f 347/2/2 526/2/2 525/341/2 348/409/2
f 340/429/2 531/440/2 530/440/2 341/429/2
f 350/433/2 536/191/2 535/191/2 351/433/2
f 363/386/2 538/385/2 537/385/2 359/386/2
f 349/433/2 543/434/2 542/434/2 350/433/2
f 365/8/2 545/302/2 544/302/2 366/8/2
f 355/2/2 547/2/2 546/378/2 356/310/2
f 364/8/2 552/9/2 551/9/2 365/8/2
f 358/18/2 554/19/2 553/19/2 357/18/2
f 339/351/2 556/350/2 555/350/2 340/351/2
f 565/149/2 562/180/2 561/180/2 563/149/2
f 564/149/2 465/17/2 464/17/2 565/149/2
f 569/326/2 559/367/2 558/2/2 566/2/2
f 568/326/2 441/406/2 440/406/2 569/326/2
f 452/432/2 570/176/2 573/2/2 453/2/2
f 570/176/2 529/177/2 528/177/2 571/176/2
f 540/2/2 574/2/2 577/173/2 541/387/2
f 460/172/2 577/173/2 576/173/2 461/172/2
f 580/84/2 475/333/2 474/333/2 578/84/2
f 533/83/2 579/84/2 578/84/2 534/83/2
f 584/2/2 471/2/2 470/430/2 581/362/2
f 549/378/2 582/362/2 581/362/2 550/378/2
f 587/17/2 588/18/2 590/18/2 585/17/2
f 593/333/2 594/444/2 596/444/2 591/333/2
f 594/20/2 597/158/2 599/158/2 595/20/2
f 588/18/2 600/180/2 602/180/2 589/18/2
f 605/149/2 601/180/2 600/180/2 603/149/2
f 603/149/2 587/17/2 586/17/2 604/149/2
f 608/84/2 593/333/2 592/333/2 606/84/2
f 597/83/2 608/84/2 607/84/2 598/83/2
f 579/84/2 607/84/2 606/84/2 580/84/2
f 591/333/2 476/333/2 475/333/2 592/333/2
f 342/20/2 596/20/2 595/20/2 343/20/2
f 598/83/2 533/83/2 532/83/2 599/83/2
f 357/18/2 590/18/2 589/18/2 358/18/2
f 601/180/2 561/180/2 560/180/2 602/180/2
f 465/17/2 586/17/2 585/17/2 466/17/2
f 563/149/2 605/149/2 604/149/2 564/149/2
f 614/2/2 615/2/2 620/2/2 609/2/2
f 626/428/2 627/409/2 632/409/2 621/428/2
f 638/2/2 639/2/2 644/2/2 633/2/2
f 650/13/2 651/310/2 656/310/2 645/13/2
f 629/2/2 657/2/2 662/2/2 630/2/2
f 641/386/2 663/385/2 668/385/2 642/386/2
f 653/2/2 669/2/2 674/2/2 654/2/2
f 617/351/2 675/350/2 680/350/2 618/351/2
f 686/2/2 678/2/2 677/2/2 681/2/2
f 683/326/2 612/406/2 611/406/2 684/326/2
f 623/2/2 687/2/2 692/2/2 624/2/2
f 689/176/2 660/177/2 659/177/2 690/176/2
f 665/2/2 693/2/2 698/2/2 666/2/2
f 635/172/2 696/173/2 695/173/2 636/172/2
f 704/2/2 648/2/2 647/2/2 699/2/2
f 671/378/2 702/362/2 701/362/2 672/378/2
f 346/409/2 632/409/2 631/2/2 347/2/2
f 661/2/2 528/2/2 527/2/2 662/2/2
f 583/362/2 701/362/2 700/2/2 584/2/2
f 646/2/2 473/2/2 472/2/2 647/2/2
f 575/2/2 698/2/2 697/173/2 576/173/2
f 634/2/2 463/2/2 462/172/2 635/172/2
f 655/2/2 355/2/2 354/310/2 656/310/2
f 338/2/2 620/2/2 619/2/2 339/2/2
f 679/2/2 558/2/2 557/2/2 680/2/2
f 548/2/2 674/2/2 673/378/2 549/378/2
f 454/428/2 623/428/2 622/428/2 450/428/2
f 685/326/2 568/326/2 567/2/2 686/2/2
f 362/2/2 644/2/2 643/386/2 363/386/2
f 667/385/2 540/385/2 539/385/2 668/385/2
f 572/176/2 689/176/2 688/2/2 573/2/2
f 610/406/2 443/406/2 442/406/2 611/406/2
f 710/2/2 711/2/2 716/2/2 705/2/2
f 722/428/2 723/409/2 728/409/2 717/428/2
f 734/2/2 735/2/2 740/2/2 729/2/2
f 746/13/2 747/310/2 752/310/2 741/13/2
f 725/2/2 753/2/2 758/2/2 726/2/2
f 737/386/2 759/385/2 764/385/2 738/386/2
f 749/2/2 765/2/2 770/2/2 750/2/2
f 713/351/2 771/350/2 776/350/2 714/351/2
f 782/2/2 774/2/2 773/2/2 777/2/2
f 779/326/2 708/406/2 707/406/2 780/326/2
f 719/2/2 783/2/2 788/2/2 720/2/2
f 785/176/2 756/177/2 755/177/2 786/176/2
f 761/2/2 789/2/2 794/2/2 762/2/2
f 731/172/2 792/173/2 791/173/2 732/172/2
f 800/2/2 744/2/2 743/2/2 795/2/2
f 767/378/2 798/362/2 797/362/2 768/378/2
f 676/2/2 776/2/2 775/2/2 677/2/2
f 781/326/2 683/326/2 682/2/2 782/2/2
f 625/428/2 719/428/2 718/428/2 626/428/2
f 727/2/2 629/2/2 628/409/2 728/409/2
f 706/406/2 614/406/2 613/406/2 707/406/2
f 637/172/2 731/172/2 730/2/2 638/2/2
f 739/386/2 641/386/2 640/2/2 740/2/2
f 691/176/2 785/176/2 784/2/2 692/2/2
f 649/2/2 743/2/2 742/2/2 650/2/2
f 751/2/2 653/2/2 652/310/2 752/310/2
f 658/2/2 758/2/2 757/2/2 659/2/2
f 664/385/2 764/385/2 763/385/2 665/385/2
f 793/173/2 695/173/2 694/2/2 794/2/2
f 769/378/2 671/378/2 670/2/2 770/2/2
f 703/362/2 797/362/2 796/2/2 704/2/2
f 616/2/2 716/2/2 715/2/2 617/2/2
f 805/324/2 806/429/2 810/2/2 801/2/2
f 815/428/2 816/409/2 820/409/2 811/428/2
f 826/2/2 827/2/2 832/2/2 821/2/2
f 837/13/2 838/310/2 842/310/2 833/13/2
f 817/409/2 843/341/2 847/2/2 818/2/2
f 829/386/2 848/385/2 853/385/2 830/386/2
f 839/310/2 854/378/2 858/2/2 840/2/2
f 807/351/2 859/350/2 863/350/2 808/351/2
f 868/2/2 861/2/2 860/367/2 864/326/2
f 865/326/2 804/406/2 803/406/2 866/326/2
f 813/2/2 869/2/2 873/176/2 814/432/2
f 871/176/2 845/177/2 844/177/2 872/176/2
f 850/2/2 874/2/2 879/2/2 851/2/2
f 823/172/2 877/173/2 876/173/2 824/172/2
f 884/362/2 836/430/2 835/2/2 880/2/2
f 855/378/2 883/362/2 882/362/2 856/378/2
f 790/2/2 879/2/2 878/173/2 791/173/2
f 822/2/2 734/2/2 733/172/2 823/172/2
f 748/310/2 842/310/2 841/2/2 749/2/2
f 857/378/2 767/378/2 766/2/2 858/2/2
f 799/362/2 882/362/2 881/2/2 800/2/2
f 834/2/2 746/2/2 745/2/2 835/2/2
f 712/2/2 810/2/2 809/2/2 713/2/2
f 862/2/2 773/2/2 772/2/2 863/2/2
f 709/406/2 803/406/2 802/406/2 710/406/2
f 867/326/2 779/326/2 778/2/2 868/2/2
f 721/428/2 813/428/2 812/428/2 722/428/2
f 819/2/2 725/2/2 724/409/2 820/409/2
f 831/386/2 737/386/2 736/2/2 832/2/2
f 787/176/2 871/176/2 870/2/2 788/2/2
f 754/2/2 847/2/2 846/2/2 755/2/2
f 760/385/2 853/385/2 852/385/2 761/385/2
f 889/172/2 890/386/2 894/2/2 885/2/2
f 891/386/2 895/385/2 899/385/2 892/386/2
f 896/387/2 900/173/2 904/2/2 897/2/2
f 887/172/2 902/173/2 901/173/2 888/172/2
f 828/2/2 894/2/2 893/386/2 829/386/2
f 898/385/2 850/385/2 849/385/2 899/385/2
f 903/173/2 876/173/2 875/2/2 904/2/2
f 825/172/2 887/172/2 886/2/2 826/2/2
f 907/406/2 908/431/2 910/431/2 905/406/2
f 913/432/2 914/445/2 916/445/2 911/432/2
f 919/430/2 920/310/2 922/310/2 917/430/2
f 914/445/2 923/177/2 925/177/2 915/445/2
f 920/310/2 926/378/2 928/378/2 921/310/2
f 908/431/2 929/367/2 931/367/2 909/431/2
f 934/326/2 930/367/2 929/367/2 932/326/2
f 932/326/2 907/406/2 906/406/2 933/326/2
f 912/432/2 935/176/2 937/176/2 913/432/2
f 936/176/2 924/177/2 923/177/2 937/176/2
f 940/362/2 919/430/2 918/430/2 938/362/2
f 926/378/2 940/362/2 939/362/2 927/378/2
f 943/172/2 944/386/2 946/386/2 941/172/2
f 944/386/2 947/387/2 949/387/2 945/386/2
f 947/387/2 950/173/2 952/173/2 948/387/2
f 942/172/2 951/173/2 950/173/2 943/172/2
f 900/173/2 952/173/2 951/173/2 901/173/2
f 941/172/2 889/172/2 888/172/2 942/172/2
f 838/310/2 922/310/2 921/310/2 839/310/2
f 927/378/2 855/378/2 854/378/2 928/378/2
f 883/362/2 939/362/2 938/362/2 884/362/2
f 917/430/2 837/430/2 836/430/2 918/430/2
f 806/429/2 910/429/2 909/429/2 807/429/2
f 930/367/2 860/367/2 859/367/2 931/367/2
f 804/406/2 906/406/2 905/406/2 805/406/2
f 933/326/2 865/326/2 864/326/2 934/326/2
f 814/428/2 912/428/2 911/428/2 815/428/2
f 915/409/2 817/409/2 816/409/2 916/409/2
f 945/386/2 891/386/2 890/386/2 946/386/2
f 872/176/2 936/176/2 935/176/2 873/176/2
f 948/385/2 896/385/2 895/385/2 949/385/2
f 843/341/2 925/341/2 924/341/2 844/341/2
f 961/4/2 953/2/2 955/2/2 959/4/2
f 953/2/2 956/1/2 958/1/2 954/2/2
f 956/1/2 962/3/2 964/3/2 957/1/2
f 962/3/2 961/4/2 960/4/2 963/3/2
f 973/4/2 965/2/2 967/2/2 971/4/2
f 966/2/2 968/1/2 970/1/2 967/2/2
f 969/1/2 974/3/2 976/3/2 970/1/2
f 975/3/2 972/4/2 971/4/2 976/3/2
f 957/1/2 969/1/2 968/1/2 958/1/2
f 965/2/2 955/2/2 954/2/2 966/2/2
f 963/3/2 975/3/2 974/3/2 964/3/2
f 972/4/2 960/4/2 959/4/2 973/4/2
f 985/4/2 977/2/2 979/2/2 983/4/2
f 977/2/2 980/1/2 982/1/2 978/2/2
f 980/1/2 986/3/2 988/3/2 981/1/2
f 986/3/2 985/4/2 984/4/2 987/3/2
f 997/4/2 989/2/2 991/2/2 995/4/2
f 990/2/2 992/1/2 994/1/2 991/2/2
f 993/1/2 998/3/2 1000/3/2 994/1/2
f 999/3/2 996/4/2 995/4/2 1000/3/2
f 981/1/2 993/1/2 992/1/2 982/1/2
f 989/2/2 979/2/2 978/2/2 990/2/2
f 987/3/2 999/3/2 998/3/2 988/3/2
f 996/4/2 984/4/2 983/4/2 997/4/2
f 645/13/2 354/310/2 353/310/2 646/13/2
f 696/173/2 462/172/2 461/172/2 697/173/2
f 699/2/2 472/2/2 471/2/2 700/2/2
f 630/2/2 527/2/2 526/2/2 631/2/2
f 729/2/2 640/2/2 639/2/2 730/2/2
f 780/326/2 613/406/2 612/406/2 781/326/2
f 717/428/2 628/409/2 627/409/2 718/428/2
f 774/2/2 682/2/2 681/2/2 775/2/2
f 618/351/2 557/350/2 556/350/2 619/351/2
f 672/378/2 583/362/2 582/362/2 673/378/2
f 621/428/2 346/409/2 345/409/2 622/428/2
f 678/2/2 567/2/2 566/2/2 679/2/2
f 642/386/2 539/385/2 538/385/2 643/386/2
f 687/2/2 454/2/2 453/2/2 688/2/2
f 684/326/2 442/406/2 441/406/2 685/326/2
f 666/2/2 575/2/2 574/2/2 667/2/2
f 660/177/2 572/176/2 571/176/2 661/177/2
f 633/2/2 362/2/2 361/2/2 634/2/2
f 654/2/2 548/2/2 547/2/2 655/2/2
f 609/2/2 338/2/2 337/2/2 610/2/2
f 808/351/2 772/350/2 771/350/2 809/351/2
f 880/2/2 745/2/2 744/2/2 881/2/2
f 840/2/2 766/2/2 765/2/2 841/2/2
f 877/173/2 733/172/2 732/172/2 878/173/2
f 783/2/2 625/2/2 624/2/2 784/2/2
f 741/13/2 652/310/2 651/310/2 742/13/2
f 756/177/2 691/176/2 690/176/2 757/177/2
f 726/2/2 658/2/2 657/2/2 727/2/2
f 762/2/2 694/2/2 693/2/2 763/2/2
f 738/386/2 664/385/2 663/385/2 739/386/2
f 792/173/2 637/172/2 636/172/2 793/173/2
f 750/2/2 670/2/2 669/2/2 751/2/2
f 795/2/2 649/2/2 648/2/2 796/2/2
f 714/351/2 676/350/2 675/350/2 715/351/2
f 705/2/2 616/2/2 615/2/2 706/2/2
f 768/378/2 703/362/2 702/362/2 769/378/2
f 892/386/2 849/385/2 848/385/2 893/386/2
f 801/2/2 712/2/2 711/2/2 802/2/2
f 856/378/2 799/362/2 798/362/2 857/378/2
f 861/2/2 778/2/2 777/2/2 862/2/2
f 811/428/2 724/409/2 723/409/2 812/428/2
f 866/326/2 709/406/2 708/406/2 867/326/2
f 821/2/2 736/2/2 735/2/2 822/2/2
f 869/2/2 721/2/2 720/2/2 870/2/2
f 833/13/2 748/310/2 747/310/2 834/13/2
f 845/177/2 787/176/2 786/176/2 846/177/2
f 818/2/2 754/2/2 753/2/2 819/2/2
f 851/2/2 790/2/2 789/2/2 852/2/2
f 830/386/2 760/385/2 759/385/2 831/386/2
f 897/2/2 875/2/2 874/2/2 898/2/2
f 885/2/2 828/2/2 827/2/2 886/2/2
f 902/173/2 825/172/2 824/172/2 903/173/2
f 291/2/3 309/4/3 295/4/3
