# Blender 4.1.1
# www.blender.org
mtllib tisch.mtl
o Cube
v -1.300000 1.600000 1.300000
v -1.300000 1.792450 1.300000
v -1.300000 1.600000 -1.300000
v -1.300000 1.792450 -1.300000
v 1.300000 1.600000 1.300000
v 1.300000 1.792450 1.300000
v 1.300000 1.600000 -1.300000
v 1.300000 1.792450 -1.300000
v -1.300000 1.600000 0.000000
v 0.000000 1.600000 -1.300000
v 1.300000 1.600000 0.000000
v 0.000000 1.600000 1.300000
v 0.000000 1.600000 0.000000
v -1.300000 1.600000 0.650000
v -0.650000 1.600000 -1.300000
v 1.300000 1.600000 -0.650000
v 0.650000 1.600000 1.300000
v -1.300000 1.600000 -0.650000
v 0.650000 1.600000 -1.300000
v 1.300000 1.600000 0.650000
v -0.650000 1.600000 1.300000
v 0.000000 1.600000 0.650000
v 0.000000 1.600000 -0.650000
v -0.650000 1.600000 0.000000
v 0.650000 1.600000 0.000000
v 0.650000 1.600000 -0.650000
v -0.650000 1.600000 -0.650000
v -0.650000 1.600000 0.650000
v 0.650000 1.600000 0.650000
v -1.300000 1.600000 0.975000
v -0.975000 1.600000 -1.300000
v 1.300000 1.600000 -0.975000
v 0.975000 1.600000 1.300000
v -1.300000 1.600000 -0.325000
v 0.325000 1.600000 -1.300000
v 1.300000 1.600000 0.325000
v -0.325000 1.600000 1.300000
v 0.000000 1.600000 0.975000
v 0.000000 1.600000 -0.325000
v -0.975000 1.600000 0.000000
v 0.325000 1.600000 0.000000
v -1.300000 1.600000 0.325000
v -0.325000 1.600000 -1.300000
v 1.300000 1.600000 -0.325000
v 0.325000 1.600000 1.300000
v -1.300000 1.600000 -0.975000
v 0.975000 1.600000 -1.300000
v 1.300000 1.600000 0.975000
v -0.975000 1.600000 1.300000
v 0.000000 1.600000 0.325000
v 0.000000 1.600000 -0.975000
v -0.325000 1.600000 0.000000
v 0.975000 1.600000 0.000000
v 0.650000 1.600000 -0.325000
v 0.650000 1.600000 -0.975000
v 0.325000 1.600000 -0.650000
v 0.975000 1.600000 -0.650000
v -0.650000 1.600000 -0.325000
v -0.650000 1.600000 -0.975000
v -0.975000 1.600000 -0.650000
v -0.325000 1.600000 -0.650000
v -0.650000 1.600000 0.975000
v -0.650000 1.600000 0.325000
v -0.975000 1.600000 0.650000
v -0.325000 1.600000 0.650000
v 0.650000 1.600000 0.975000
v 0.650000 1.600000 0.325000
v 0.325000 1.600000 0.650000
v 0.975000 1.600000 0.650000
v 0.975000 1.600000 0.325000
v 0.325000 1.600000 0.325000
v 0.325000 1.600000 0.975000
v -0.325000 1.600000 0.325000
v -0.975000 1.600000 0.325000
v -0.975000 1.600000 0.975000
v -0.325000 1.600000 -0.975000
v -0.975000 1.600000 -0.975000
v -0.975000 1.600000 -0.325000
v 0.975000 1.600000 -0.975000
v 0.325000 1.600000 -0.975000
v 0.325000 1.600000 -0.325000
v 0.975000 1.600000 -0.325000
v -0.325000 1.600000 -0.325000
v -0.325000 1.600000 0.975000
v 0.975000 1.600000 0.975000
v -1.300000 1.600000 1.137500
v -1.137500 1.600000 -1.300000
v 1.300000 1.600000 -1.137500
v 1.137500 1.600000 1.300000
v -1.300000 1.600000 -0.162500
v 0.162500 1.600000 -1.300000
v 1.300000 1.600000 0.162500
v -0.162500 1.600000 1.300000
v 0.000000 1.600000 1.137500
v 0.000000 1.600000 -0.162500
v -1.137500 1.600000 0.000000
v 0.162500 1.600000 0.000000
v -1.300000 1.600000 0.487500
v -0.487500 1.600000 -1.300000
v 1.300000 1.600000 -0.487500
v 0.487500 1.600000 1.300000
v -1.300000 1.600000 -0.812500
v 0.812500 1.600000 -1.300000
v 1.300000 1.600000 0.812500
v -0.812500 1.600000 1.300000
v 0.000000 1.600000 0.487500
v 0.000000 1.600000 -0.812500
v -0.487500 1.600000 0.000000
v 0.812500 1.600000 0.000000
v 0.650000 1.600000 -0.162500
v 0.650000 1.600000 -0.812500
v 0.162500 1.600000 -0.650000
v 0.812500 1.600000 -0.650000
v -0.650000 1.600000 -0.162500
v -0.650000 1.600000 -0.812500
v -1.137500 1.600000 -0.650000
v -0.487500 1.600000 -0.650000
v -0.650000 1.600000 1.137500
v -0.650000 1.600000 0.487500
v -1.137500 1.600000 0.650000
v -0.487500 1.600000 0.650000
v 0.650000 1.600000 1.137500
v 0.650000 1.600000 0.487500
v 0.162500 1.600000 0.650000
v 0.812500 1.600000 0.650000
v -1.300000 1.600000 0.812500
v -0.812500 1.600000 -1.300000
v 1.300000 1.600000 -0.812500
v 0.812500 1.600000 1.300000
v -1.300000 1.600000 -0.487500
v 0.487500 1.600000 -1.300000
v 1.300000 1.600000 0.487500
v -0.487500 1.600000 1.300000
v 0.000000 1.600000 0.812500
v 0.000000 1.600000 -0.487500
v -0.812500 1.600000 0.000000
v 0.487500 1.600000 0.000000
v -1.300000 1.600000 0.162500
v -0.162500 1.600000 -1.300000
v 1.300000 1.600000 -0.162500
v 0.162500 1.600000 1.300000
v -1.300000 1.600000 -1.137500
v 1.137500 1.600000 -1.300000
v 1.300000 1.600000 1.137500
v -1.137500 1.600000 1.300000
v 0.000000 1.600000 0.162500
v 0.000000 1.600000 -1.137500
v -0.162500 1.600000 0.000000
v 1.137500 1.600000 0.000000
v 0.650000 1.600000 -0.487500
v 0.650000 1.600000 -1.137500
v 0.487500 1.600000 -0.650000
v 1.137500 1.600000 -0.650000
v -0.650000 1.600000 -0.487500
v -0.650000 1.600000 -1.137500
v -0.812500 1.600000 -0.650000
v -0.162500 1.600000 -0.650000
v -0.650000 1.600000 0.812500
v -0.650000 1.600000 0.162500
v -0.812500 1.600000 0.650000
v -0.162500 1.600000 0.650000
v 0.650000 1.600000 0.812500
v 0.650000 1.600000 0.162500
v 0.487500 1.600000 0.650000
v 1.137500 1.600000 0.650000
v 0.975000 1.600000 0.487500
v 0.975000 1.600000 0.162500
v 0.812500 1.600000 0.325000
v 1.137500 1.600000 0.325000
v 0.325000 1.600000 0.487500
v 0.325000 1.600000 0.162500
v 0.162500 1.600000 0.325000
v 0.487500 1.600000 0.325000
v 0.325000 1.600000 1.137500
v 0.325000 1.600000 0.812500
v 0.162500 1.600000 0.975000
v 0.487500 1.600000 0.975000
v -0.325000 1.600000 0.487500
v -0.325000 1.600000 0.162500
v -0.487500 1.600000 0.325000
v -0.162500 1.600000 0.325000
v -0.975000 1.600000 0.487500
v -0.975000 1.600000 0.162500
v -1.137500 1.600000 0.325000
v -0.812500 1.600000 0.325000
v -0.975000 1.600000 1.137500
v -0.975000 1.600000 0.812500
v -1.137500 1.600000 0.975000
v -0.812500 1.600000 0.975000
v -0.325000 1.600000 -0.812500
v -0.325000 1.600000 -1.137500
v -0.487500 1.600000 -0.975000
v -0.162500 1.600000 -0.975000
v -0.975000 1.600000 -0.812500
v -0.975000 1.600000 -1.137500
v -1.137500 1.600000 -0.975000
v -0.812500 1.600000 -0.975000
v -0.975000 1.600000 -0.162500
v -0.975000 1.600000 -0.487500
v -1.137500 1.600000 -0.325000
v -0.812500 1.600000 -0.325000
v 0.975000 1.600000 -0.812500
v 0.975000 1.600000 -1.137500
v 0.812500 1.600000 -0.975000
v 1.137500 1.600000 -0.975000
v 0.325000 1.600000 -0.812500
v 0.325000 1.600000 -1.137500
v 0.162500 1.600000 -0.975000
v 0.487500 1.600000 -0.975000
v 0.325000 1.600000 -0.162500
v 0.325000 1.600000 -0.487500
v 0.162500 1.600000 -0.325000
v 0.487500 1.600000 -0.325000
v 0.975000 1.600000 -0.162500
v 0.975000 1.600000 -0.487500
v 0.812500 1.600000 -0.325000
v 1.137500 1.600000 -0.325000
v -0.325000 1.600000 -0.162500
v -0.325000 1.600000 -0.487500
v -0.487500 1.600000 -0.325000
v -0.162500 1.600000 -0.325000
v -0.325000 1.600000 1.137500
v -0.325000 1.600000 0.812500
v -0.487500 1.600000 0.975000
v -0.162500 1.600000 0.975000
v 0.975000 1.600000 1.137500
v 0.975000 1.600000 0.812500
v 0.812500 1.600000 0.975000
v 1.137500 1.600000 0.975000
v 1.137500 1.600000 0.812500
v 0.812500 1.600000 0.812500
v 0.812500 1.600000 1.137500
v -0.162500 1.600000 0.812500
v -0.487500 1.600000 0.812500
v -0.487500 1.600000 1.137500
v -0.162500 1.600000 -0.487500
v -0.487500 1.600000 -0.487500
v -0.487500 1.600000 -0.162500
v 1.137500 1.600000 -0.487500
v 0.812500 1.600000 -0.487500
v 0.812500 1.600000 -0.162500
v 0.487500 1.600000 -0.487500
v 0.162500 1.600000 -0.487500
v 0.162500 1.600000 -0.162500
v 0.487500 1.600000 -1.137500
v 0.162500 1.600000 -1.137500
v 0.162500 1.600000 -0.812500
v 1.137500 1.600000 -1.137500
v 0.812500 1.600000 -1.137500
v 0.812500 1.600000 -0.812500
v -0.812500 1.600000 -0.487500
v -1.137500 1.600000 -0.487500
v -1.137500 1.600000 -0.162500
v -0.812500 1.600000 -1.137500
v -1.137500 1.600000 -1.137500
v -1.137500 1.600000 -0.812500
v -0.162500 1.600000 -1.137500
v -0.487500 1.600000 -1.137500
v -0.487500 1.600000 -0.812500
v -0.812500 1.600000 0.812500
v -1.137500 1.600000 0.812500
v -1.137500 1.600000 1.137500
v -0.812500 1.600000 0.162500
v -1.137500 1.600000 0.162500
v -1.137500 1.600000 0.487500
v -0.162500 1.600000 0.162500
v -0.487500 1.600000 0.162500
v -0.487500 1.600000 0.487500
v 0.487500 1.600000 0.812500
v 0.162500 1.600000 0.812500
v 0.162500 1.600000 1.137500
v 0.487500 1.600000 0.162500
v 0.162500 1.600000 0.162500
v 0.162500 1.600000 0.487500
v 1.137500 1.600000 0.162500
v 0.812500 1.600000 0.162500
v 0.812500 1.600000 0.487500
v 1.137500 1.600000 0.487500
v 0.487500 1.600000 0.487500
v 0.487500 1.600000 1.137500
v -0.162500 1.600000 0.487500
v -0.812500 1.600000 0.487500
v -0.812500 1.600000 1.137500
v -0.162500 1.600000 -0.812500
v -0.812500 1.600000 -0.812500
v -0.812500 1.600000 -0.162500
v 1.137500 1.600000 -0.812500
v 0.487500 1.600000 -0.812500
v 0.487500 1.600000 -0.162500
v 1.137500 1.600000 -0.162500
v -0.162500 1.600000 -0.162500
v -0.162500 1.600000 1.137500
v 1.137500 1.600000 1.137500
v -0.975000 0.000000 -1.137500
v -0.975000 0.000000 -0.975000
v -1.137500 0.000000 -0.975000
v -1.137500 0.000000 -1.137500
v 0.975000 0.000000 -1.137500
v 0.975000 0.000000 -0.975000
v 1.137500 0.000000 -0.975000
v 1.137500 0.000000 0.975000
v 0.975000 0.000000 0.975000
v -0.975000 0.000000 0.975000
v -0.975000 0.000000 1.137500
v -1.137500 0.000000 0.975000
v 0.975000 0.000000 1.137500
v 1.137500 0.000000 -1.137500
v -1.137500 0.000000 1.137500
v 1.137500 0.000000 1.137500
v -0.975000 1.550000 0.487500
v -0.975000 1.550000 0.650000
v -0.975000 1.550000 0.162500
v -0.975000 1.550000 0.325000
v -0.975000 1.550000 0.812500
v -0.975000 1.550000 0.975000
v -0.975000 1.550000 -0.812500
v -0.975000 1.550000 -0.650000
v -0.975000 1.550000 -0.162500
v -0.975000 1.550000 0.000000
v -0.975000 1.550000 -0.487500
v -0.975000 1.550000 -0.325000
v -1.137500 1.550000 0.000000
v -1.137500 1.550000 -0.650000
v -1.137500 1.550000 0.650000
v -1.137500 1.550000 0.325000
v -1.137500 1.550000 0.975000
v -0.975000 1.550000 -0.975000
v -1.137500 1.550000 -0.975000
v -1.137500 1.550000 -0.325000
v -1.137500 1.550000 -0.487500
v -1.137500 1.550000 -0.162500
v -1.137500 1.550000 -0.812500
v -1.137500 1.550000 0.812500
v -1.137500 1.550000 0.162500
v -1.137500 1.550000 0.487500
v 1.137500 1.550000 0.000000
v 0.975000 1.550000 0.000000
v 1.137500 1.550000 -0.650000
v 0.975000 1.550000 -0.650000
v 1.137500 1.550000 0.650000
v 0.975000 1.550000 0.650000
v 0.975000 1.550000 0.487500
v 0.975000 1.550000 0.162500
v 0.975000 1.550000 0.325000
v 1.137500 1.550000 0.325000
v 0.975000 1.550000 -0.812500
v 1.137500 1.550000 -0.975000
v 0.975000 1.550000 -0.975000
v 0.975000 1.550000 -0.162500
v 0.975000 1.550000 -0.487500
v 0.975000 1.550000 -0.325000
v 1.137500 1.550000 -0.325000
v 0.975000 1.550000 0.812500
v 0.975000 1.550000 0.975000
v 1.137500 1.550000 0.975000
v 1.137500 1.550000 0.812500
v 1.137500 1.550000 -0.487500
v 1.137500 1.550000 0.162500
v 1.137500 1.550000 0.487500
v 1.137500 1.550000 -0.812500
v 1.137500 1.550000 -0.162500
v 0.000000 1.550000 -1.137500
v 0.000000 1.550000 -0.975000
v 0.650000 1.550000 -1.137500
v 0.650000 1.550000 -0.975000
v -0.650000 1.550000 -1.137500
v -0.650000 1.550000 -0.975000
v -0.325000 1.550000 -1.137500
v -0.325000 1.550000 -0.975000
v -0.487500 1.550000 -0.975000
v -0.162500 1.550000 -0.975000
v -0.975000 1.550000 -1.137500
v -0.975000 1.550000 -0.975000
v -0.812500 1.550000 -0.975000
v 0.975000 1.550000 -1.137500
v 0.975000 1.550000 -0.975000
v 0.812500 1.550000 -0.975000
v 0.325000 1.550000 -1.137500
v 0.325000 1.550000 -0.975000
v 0.162500 1.550000 -0.975000
v 0.487500 1.550000 -0.975000
v 0.487500 1.550000 -1.137500
v 0.162500 1.550000 -1.137500
v 0.812500 1.550000 -1.137500
v -0.812500 1.550000 -1.137500
v -0.162500 1.550000 -1.137500
v -0.487500 1.550000 -1.137500
v 0.162500 1.550000 0.975000
v 0.000000 1.550000 0.975000
v 0.487500 1.550000 0.975000
v 0.325000 1.550000 0.975000
v -0.812500 1.550000 0.975000
v -0.975000 1.550000 0.975000
v -0.487500 1.550000 0.975000
v -0.650000 1.550000 0.975000
v -0.162500 1.550000 0.975000
v -0.325000 1.550000 0.975000
v 0.812500 1.550000 0.975000
v 0.650000 1.550000 0.975000
v 0.000000 1.550000 1.137500
v -0.650000 1.550000 1.137500
v 0.650000 1.550000 1.137500
v 0.325000 1.550000 1.137500
v -0.975000 1.550000 1.137500
v -0.325000 1.550000 1.137500
v 0.975000 1.550000 0.975000
v 0.975000 1.550000 1.137500
v 0.812500 1.550000 1.137500
v -0.487500 1.550000 1.137500
v 0.162500 1.550000 1.137500
v 0.487500 1.550000 1.137500
v -0.812500 1.550000 1.137500
v -0.162500 1.550000 1.137500
vn -1.0000 -0.0000 -0.0000
vn -0.0000 -0.0000 -1.0000
vn 1.0000 -0.0000 -0.0000
vn -0.0000 -0.0000 1.0000
vn -0.0000 -1.0000 -0.0000
vn -0.0000 1.0000 -0.0000
vt 0.375000 0.125000
vt 0.375000 0.109375
vt 0.625000 0.000000
vt 0.375000 0.375000
vt 0.375000 0.359375
vt 0.625000 0.250000
vt 0.375000 0.625000
vt 0.375000 0.609375
vt 0.625000 0.500000
vt 0.375000 0.875000
vt 0.375000 0.859375
vt 0.625000 0.750000
vt 0.375000 0.734375
vt 0.359375 0.750000
vt 0.359375 0.734375
vt 0.875000 0.500000
vt 0.250000 0.734375
vt 0.234375 0.750000
vt 0.234375 0.734375
vt 0.250000 0.609375
vt 0.234375 0.625000
vt 0.234375 0.609375
vt 0.359375 0.625000
vt 0.359375 0.609375
vt 0.312500 0.609375
vt 0.296875 0.625000
vt 0.296875 0.609375
vt 0.312500 0.546875
vt 0.296875 0.562500
vt 0.296875 0.546875
vt 0.375000 0.546875
vt 0.359375 0.562500
vt 0.359375 0.546875
vt 0.187500 0.609375
vt 0.171875 0.625000
vt 0.171875 0.609375
vt 0.187500 0.546875
vt 0.171875 0.562500
vt 0.171875 0.546875
vt 0.250000 0.546875
vt 0.234375 0.562500
vt 0.234375 0.546875
vt 0.187500 0.734375
vt 0.171875 0.750000
vt 0.171875 0.734375
vt 0.187500 0.671875
vt 0.171875 0.687500
vt 0.171875 0.671875
vt 0.250000 0.671875
vt 0.234375 0.687500
vt 0.234375 0.671875
vt 0.312500 0.734375
vt 0.296875 0.750000
vt 0.296875 0.734375
vt 0.312500 0.671875
vt 0.296875 0.687500
vt 0.296875 0.671875
vt 0.375000 0.671875
vt 0.359375 0.687500
vt 0.359375 0.671875
vt 0.343750 0.671875
vt 0.328125 0.687500
vt 0.328125 0.671875
vt 0.343750 0.640625
vt 0.328125 0.656250
vt 0.328125 0.640625
vt 0.375000 0.640625
vt 0.359375 0.656250
vt 0.359375 0.640625
vt 0.281250 0.671875
vt 0.265625 0.687500
vt 0.265625 0.671875
vt 0.281250 0.640625
vt 0.265625 0.656250
vt 0.265625 0.640625
vt 0.312500 0.640625
vt 0.296875 0.656250
vt 0.296875 0.640625
vt 0.281250 0.734375
vt 0.265625 0.750000
vt 0.265625 0.734375
vt 0.281250 0.703125
vt 0.265625 0.718750
vt 0.265625 0.703125
vt 0.312500 0.703125
vt 0.296875 0.718750
vt 0.296875 0.703125
vt 0.218750 0.671875
vt 0.203125 0.687500
vt 0.203125 0.671875
vt 0.218750 0.640625
vt 0.203125 0.656250
vt 0.203125 0.640625
vt 0.250000 0.640625
vt 0.234375 0.656250
vt 0.234375 0.640625
vt 0.140625 0.671875
vt 0.140625 0.687500
vt 0.140625 0.578125
vt 0.140625 0.593750
vt 0.187500 0.640625
vt 0.171875 0.656250
vt 0.171875 0.640625
vt 0.156250 0.734375
vt 0.140625 0.750000
vt 0.140625 0.734375
vt 0.140625 0.703125
vt 0.187500 0.703125
vt 0.171875 0.718750
vt 0.171875 0.703125
vt 0.218750 0.546875
vt 0.203125 0.562500
vt 0.203125 0.546875
vt 0.296875 0.531250
vt 0.312500 0.531250
vt 0.156250 0.531250
vt 0.171875 0.531250
vt 0.156250 0.578125
vt 0.156250 0.562500
vt 0.156250 0.515625
vt 0.140625 0.515625
vt 0.281250 0.515625
vt 0.265625 0.515625
vt 0.140625 0.718750
vt 0.156250 0.718750
vt 0.156250 0.703125
vt 0.187500 0.578125
vt 0.171875 0.593750
vt 0.171875 0.578125
vt 0.343750 0.546875
vt 0.328125 0.562500
vt 0.328125 0.546875
vt 0.328125 0.531250
vt 0.375000 0.515625
vt 0.359375 0.531250
vt 0.359375 0.515625
vt 0.281250 0.546875
vt 0.265625 0.562500
vt 0.265625 0.546875
vt 0.265625 0.531250
vt 0.281250 0.531250
vt 0.234375 0.531250
vt 0.250000 0.531250
vt 0.281250 0.609375
vt 0.265625 0.625000
vt 0.265625 0.609375
vt 0.281250 0.578125
vt 0.265625 0.593750
vt 0.265625 0.578125
vt 0.312500 0.578125
vt 0.296875 0.593750
vt 0.296875 0.578125
vt 0.343750 0.609375
vt 0.328125 0.625000
vt 0.328125 0.609375
vt 0.343750 0.578125
vt 0.328125 0.593750
vt 0.328125 0.578125
vt 0.375000 0.578125
vt 0.359375 0.593750
vt 0.359375 0.578125
vt 0.218750 0.609375
vt 0.203125 0.625000
vt 0.203125 0.609375
vt 0.218750 0.578125
vt 0.203125 0.593750
vt 0.203125 0.578125
vt 0.250000 0.578125
vt 0.234375 0.593750
vt 0.234375 0.578125
vt 0.218750 0.734375
vt 0.203125 0.750000
vt 0.203125 0.734375
vt 0.218750 0.703125
vt 0.203125 0.718750
vt 0.203125 0.703125
vt 0.250000 0.703125
vt 0.234375 0.718750
vt 0.234375 0.703125
vt 0.343750 0.734375
vt 0.328125 0.750000
vt 0.328125 0.734375
vt 0.343750 0.703125
vt 0.328125 0.718750
vt 0.328125 0.703125
vt 0.375000 0.703125
vt 0.359375 0.718750
vt 0.359375 0.703125
vt 0.343750 0.687500
vt 0.375000 0.687500
vt 0.312500 0.718750
vt 0.312500 0.687500
vt 0.312500 0.750000
vt 0.343750 0.718750
vt 0.187500 0.718750
vt 0.218750 0.718750
vt 0.218750 0.687500
vt 0.250000 0.687500
vt 0.187500 0.687500
vt 0.187500 0.750000
vt 0.218750 0.593750
vt 0.218750 0.562500
vt 0.250000 0.562500
vt 0.187500 0.593750
vt 0.187500 0.562500
vt 0.187500 0.625000
vt 0.343750 0.593750
vt 0.375000 0.562500
vt 0.312500 0.593750
vt 0.312500 0.562500
vt 0.343750 0.562500
vt 0.312500 0.625000
vt 0.281250 0.593750
vt 0.281250 0.562500
vt 0.250000 0.593750
vt 0.250000 0.625000
vt 0.250000 0.515625
vt 0.234375 0.515625
vt 0.296875 0.500000
vt 0.281250 0.500000
vt 0.312500 0.500000
vt 0.296875 0.515625
vt 0.265625 0.500000
vt 0.250000 0.500000
vt 0.359375 0.500000
vt 0.343750 0.515625
vt 0.343750 0.500000
vt 0.375000 0.500000
vt 0.343750 0.531250
vt 0.328125 0.500000
vt 0.312500 0.515625
vt 0.328125 0.515625
vt 0.156250 0.593750
vt 0.125000 0.593750
vt 0.125000 0.578125
vt 0.140625 0.562500
vt 0.125000 0.562500
vt 0.156250 0.609375
vt 0.140625 0.609375
vt 0.125000 0.625000
vt 0.125000 0.609375
vt 0.156250 0.546875
vt 0.203125 0.531250
vt 0.218750 0.531250
vt 0.171875 0.500000
vt 0.156250 0.500000
vt 0.187500 0.500000
vt 0.171875 0.515625
vt 0.125000 0.531250
vt 0.125000 0.515625
vt 0.140625 0.500000
vt 0.125000 0.500000
vt 0.140625 0.546875
vt 0.125000 0.546875
vt 0.140625 0.531250
vt 0.156250 0.640625
vt 0.156250 0.625000
vt 0.218750 0.515625
vt 0.234375 0.500000
vt 0.218750 0.500000
vt 0.203125 0.500000
vt 0.187500 0.515625
vt 0.203125 0.515625
vt 0.187500 0.531250
vt 0.156250 0.687500
vt 0.125000 0.718750
vt 0.125000 0.703125
vt 0.125000 0.687500
vt 0.125000 0.750000
vt 0.125000 0.734375
vt 0.156250 0.656250
vt 0.140625 0.640625
vt 0.125000 0.656250
vt 0.125000 0.640625
vt 0.140625 0.625000
vt 0.156250 0.671875
vt 0.125000 0.671875
vt 0.140625 0.656250
vt 0.218750 0.656250
vt 0.218750 0.625000
vt 0.187500 0.656250
vt 0.281250 0.718750
vt 0.281250 0.687500
vt 0.250000 0.718750
vt 0.250000 0.750000
vt 0.281250 0.656250
vt 0.281250 0.625000
vt 0.250000 0.656250
vt 0.312500 0.656250
vt 0.343750 0.625000
vt 0.343750 0.656250
vt 0.375000 0.656250
vt 0.281250 0.750000
vt 0.156250 0.750000
vt 0.375000 0.531250
vt 0.375000 0.593750
vt 0.218750 0.750000
vt 0.343750 0.750000
vt 0.375000 0.718750
vt 0.375000 0.015625
vt 0.375000 0.000000
vt 0.375000 0.250000
vt 0.375000 0.234375
vt 0.375000 0.218750
vt 0.375000 0.031250
vt 0.375000 0.046875
vt 0.375000 0.203125
vt 0.375000 0.187500
vt 0.375000 0.062500
vt 0.375000 0.078125
vt 0.375000 0.171875
vt 0.375000 0.156250
vt 0.375000 0.093750
vt 0.375000 0.140625
vt 0.375000 0.265625
vt 0.375000 0.484375
vt 0.375000 0.468750
vt 0.375000 0.281250
vt 0.375000 0.296875
vt 0.375000 0.453125
vt 0.375000 0.437500
vt 0.375000 0.312500
vt 0.375000 0.328125
vt 0.375000 0.421875
vt 0.375000 0.406250
vt 0.375000 0.343750
vt 0.375000 0.390625
vt 0.375000 0.750000
vt 0.375000 0.765625
vt 0.625000 1.000000
vt 0.375000 1.000000
vt 0.375000 0.984375
vt 0.375000 0.968750
vt 0.375000 0.781250
vt 0.375000 0.796875
vt 0.375000 0.953125
vt 0.375000 0.937500
vt 0.375000 0.812500
vt 0.375000 0.828125
vt 0.375000 0.921875
vt 0.375000 0.906250
vt 0.375000 0.843750
vt 0.375000 0.890625
vt 0.875000 0.750000
s 0
f 9/1/1 138/2/1 2/3/1
f 10/4/2 139/5/2 4/6/2
f 11/7/3 140/8/3 8/9/3
f 12/10/4 141/11/4 6/12/4
f 144/13/5 89/14/5 293/15/5
f 4/16/6 6/12/6 8/9/6
f 94/17/5 93/18/5 292/19/5
f 95/20/5 148/21/5 291/22/5
f 140/8/5 149/23/5 290/24/5
f 110/25/5 137/26/5 289/27/5
f 111/28/5 152/29/5 288/30/5
f 128/31/5 153/32/5 287/33/5
f 114/34/5 136/35/5 286/36/5
f 115/37/5 156/38/5 285/39/5
f 107/40/5 157/41/5 284/42/5
f 118/43/5 105/44/5 283/45/5
f 119/46/5 160/47/5 282/48/5
f 106/49/5 161/50/5 281/51/5
f 122/52/5 101/53/5 280/54/5
f 123/55/5 164/56/5 279/57/5
f 132/58/5 165/59/5 278/60/5
f 166/61/5 125/62/5 277/63/5
f 167/64/5 168/65/5 276/66/5
f 92/67/5 169/68/5 275/69/5
f 170/70/5 124/71/5 274/72/5
f 171/73/5 172/74/5 273/75/5
f 163/76/5 173/77/5 272/78/5
f 174/79/5 141/80/5 271/81/5
f 175/82/5 176/83/5 270/84/5
f 162/85/5 177/86/5 269/87/5
f 178/88/5 121/89/5 268/90/5
f 179/91/5 180/92/5 267/93/5
f 146/94/5 181/95/5 266/96/5
f 265/97/1 324/98/1 120/98/1
f 252/99/1 329/100/1 200/100/1
f 159/101/5 185/102/5 263/103/5
f 186/104/5 145/105/5 262/106/5
f 120/98/1 333/107/1 261/107/1
f 158/108/5 189/109/5 260/110/5
f 190/111/5 117/112/5 259/113/5
f 209/114/4 365/115/4 55/115/4
f 77/116/4 374/117/4 197/117/4
f 199/118/3 317/119/3 60/119/3
f 195/120/2 297/121/2 255/121/2
f 207/122/2 383/123/2 246/123/2
f 261/107/1 326/124/1 188/124/1
f 75/125/3 314/126/3 187/126/3
f 154/127/5 201/128/5 251/129/5
f 202/130/5 113/131/5 250/132/5
f 55/115/4 377/133/4 204/133/4
f 88/134/5 205/135/5 248/136/5
f 206/137/5 112/138/5 247/139/5
f 208/140/4 379/141/4 80/141/4
f 193/142/4 363/143/4 51/143/4
f 210/144/5 97/145/5 244/146/5
f 211/147/5 212/148/5 243/149/5
f 150/150/5 213/151/5 242/152/5
f 214/153/5 109/154/5 241/155/5
f 215/156/5 216/157/5 240/158/5
f 100/159/5 217/160/5 239/161/5
f 218/162/5 108/163/5 238/164/5
f 219/165/5 220/166/5 237/167/5
f 135/168/5 221/169/5 236/170/5
f 222/171/5 133/172/5 235/173/5
f 223/174/5 224/175/5 234/176/5
f 134/177/5 225/178/5 233/179/5
f 226/180/5 129/181/5 232/182/5
f 227/183/5 228/184/5 231/185/5
f 104/186/5 229/187/5 230/188/5
f 287/33/3 347/135/3 205/135/3
f 166/61/1 341/189/1 69/189/1
f 20/190/5 230/188/5 165/59/5
f 231/185/5 66/191/5 162/85/5
f 125/62/5 162/85/5 29/192/5
f 69/189/5 231/185/5 125/62/5
f 232/182/5 17/193/5 122/52/5
f 226/180/3 406/194/3 85/194/3
f 62/195/2 392/109/2 189/109/2
f 233/179/5 84/196/5 223/174/5
f 161/50/5 223/174/5 65/197/5
f 22/198/5 233/179/5 161/50/5
f 234/176/5 62/195/5 158/108/5
f 121/89/5 158/108/5 28/199/5
f 65/197/5 234/176/5 121/89/5
f 235/173/5 21/200/5 118/43/5
f 94/17/4 410/81/4 271/81/4
f 280/54/4 402/52/4 122/52/4
f 236/170/5 83/201/5 219/165/5
f 157/41/5 219/165/5 61/202/5
f 23/203/5 236/170/5 157/41/5
f 237/167/5 58/204/5 154/127/5
f 117/112/5 154/127/5 27/205/5
f 61/202/5 237/167/5 117/112/5
f 238/164/5 24/206/5 114/34/5
f 220/166/5 114/34/5 58/204/5
f 83/201/5 238/164/5 220/166/5
f 217/160/3 357/161/3 239/161/3
f 82/207/1 349/153/1 214/153/1
f 16/208/5 239/161/5 153/32/5
f 240/158/5 54/209/5 150/150/5
f 113/131/5 150/150/5 26/210/5
f 57/211/5 240/158/5 113/131/5
f 241/155/5 25/212/5 110/25/5
f 216/157/5 110/25/5 54/209/5
f 82/207/5 241/155/5 216/157/5
f 242/152/5 81/213/5 211/147/5
f 152/29/5 211/147/5 56/214/5
f 26/210/5 242/152/5 152/29/5
f 243/149/5 39/215/5 135/168/5
f 112/138/5 135/168/5 23/203/5
f 56/214/5 243/149/5 112/138/5
f 244/146/5 13/216/5 95/20/5
f 212/148/5 95/20/5 39/215/5
f 81/213/5 244/146/5 212/148/5
f 147/217/2 386/218/2 257/218/2
f 131/219/5 207/122/5 35/220/5
f 19/221/5 245/222/5 131/219/5
f 246/123/2 362/217/2 147/217/2
f 91/223/5 147/217/5 10/224/5
f 35/220/5 246/123/5 91/223/5
f 247/139/5 23/203/5 107/40/5
f 208/140/5 107/40/5 51/143/5
f 80/141/5 247/139/5 208/140/5
f 226/180/4 309/15/4 293/15/4
f 143/225/5 203/226/5 47/227/5
f 7/228/5 248/136/5 143/225/5
f 79/229/3 375/226/3 203/226/3
f 103/230/5 151/231/5 19/221/5
f 47/227/5 249/232/5 103/230/5
f 250/132/5 26/210/5 111/28/5
f 204/133/5 111/28/5 55/115/5
f 79/229/5 250/132/5 204/133/5
f 251/129/5 78/233/5 199/118/5
f 156/38/5 199/118/5 60/119/5
f 27/205/5 251/129/5 156/38/5
f 252/99/5 34/234/5 130/235/5
f 116/236/5 130/235/5 18/237/5
f 198/238/3 321/233/3 78/233/3
f 253/239/5 9/240/5 90/241/5
f 200/100/5 90/241/5 34/234/5
f 60/119/3 316/242/3 194/242/3
f 192/243/4 369/244/4 76/244/4
f 127/245/5 195/120/5 31/246/5
f 15/247/5 254/248/5 127/245/5
f 255/121/5 46/249/5 142/250/5
f 87/251/5 142/250/5 3/252/5
f 31/246/5 255/121/5 87/251/5
f 256/253/5 18/237/5 102/254/5
f 196/255/5 102/254/5 46/249/5
f 183/256/3 319/257/3 40/257/3
f 257/218/2 368/258/2 191/258/2
f 139/259/5 191/258/5 43/260/5
f 10/224/5 257/218/5 139/259/5
f 195/120/1 373/116/1 77/116/1
f 99/261/5 155/262/5 15/247/5
f 43/260/5 258/263/5 99/261/5
f 259/113/5 27/205/5 115/37/5
f 192/243/5 115/37/5 59/264/5
f 76/244/5 259/113/5 192/243/5
f 260/110/5 75/125/5 187/126/5
f 160/47/5 187/126/5 64/265/5
f 28/199/5 260/110/5 160/47/5
f 261/107/5 30/266/5 126/267/5
f 120/98/5 126/267/5 14/268/5
f 200/100/1 331/239/1 253/239/1
f 262/106/5 1/269/5 86/270/5
f 188/124/5 86/270/5 30/266/5
f 75/125/2 305/124/2 188/124/2
f 263/103/5 74/271/5 183/256/5
f 136/35/5 183/256/5 40/257/5
f 24/206/5 263/103/5 136/35/5
f 264/272/5 42/273/5 138/274/5
f 96/275/5 138/274/5 9/240/5
f 182/276/3 313/271/3 74/271/3
f 265/97/5 14/268/5 98/277/5
f 184/278/5 98/277/5 42/273/5
f 96/275/1 334/272/1 264/272/1
f 266/96/5 73/279/5 179/91/5
f 148/21/5 179/91/5 52/280/5
f 13/216/5 266/96/5 148/21/5
f 267/93/5 63/281/5 159/101/5
f 108/163/5 159/101/5 24/206/5
f 52/280/5 267/93/5 108/163/5
f 268/90/5 28/199/5 119/46/5
f 180/92/5 119/46/5 63/281/5
f 73/279/5 268/90/5 180/92/5
f 269/87/5 72/282/5 175/82/5
f 164/56/5 175/82/5 68/283/5
f 29/192/5 269/87/5 164/56/5
f 270/84/5 38/284/5 134/177/5
f 124/71/5 134/177/5 22/198/5
f 68/283/5 270/84/5 124/71/5
f 271/81/5 12/285/5 94/17/5
f 177/86/2 391/282/2 72/282/2
f 122/52/4 408/182/4 232/182/4
f 272/78/5 71/286/5 171/73/5
f 137/26/5 171/73/5 41/287/5
f 25/212/5 272/78/5 137/26/5
f 273/75/5 50/288/5 146/94/5
f 97/145/5 146/94/5 13/216/5
f 41/287/5 273/75/5 97/145/5
f 274/72/5 22/198/5 106/49/5
f 172/74/5 106/49/5 50/288/5
f 71/286/5 274/72/5 172/74/5
f 153/32/3 360/33/3 287/33/3
f 202/130/1 339/211/1 57/211/1
f 11/7/5 275/69/5 149/23/5
f 276/66/5 67/289/5 163/76/5
f 109/154/5 163/76/5 25/212/5
f 53/290/5 276/66/5 109/154/5
f 277/63/5 29/192/5 123/55/5
f 168/65/5 123/55/5 67/289/5
f 70/291/5 277/63/5 168/65/5
f 69/189/1 353/183/1 227/183/1
f 290/24/3 352/160/3 217/160/3
f 36/292/5 278/60/5 169/68/5
f 279/57/5 68/283/5 170/70/5
f 173/77/5 170/70/5 71/286/5
f 67/289/5 279/57/5 173/77/5
f 280/54/5 45/293/5 174/79/5
f 38/284/2 396/178/2 225/178/2
f 174/79/4 411/54/4 280/54/4
f 281/51/5 65/197/5 178/88/5
f 181/95/5 178/88/5 73/279/5
f 50/288/5 281/51/5 181/95/5
f 282/48/5 64/265/5 182/276/5
f 185/102/5 182/276/5 74/271/5
f 63/281/5 282/48/5 185/102/5
f 283/45/5 49/294/5 186/104/5
f 228/184/2 399/191/2 66/191/2
f 176/83/2 389/284/2 38/284/2
f 284/42/5 61/202/5 190/111/5
f 193/142/5 190/111/5 76/244/5
f 51/143/5 284/42/5 193/142/5
f 285/39/5 60/119/5 194/242/5
f 197/117/5 194/242/5 77/116/5
f 59/264/5 285/39/5 197/117/5
f 286/36/5 40/257/5 198/238/5
f 201/128/5 198/238/5 78/233/5
f 58/204/5 286/36/5 201/128/5
f 215/156/1 351/207/1 82/207/1
f 53/290/1 343/64/1 167/64/1
f 32/295/5 287/33/5 205/135/5
f 288/30/5 56/214/5 206/137/5
f 209/114/5 206/137/5 80/141/5
f 55/115/5 288/30/5 209/114/5
f 289/27/5 41/287/5 210/144/5
f 213/151/5 210/144/5 81/213/5
f 54/209/5 289/27/5 213/151/5
f 275/69/3 336/23/3 149/23/3
f 149/23/3 361/24/3 290/24/3
f 44/296/5 290/24/5 217/160/5
f 291/22/5 52/280/5 218/162/5
f 221/169/5 218/162/5 83/201/5
f 39/215/5 291/22/5 221/169/5
f 292/19/5 37/297/5 222/171/5
f 84/196/2 394/175/2 224/175/2
f 235/173/4 405/171/4 222/171/4
f 293/15/5 33/298/5 226/180/5
f 262/106/4 304/104/4 186/104/4
f 48/299/5 293/15/5 229/187/5
f 294/120/5 296/255/5 297/121/5
f 255/121/1 296/255/1 196/255/1
f 196/255/4 295/116/4 77/116/4
f 77/116/3 294/120/3 195/120/3
f 307/136/5 299/229/5 298/226/5
f 303/125/5 308/106/5 305/124/5
f 301/187/5 306/180/5 302/194/5
f 203/226/1 299/229/1 79/229/1
f 248/136/2 298/226/2 203/226/2
f 85/194/1 306/180/1 226/180/1
f 188/124/1 308/106/1 262/106/1
f 186/104/3 303/125/3 75/125/3
f 205/135/3 307/136/3 248/136/3
f 79/229/4 300/135/4 205/135/4
f 229/187/2 302/194/2 85/194/2
f 293/15/3 301/187/3 229/187/3
f 310/276/5 324/98/5 335/97/5
f 312/256/5 325/278/5 334/272/5
f 314/126/5 326/124/5 333/107/5
f 316/242/5 323/236/5 332/253/5
f 318/238/5 322/275/5 331/239/5
f 320/118/5 329/100/5 330/99/5
f 317/119/5 330/99/5 323/236/5
f 321/233/5 331/239/5 329/100/5
f 327/116/5 332/253/5 328/255/5
f 311/265/5 333/107/5 324/98/5
f 319/257/5 334/272/5 322/275/5
f 313/271/5 335/97/5 325/278/5
f 116/236/1 330/99/1 252/99/1
f 184/278/1 335/97/1 265/97/1
f 256/253/1 323/236/1 116/236/1
f 64/265/3 310/276/3 182/276/3
f 194/242/3 327/116/3 77/116/3
f 196/255/1 332/253/1 256/253/1
f 187/126/3 311/265/3 64/265/3
f 74/271/3 312/256/3 183/256/3
f 40/257/3 318/238/3 198/238/3
f 188/124/4 315/125/4 75/125/4
f 78/233/3 320/118/3 199/118/3
f 264/272/1 325/278/1 184/278/1
f 77/116/2 328/255/2 196/255/2
f 253/239/1 322/275/1 96/275/1
f 356/188/5 354/194/5 353/183/5
f 340/59/5 353/183/5 341/189/5
f 357/161/5 351/207/5 350/156/5
f 338/32/5 350/156/5 339/211/5
f 358/69/5 344/291/5 343/64/5
f 336/23/5 343/64/5 337/290/5
f 359/60/5 341/189/5 342/61/5
f 345/68/5 342/61/5 344/291/5
f 360/33/5 339/211/5 346/130/5
f 347/135/5 346/130/5 348/229/5
f 361/24/5 337/290/5 349/153/5
f 352/160/5 349/153/5 351/207/5
f 165/59/3 359/60/3 278/60/3
f 57/211/1 350/156/1 215/156/1
f 239/161/3 338/32/3 153/32/3
f 229/187/3 356/188/3 230/188/3
f 167/64/1 344/291/1 70/291/1
f 278/60/3 345/68/3 169/68/3
f 230/188/3 340/59/3 165/59/3
f 227/183/1 354/194/1 85/194/1
f 205/135/2 348/229/2 79/229/2
f 79/229/1 346/130/1 202/130/1
f 169/68/3 358/69/3 275/69/3
f 70/291/1 342/61/1 166/61/1
f 214/153/1 337/290/1 53/290/1
f 85/194/4 355/187/4 229/187/4
f 368/258/5 370/243/5 387/263/5
f 362/217/5 371/142/5 386/218/5
f 366/262/5 374/117/5 385/248/5
f 375/226/5 377/133/5 384/232/5
f 378/122/5 380/140/5 383/123/5
f 364/231/5 381/114/5 382/222/5
f 382/222/5 379/141/5 378/122/5
f 383/123/5 363/143/5 362/217/5
f 384/232/5 365/115/5 364/231/5
f 385/248/5 373/116/5 372/120/5
f 386/218/5 369/244/5 368/258/5
f 387/263/5 367/264/5 366/262/5
f 254/248/2 372/120/2 195/120/2
f 155/262/2 385/248/2 254/248/2
f 245/222/2 378/122/2 207/122/2
f 258/263/2 366/262/2 155/262/2
f 59/264/4 370/243/4 192/243/4
f 204/133/4 376/229/4 79/229/4
f 151/231/2 382/222/2 245/222/2
f 191/258/2 387/263/2 258/263/2
f 249/232/2 364/231/2 151/231/2
f 76/244/4 371/142/4 193/142/4
f 197/117/4 367/264/4 59/264/4
f 51/143/4 380/140/4 208/140/4
f 203/226/2 384/232/2 249/232/2
f 80/141/4 381/114/4 209/114/4
f 398/184/5 402/52/5 399/191/5
f 406/194/5 408/182/5 398/184/5
f 394/175/5 401/43/5 395/195/5
f 397/196/5 409/173/5 394/175/5
f 388/83/5 400/17/5 389/284/5
f 391/282/5 410/81/5 388/83/5
f 390/86/5 403/79/5 391/282/5
f 399/191/5 411/54/5 390/86/5
f 392/109/5 404/104/5 393/125/5
f 395/195/5 412/45/5 392/109/5
f 396/178/5 405/171/5 397/196/5
f 389/284/5 413/19/5 396/178/5
f 232/182/4 407/180/4 226/180/4
f 271/81/4 403/79/4 174/79/4
f 72/282/2 388/83/2 176/83/2
f 85/194/2 398/184/2 228/184/2
f 224/175/2 395/195/2 62/195/2
f 222/171/4 413/19/4 292/19/4
f 66/191/2 390/86/2 177/86/2
f 225/178/2 397/196/2 84/196/2
f 292/19/4 400/17/4 94/17/4
f 186/104/4 412/45/4 283/45/4
f 118/43/4 409/173/4 235/173/4
f 189/109/2 393/125/2 75/125/2
f 283/45/4 401/43/4 118/43/4
f 75/125/1 404/104/1 186/104/1
f 86/300/1 1/301/1 2/3/1
f 2/3/1 4/6/1 9/1/1
f 4/6/1 3/302/1 142/303/1
f 4/6/1 142/303/1 46/304/1
f 30/305/1 86/300/1 2/3/1
f 126/306/1 30/305/1 2/3/1
f 4/6/1 46/304/1 102/307/1
f 4/6/1 102/307/1 18/308/1
f 14/309/1 126/306/1 2/3/1
f 98/310/1 14/309/1 2/3/1
f 4/6/1 18/308/1 130/311/1
f 4/6/1 130/311/1 34/312/1
f 42/313/1 98/310/1 2/3/1
f 138/2/1 42/313/1 2/3/1
f 4/6/1 34/312/1 90/314/1
f 4/6/1 90/314/1 9/1/1
f 87/315/2 3/302/2 4/6/2
f 4/6/2 8/9/2 10/4/2
f 8/9/2 7/228/2 143/316/2
f 8/9/2 143/316/2 47/317/2
f 31/318/2 87/315/2 4/6/2
f 127/319/2 31/318/2 4/6/2
f 8/9/2 47/317/2 103/320/2
f 8/9/2 103/320/2 19/321/2
f 15/322/2 127/319/2 4/6/2
f 99/323/2 15/322/2 4/6/2
f 8/9/2 19/321/2 131/324/2
f 8/9/2 131/324/2 35/325/2
f 43/326/2 99/323/2 4/6/2
f 139/5/2 43/326/2 4/6/2
f 8/9/2 35/325/2 91/327/2
f 8/9/2 91/327/2 10/4/2
f 88/134/3 7/228/3 8/9/3
f 8/9/3 6/12/3 11/7/3
f 6/12/3 5/328/3 144/13/3
f 6/12/3 144/13/3 48/299/3
f 32/295/3 88/134/3 8/9/3
f 128/31/3 32/295/3 8/9/3
f 6/12/3 48/299/3 104/186/3
f 6/12/3 104/186/3 20/190/3
f 16/208/3 128/31/3 8/9/3
f 100/159/3 16/208/3 8/9/3
f 6/12/3 20/190/3 132/58/3
f 6/12/3 132/58/3 36/292/3
f 44/296/3 100/159/3 8/9/3
f 140/8/3 44/296/3 8/9/3
f 6/12/3 36/292/3 92/67/3
f 6/12/3 92/67/3 11/7/3
f 89/329/4 5/328/4 6/12/4
f 6/12/4 2/330/4 12/10/4
f 2/330/4 1/331/4 145/332/4
f 2/330/4 145/332/4 49/333/4
f 33/334/4 89/329/4 6/12/4
f 129/335/4 33/334/4 6/12/4
f 2/330/4 49/333/4 105/336/4
f 2/330/4 105/336/4 21/337/4
f 17/338/4 129/335/4 6/12/4
f 101/339/4 17/338/4 6/12/4
f 2/330/4 21/337/4 133/340/4
f 2/330/4 133/340/4 37/341/4
f 45/342/4 101/339/4 6/12/4
f 141/11/4 45/342/4 6/12/4
f 2/330/4 37/341/4 93/343/4
f 2/330/4 93/343/4 12/10/4
f 144/13/5 5/328/5 89/14/5
f 4/16/6 2/344/6 6/12/6
f 94/17/5 12/285/5 93/18/5
f 95/20/5 13/216/5 148/21/5
f 140/8/5 11/7/5 149/23/5
f 110/25/5 25/212/5 137/26/5
f 111/28/5 26/210/5 152/29/5
f 128/31/5 16/208/5 153/32/5
f 114/34/5 24/206/5 136/35/5
f 115/37/5 27/205/5 156/38/5
f 107/40/5 23/203/5 157/41/5
f 118/43/5 21/200/5 105/44/5
f 119/46/5 28/199/5 160/47/5
f 106/49/5 22/198/5 161/50/5
f 122/52/5 17/193/5 101/53/5
f 123/55/5 29/192/5 164/56/5
f 132/58/5 20/190/5 165/59/5
f 166/61/5 69/189/5 125/62/5
f 167/64/5 70/291/5 168/65/5
f 92/67/5 36/292/5 169/68/5
f 170/70/5 68/283/5 124/71/5
f 171/73/5 71/286/5 172/74/5
f 163/76/5 67/289/5 173/77/5
f 174/79/5 45/293/5 141/80/5
f 175/82/5 72/282/5 176/83/5
f 162/85/5 66/191/5 177/86/5
f 178/88/5 65/197/5 121/89/5
f 179/91/5 73/279/5 180/92/5
f 146/94/5 50/288/5 181/95/5
f 265/97/1 335/97/1 324/98/1
f 252/99/1 330/99/1 329/100/1
f 159/101/5 63/281/5 185/102/5
f 186/104/5 49/294/5 145/105/5
f 120/98/1 324/98/1 333/107/1
f 158/108/5 62/195/5 189/109/5
f 190/111/5 61/202/5 117/112/5
f 209/114/4 381/114/4 365/115/4
f 77/116/4 373/116/4 374/117/4
f 199/118/3 320/118/3 317/119/3
f 195/120/2 294/120/2 297/121/2
f 207/122/2 378/122/2 383/123/2
f 261/107/1 333/107/1 326/124/1
f 75/125/3 315/125/3 314/126/3
f 154/127/5 58/204/5 201/128/5
f 202/130/5 57/211/5 113/131/5
f 55/115/4 365/115/4 377/133/4
f 88/134/5 32/295/5 205/135/5
f 206/137/5 56/214/5 112/138/5
f 208/140/4 380/140/4 379/141/4
f 193/142/4 371/142/4 363/143/4
f 210/144/5 41/287/5 97/145/5
f 211/147/5 81/213/5 212/148/5
f 150/150/5 54/209/5 213/151/5
f 214/153/5 53/290/5 109/154/5
f 215/156/5 82/207/5 216/157/5
f 100/159/5 44/296/5 217/160/5
f 218/162/5 52/280/5 108/163/5
f 219/165/5 83/201/5 220/166/5
f 135/168/5 39/215/5 221/169/5
f 222/171/5 37/297/5 133/172/5
f 223/174/5 84/196/5 224/175/5
f 134/177/5 38/284/5 225/178/5
f 226/180/5 33/298/5 129/181/5
f 227/183/5 85/194/5 228/184/5
f 104/186/5 48/299/5 229/187/5
f 287/33/3 360/33/3 347/135/3
f 166/61/1 342/61/1 341/189/1
f 20/190/5 104/186/5 230/188/5
f 231/185/5 228/184/5 66/191/5
f 125/62/5 231/185/5 162/85/5
f 69/189/5 227/183/5 231/185/5
f 232/182/5 129/181/5 17/193/5
f 226/180/3 407/180/3 406/194/3
f 62/195/2 395/195/2 392/109/2
f 233/179/5 225/178/5 84/196/5
f 161/50/5 233/179/5 223/174/5
f 22/198/5 134/177/5 233/179/5
f 234/176/5 224/175/5 62/195/5
f 121/89/5 234/176/5 158/108/5
f 65/197/5 223/174/5 234/176/5
f 235/173/5 133/172/5 21/200/5
f 94/17/4 400/17/4 410/81/4
f 280/54/4 411/54/4 402/52/4
f 236/170/5 221/169/5 83/201/5
f 157/41/5 236/170/5 219/165/5
f 23/203/5 135/168/5 236/170/5
f 237/167/5 220/166/5 58/204/5
f 117/112/5 237/167/5 154/127/5
f 61/202/5 219/165/5 237/167/5
f 238/164/5 108/163/5 24/206/5
f 220/166/5 238/164/5 114/34/5
f 83/201/5 218/162/5 238/164/5
f 217/160/3 352/160/3 357/161/3
f 82/207/1 351/207/1 349/153/1
f 16/208/5 100/159/5 239/161/5
f 240/158/5 216/157/5 54/209/5
f 113/131/5 240/158/5 150/150/5
f 57/211/5 215/156/5 240/158/5
f 241/155/5 109/154/5 25/212/5
f 216/157/5 241/155/5 110/25/5
f 82/207/5 214/153/5 241/155/5
f 242/152/5 213/151/5 81/213/5
f 152/29/5 242/152/5 211/147/5
f 26/210/5 150/150/5 242/152/5
f 243/149/5 212/148/5 39/215/5
f 112/138/5 243/149/5 135/168/5
f 56/214/5 211/147/5 243/149/5
f 244/146/5 97/145/5 13/216/5
f 212/148/5 244/146/5 95/20/5
f 81/213/5 210/144/5 244/146/5
f 147/217/2 362/217/2 386/218/2
f 131/219/5 245/222/5 207/122/5
f 19/221/5 151/231/5 245/222/5
f 246/123/2 383/123/2 362/217/2
f 91/223/5 246/123/5 147/217/5
f 35/220/5 207/122/5 246/123/5
f 247/139/5 112/138/5 23/203/5
f 208/140/5 247/139/5 107/40/5
f 80/141/5 206/137/5 247/139/5
f 226/180/4 306/180/4 309/15/4
f 143/225/5 248/136/5 203/226/5
f 7/228/5 88/134/5 248/136/5
f 79/229/3 376/229/3 375/226/3
f 103/230/5 249/232/5 151/231/5
f 47/227/5 203/226/5 249/232/5
f 250/132/5 113/131/5 26/210/5
f 204/133/5 250/132/5 111/28/5
f 79/229/5 202/130/5 250/132/5
f 251/129/5 201/128/5 78/233/5
f 156/38/5 251/129/5 199/118/5
f 27/205/5 154/127/5 251/129/5
f 252/99/5 200/100/5 34/234/5
f 116/236/5 252/99/5 130/235/5
f 198/238/3 318/238/3 321/233/3
f 253/239/5 96/275/5 9/240/5
f 200/100/5 253/239/5 90/241/5
f 60/119/3 317/119/3 316/242/3
f 192/243/4 370/243/4 369/244/4
f 127/245/5 254/248/5 195/120/5
f 15/247/5 155/262/5 254/248/5
f 255/121/5 196/255/5 46/249/5
f 87/251/5 255/121/5 142/250/5
f 31/246/5 195/120/5 255/121/5
f 256/253/5 116/236/5 18/237/5
f 196/255/5 256/253/5 102/254/5
f 183/256/3 312/256/3 319/257/3
f 257/218/2 386/218/2 368/258/2
f 139/259/5 257/218/5 191/258/5
f 10/224/5 147/217/5 257/218/5
f 195/120/1 372/120/1 373/116/1
f 99/261/5 258/263/5 155/262/5
f 43/260/5 191/258/5 258/263/5
f 259/113/5 117/112/5 27/205/5
f 192/243/5 259/113/5 115/37/5
f 76/244/5 190/111/5 259/113/5
f 260/110/5 189/109/5 75/125/5
f 160/47/5 260/110/5 187/126/5
f 28/199/5 158/108/5 260/110/5
f 261/107/5 188/124/5 30/266/5
f 120/98/5 261/107/5 126/267/5
f 200/100/1 329/100/1 331/239/1
f 262/106/5 145/105/5 1/269/5
f 188/124/5 262/106/5 86/270/5
f 75/125/2 303/125/2 305/124/2
f 263/103/5 185/102/5 74/271/5
f 136/35/5 263/103/5 183/256/5
f 24/206/5 159/101/5 263/103/5
f 264/272/5 184/278/5 42/273/5
f 96/275/5 264/272/5 138/274/5
f 182/276/3 310/276/3 313/271/3
f 265/97/5 120/98/5 14/268/5
f 184/278/5 265/97/5 98/277/5
f 96/275/1 322/275/1 334/272/1
f 266/96/5 181/95/5 73/279/5
f 148/21/5 266/96/5 179/91/5
f 13/216/5 146/94/5 266/96/5
f 267/93/5 180/92/5 63/281/5
f 108/163/5 267/93/5 159/101/5
f 52/280/5 179/91/5 267/93/5
f 268/90/5 121/89/5 28/199/5
f 180/92/5 268/90/5 119/46/5
f 73/279/5 178/88/5 268/90/5
f 269/87/5 177/86/5 72/282/5
f 164/56/5 269/87/5 175/82/5
f 29/192/5 162/85/5 269/87/5
f 270/84/5 176/83/5 38/284/5
f 124/71/5 270/84/5 134/177/5
f 68/283/5 175/82/5 270/84/5
f 271/81/5 141/80/5 12/285/5
f 177/86/2 390/86/2 391/282/2
f 122/52/4 402/52/4 408/182/4
f 272/78/5 173/77/5 71/286/5
f 137/26/5 272/78/5 171/73/5
f 25/212/5 163/76/5 272/78/5
f 273/75/5 172/74/5 50/288/5
f 97/145/5 273/75/5 146/94/5
f 41/287/5 171/73/5 273/75/5
f 274/72/5 124/71/5 22/198/5
f 172/74/5 274/72/5 106/49/5
f 71/286/5 170/70/5 274/72/5
f 153/32/3 338/32/3 360/33/3
f 202/130/1 346/130/1 339/211/1
f 11/7/5 92/67/5 275/69/5
f 276/66/5 168/65/5 67/289/5
f 109/154/5 276/66/5 163/76/5
f 53/290/5 167/64/5 276/66/5
f 277/63/5 125/62/5 29/192/5
f 168/65/5 277/63/5 123/55/5
f 70/291/5 166/61/5 277/63/5
f 69/189/1 341/189/1 353/183/1
f 290/24/3 361/24/3 352/160/3
f 36/292/5 132/58/5 278/60/5
f 279/57/5 164/56/5 68/283/5
f 173/77/5 279/57/5 170/70/5
f 67/289/5 123/55/5 279/57/5
f 280/54/5 101/53/5 45/293/5
f 38/284/2 389/284/2 396/178/2
f 174/79/4 403/79/4 411/54/4
f 281/51/5 161/50/5 65/197/5
f 181/95/5 281/51/5 178/88/5
f 50/288/5 106/49/5 281/51/5
f 282/48/5 160/47/5 64/265/5
f 185/102/5 282/48/5 182/276/5
f 63/281/5 119/46/5 282/48/5
f 283/45/5 105/44/5 49/294/5
f 228/184/2 398/184/2 399/191/2
f 176/83/2 388/83/2 389/284/2
f 284/42/5 157/41/5 61/202/5
f 193/142/5 284/42/5 190/111/5
f 51/143/5 107/40/5 284/42/5
f 285/39/5 156/38/5 60/119/5
f 197/117/5 285/39/5 194/242/5
f 59/264/5 115/37/5 285/39/5
f 286/36/5 136/35/5 40/257/5
f 201/128/5 286/36/5 198/238/5
f 58/204/5 114/34/5 286/36/5
f 215/156/1 350/156/1 351/207/1
f 53/290/1 337/290/1 343/64/1
f 32/295/5 128/31/5 287/33/5
f 288/30/5 152/29/5 56/214/5
f 209/114/5 288/30/5 206/137/5
f 55/115/5 111/28/5 288/30/5
f 289/27/5 137/26/5 41/287/5
f 213/151/5 289/27/5 210/144/5
f 54/209/5 110/25/5 289/27/5
f 275/69/3 358/69/3 336/23/3
f 149/23/3 336/23/3 361/24/3
f 44/296/5 140/8/5 290/24/5
f 291/22/5 148/21/5 52/280/5
f 221/169/5 291/22/5 218/162/5
f 39/215/5 95/20/5 291/22/5
f 292/19/5 93/18/5 37/297/5
f 84/196/2 397/196/2 394/175/2
f 235/173/4 409/173/4 405/171/4
f 293/15/5 89/14/5 33/298/5
f 262/106/4 308/106/4 304/104/4
f 48/299/5 144/13/5 293/15/5
f 294/120/5 295/116/5 296/255/5
f 255/121/1 297/121/1 296/255/1
f 196/255/4 296/255/4 295/116/4
f 77/116/3 295/116/3 294/120/3
f 307/136/5 300/135/5 299/229/5
f 303/125/5 304/104/5 308/106/5
f 301/187/5 309/15/5 306/180/5
f 203/226/1 298/226/1 299/229/1
f 248/136/2 307/136/2 298/226/2
f 85/194/1 302/194/1 306/180/1
f 188/124/1 305/124/1 308/106/1
f 186/104/3 304/104/3 303/125/3
f 205/135/3 300/135/3 307/136/3
f 79/229/4 299/229/4 300/135/4
f 229/187/2 301/187/2 302/194/2
f 293/15/3 309/15/3 301/187/3
f 310/276/5 311/265/5 324/98/5
f 312/256/5 313/271/5 325/278/5
f 314/126/5 315/125/5 326/124/5
f 316/242/5 317/119/5 323/236/5
f 318/238/5 319/257/5 322/275/5
f 320/118/5 321/233/5 329/100/5
f 317/119/5 320/118/5 330/99/5
f 321/233/5 318/238/5 331/239/5
f 327/116/5 316/242/5 332/253/5
f 311/265/5 314/126/5 333/107/5
f 319/257/5 312/256/5 334/272/5
f 313/271/5 310/276/5 335/97/5
f 116/236/1 323/236/1 330/99/1
f 184/278/1 325/278/1 335/97/1
f 256/253/1 332/253/1 323/236/1
f 64/265/3 311/265/3 310/276/3
f 194/242/3 316/242/3 327/116/3
f 196/255/1 328/255/1 332/253/1
f 187/126/3 314/126/3 311/265/3
f 74/271/3 313/271/3 312/256/3
f 40/257/3 319/257/3 318/238/3
f 188/124/4 326/124/4 315/125/4
f 78/233/3 321/233/3 320/118/3
f 264/272/1 334/272/1 325/278/1
f 77/116/2 327/116/2 328/255/2
f 253/239/1 331/239/1 322/275/1
f 356/188/5 355/187/5 354/194/5
f 340/59/5 356/188/5 353/183/5
f 357/161/5 352/160/5 351/207/5
f 338/32/5 357/161/5 350/156/5
f 358/69/5 345/68/5 344/291/5
f 336/23/5 358/69/5 343/64/5
f 359/60/5 340/59/5 341/189/5
f 345/68/5 359/60/5 342/61/5
f 360/33/5 338/32/5 339/211/5
f 347/135/5 360/33/5 346/130/5
f 361/24/5 336/23/5 337/290/5
f 352/160/5 361/24/5 349/153/5
f 165/59/3 340/59/3 359/60/3
f 57/211/1 339/211/1 350/156/1
f 239/161/3 357/161/3 338/32/3
f 229/187/3 355/187/3 356/188/3
f 167/64/1 343/64/1 344/291/1
f 278/60/3 359/60/3 345/68/3
f 230/188/3 356/188/3 340/59/3
f 227/183/1 353/183/1 354/194/1
f 205/135/2 347/135/2 348/229/2
f 79/229/1 348/229/1 346/130/1
f 169/68/3 345/68/3 358/69/3
f 70/291/1 344/291/1 342/61/1
f 214/153/1 349/153/1 337/290/1
f 85/194/4 354/194/4 355/187/4
f 368/258/5 369/244/5 370/243/5
f 362/217/5 363/143/5 371/142/5
f 366/262/5 367/264/5 374/117/5
f 375/226/5 376/229/5 377/133/5
f 378/122/5 379/141/5 380/140/5
f 364/231/5 365/115/5 381/114/5
f 382/222/5 381/114/5 379/141/5
f 383/123/5 380/140/5 363/143/5
f 384/232/5 377/133/5 365/115/5
f 385/248/5 374/117/5 373/116/5
f 386/218/5 371/142/5 369/244/5
f 387/263/5 370/243/5 367/264/5
f 254/248/2 385/248/2 372/120/2
f 155/262/2 366/262/2 385/248/2
f 245/222/2 382/222/2 378/122/2
f 258/263/2 387/263/2 366/262/2
f 59/264/4 367/264/4 370/243/4
f 204/133/4 377/133/4 376/229/4
f 151/231/2 364/231/2 382/222/2
f 191/258/2 368/258/2 387/263/2
f 249/232/2 384/232/2 364/231/2
f 76/244/4 369/244/4 371/142/4
f 197/117/4 374/117/4 367/264/4
f 51/143/4 363/143/4 380/140/4
f 203/226/2 375/226/2 384/232/2
f 80/141/4 379/141/4 381/114/4
f 398/184/5 408/182/5 402/52/5
f 406/194/5 407/180/5 408/182/5
f 394/175/5 409/173/5 401/43/5
f 397/196/5 405/171/5 409/173/5
f 388/83/5 410/81/5 400/17/5
f 391/282/5 403/79/5 410/81/5
f 390/86/5 411/54/5 403/79/5
f 399/191/5 402/52/5 411/54/5
f 392/109/5 412/45/5 404/104/5
f 395/195/5 401/43/5 412/45/5
f 396/178/5 413/19/5 405/171/5
f 389/284/5 400/17/5 413/19/5
f 232/182/4 408/182/4 407/180/4
f 271/81/4 410/81/4 403/79/4
f 72/282/2 391/282/2 388/83/2
f 85/194/2 406/194/2 398/184/2
f 224/175/2 394/175/2 395/195/2
f 222/171/4 405/171/4 413/19/4
f 66/191/2 399/191/2 390/86/2
f 225/178/2 396/178/2 397/196/2
f 292/19/4 413/19/4 400/17/4
f 186/104/4 404/104/4 412/45/4
f 118/43/4 401/43/4 409/173/4
f 189/109/2 392/109/2 393/125/2
f 283/45/4 412/45/4 401/43/4
f 75/125/1 393/125/1 404/104/1
