# Blender 4.1.1
# www.blender.org
mtllib ventilatorStange.mtl
o Cylinder.002
v 0.000000 -1.718159 0.110591
v 0.000000 0.015365 0.110591
v 0.021575 -1.718159 0.108466
v 0.021575 0.015365 0.108466
v 0.042321 -1.718159 0.102172
v 0.042321 0.015365 0.102172
v 0.061441 -1.718159 0.091953
v 0.061441 0.015365 0.091953
v 0.078199 -1.718159 0.078199
v 0.078199 0.015365 0.078199
v 0.091953 -1.718159 0.061441
v 0.091953 0.015365 0.061441
v 0.102172 -1.718159 0.042321
v 0.102172 0.015365 0.042321
v 0.108466 -1.718159 0.021575
v 0.108466 0.015365 0.021575
v 0.110591 -1.718159 -0.000000
v 0.110591 0.015365 0.000000
v 0.108466 -1.718159 -0.021575
v 0.108466 0.015365 -0.021575
v 0.102172 -1.718159 -0.042321
v 0.102172 0.015365 -0.042321
v 0.091953 -1.718159 -0.061441
v 0.091953 0.015365 -0.061441
v 0.078199 -1.718159 -0.078199
v 0.078199 0.015365 -0.078199
v 0.061441 -1.718159 -0.091953
v 0.061441 0.015365 -0.091953
v 0.042321 -1.718159 -0.102172
v 0.042321 0.015365 -0.102172
v 0.021575 -1.718159 -0.108466
v 0.021575 0.015365 -0.108466
v 0.000000 -1.718159 -0.110591
v 0.000000 0.015365 -0.110591
v -0.021575 -1.718159 -0.108466
v -0.021575 0.015365 -0.108466
v -0.042321 -1.718159 -0.102172
v -0.042321 0.015365 -0.102172
v -0.061441 -1.718159 -0.091953
v -0.061441 0.015365 -0.091953
v -0.078199 -1.718159 -0.078199
v -0.078199 0.015365 -0.078199
v -0.091953 -1.718159 -0.061441
v -0.091953 0.015365 -0.061441
v -0.102172 -1.718159 -0.042321
v -0.102172 0.015365 -0.042321
v -0.108466 -1.718159 -0.021575
v -0.108466 0.015365 -0.021575
v -0.110591 -1.718159 -0.000000
v -0.110591 0.015365 0.000000
v -0.108466 -1.718159 0.021575
v -0.108466 0.015365 0.021575
v -0.102172 -1.718159 0.042321
v -0.102172 0.015365 0.042321
v -0.091953 -1.718159 0.061441
v -0.091953 0.015365 0.061441
v -0.078199 -1.718159 0.078199
v -0.078199 0.015365 0.078199
v -0.061441 -1.718159 0.091953
v -0.061441 0.015365 0.091953
v -0.042321 -1.718159 0.102172
v -0.042321 0.015365 0.102172
v -0.021575 -1.718159 0.108466
v -0.021575 0.015365 0.108466
vn -0.0000 -0.1193 0.9929
vn -0.0000 0.1193 0.9929
vn 0.1937 -0.1193 0.9738
vn 0.1937 0.1193 0.9738
vn 0.3799 -0.1193 0.9173
vn 0.3799 0.1193 0.9173
vn 0.5516 -0.1193 0.8255
vn 0.5516 0.1193 0.8255
vn 0.7020 -0.1193 0.7021
vn 0.7021 0.1193 0.7021
vn 0.8255 -0.1193 0.5516
vn 0.8255 0.1193 0.5516
vn 0.9173 -0.1193 0.3799
vn 0.9173 0.1193 0.3799
vn 0.9738 -0.1193 0.1937
vn 0.9738 0.1193 0.1937
vn 0.9929 -0.1193 -0.0000
vn 0.9929 0.1193 -0.0000
vn 0.9738 -0.1193 -0.1937
vn 0.9738 0.1193 -0.1937
vn 0.9173 -0.1193 -0.3799
vn 0.9173 0.1193 -0.3799
vn 0.8255 -0.1193 -0.5516
vn 0.8255 0.1193 -0.5516
vn 0.7021 -0.1193 -0.7021
vn 0.7021 0.1193 -0.7021
vn 0.5516 -0.1193 -0.8255
vn 0.5516 0.1193 -0.8255
vn 0.3799 -0.1193 -0.9173
vn 0.3799 0.1193 -0.9173
vn 0.1937 -0.1193 -0.9738
vn 0.1937 0.1193 -0.9738
vn -0.0000 -0.1193 -0.9929
vn -0.0000 0.1193 -0.9929
vn -0.1937 -0.1193 -0.9738
vn -0.1937 0.1193 -0.9738
vn -0.3799 -0.1193 -0.9173
vn -0.3799 0.1193 -0.9173
vn -0.5516 -0.1193 -0.8255
vn -0.5516 0.1193 -0.8255
vn -0.7020 -0.1193 -0.7021
vn -0.7021 0.1193 -0.7021
vn -0.8255 -0.1193 -0.5516
vn -0.8255 0.1193 -0.5516
vn -0.9173 -0.1193 -0.3799
vn -0.9173 0.1193 -0.3799
vn -0.9738 -0.1193 -0.1937
vn -0.9738 0.1193 -0.1937
vn -0.9929 -0.1193 -0.0000
vn -0.9929 0.1193 -0.0000
vn -0.9738 -0.1193 0.1937
vn -0.9738 0.1193 0.1937
vn -0.9173 -0.1193 0.3799
vn -0.9173 0.1193 0.3799
vn -0.8255 -0.1193 0.5516
vn -0.8255 0.1193 0.5516
vn -0.7021 -0.1193 0.7021
vn -0.7021 0.1193 0.7021
vn -0.5516 -0.1193 0.8255
vn -0.5516 0.1193 0.8255
vn -0.3799 -0.1193 0.9173
vn -0.3799 0.1193 0.9173
vn -0.1937 -0.1193 0.9738
vn -0.1937 0.1193 0.9738
vt 1.000000 1.000000
vt 0.968750 0.500000
vt 1.000000 0.500000
vt 0.968750 1.000000
vt 0.937500 0.500000
vt 0.937500 1.000000
vt 0.906250 0.500000
vt 0.906250 1.000000
vt 0.875000 0.500000
vt 0.875000 1.000000
vt 0.843750 0.500000
vt 0.843750 1.000000
vt 0.812500 0.500000
vt 0.812500 1.000000
vt 0.781250 0.500000
vt 0.781250 1.000000
vt 0.750000 0.500000
vt 0.750000 1.000000
vt 0.718750 0.500000
vt 0.718750 1.000000
vt 0.687500 0.500000
vt 0.687500 1.000000
vt 0.656250 0.500000
vt 0.656250 1.000000
vt 0.625000 0.500000
vt 0.625000 1.000000
vt 0.593750 0.500000
vt 0.593750 1.000000
vt 0.562500 0.500000
vt 0.562500 1.000000
vt 0.531250 0.500000
vt 0.531250 1.000000
vt 0.500000 0.500000
vt 0.500000 1.000000
vt 0.468750 0.500000
vt 0.468750 1.000000
vt 0.437500 0.500000
vt 0.437500 1.000000
vt 0.406250 0.500000
vt 0.406250 1.000000
vt 0.375000 0.500000
vt 0.375000 1.000000
vt 0.343750 0.500000
vt 0.343750 1.000000
vt 0.312500 0.500000
vt 0.312500 1.000000
vt 0.281250 0.500000
vt 0.281250 1.000000
vt 0.250000 0.500000
vt 0.250000 1.000000
vt 0.218750 0.500000
vt 0.218750 1.000000
vt 0.187500 0.500000
vt 0.187500 1.000000
vt 0.156250 0.500000
vt 0.156250 1.000000
vt 0.125000 0.500000
vt 0.125000 1.000000
vt 0.093750 0.500000
vt 0.093750 1.000000
vt 0.062500 0.500000
vt 0.158156 0.028269
vt 0.471731 0.158156
vt 0.341844 0.471731
vt 0.062500 1.000000
vt 0.031250 0.500000
vt 0.031250 1.000000
vt 0.000000 0.500000
vt 0.796822 0.014612
vt 0.514612 0.203178
vt 0.703178 0.485388
vt 0.296822 0.485388
vt 0.250000 0.490000
vt 0.203178 0.485388
vt 0.158156 0.471731
vt 0.116663 0.449553
vt 0.080294 0.419706
vt 0.050447 0.383337
vt 0.028269 0.341844
vt 0.014612 0.296822
vt 0.010000 0.250000
vt 0.014612 0.203178
vt 0.028269 0.158156
vt 0.050447 0.116663
vt 0.080294 0.080294
vt 0.116663 0.050447
vt 0.203178 0.014612
vt 0.250000 0.010000
vt 0.296822 0.014612
vt 0.341844 0.028269
vt 0.383337 0.050447
vt 0.419706 0.080294
vt 0.449553 0.116663
vt 0.485388 0.203178
vt 0.471731 0.341844
vt 0.490000 0.250000
vt 0.485388 0.296822
vt 0.449553 0.383337
vt 0.419706 0.419706
vt 0.383337 0.449553
vt 0.000000 1.000000
vt 0.750000 0.490000
vt 0.796822 0.485388
vt 0.841844 0.471731
vt 0.883337 0.449553
vt 0.919706 0.419706
vt 0.949553 0.383337
vt 0.971731 0.341844
vt 0.985388 0.296822
vt 0.990000 0.250000
vt 0.985388 0.203178
vt 0.971731 0.158156
vt 0.949553 0.116663
vt 0.919706 0.080294
vt 0.883337 0.050447
vt 0.841844 0.028269
vt 0.750000 0.010000
vt 0.703178 0.014612
vt 0.658156 0.028269
vt 0.616663 0.050447
vt 0.580294 0.080294
vt 0.550447 0.116663
vt 0.528269 0.158156
vt 0.510000 0.250000
vt 0.514612 0.296822
vt 0.528269 0.341844
vt 0.550447 0.383337
vt 0.580294 0.419706
vt 0.616663 0.449553
vt 0.658156 0.471731
s 1
usemtl Material.002
f 2/1/2 1/3/1 3/2/3
f 4/4/4 3/2/3 5/5/5
f 6/6/6 5/5/5 7/7/7
f 8/8/8 7/7/7 9/9/9
f 10/10/10 9/9/9 11/11/11
f 12/12/12 11/11/11 13/13/13
f 14/14/14 13/13/13 15/15/15
f 16/16/16 15/15/15 17/17/17
f 18/18/18 17/17/17 19/19/19
f 20/20/20 19/19/19 21/21/21
f 22/22/22 21/21/21 23/23/23
f 24/24/24 23/23/23 25/25/25
f 26/26/26 25/25/25 27/27/27
f 28/28/28 27/27/27 29/29/29
f 30/30/30 29/29/29 31/31/31
f 32/32/32 31/31/31 33/33/33
f 34/34/34 33/33/33 35/35/35
f 36/36/36 35/35/35 37/37/37
f 38/38/38 37/37/37 39/39/39
f 40/40/40 39/39/39 41/41/41
f 42/42/42 41/41/41 43/43/43
f 44/44/44 43/43/43 45/45/45
f 46/46/46 45/45/45 47/47/47
f 48/48/48 47/47/47 49/49/49
f 50/50/50 49/49/49 51/51/51
f 52/52/52 51/51/51 53/53/53
f 54/54/54 53/53/53 55/55/55
f 56/56/56 55/55/55 57/57/57
f 58/58/58 57/57/57 59/59/59
f 60/60/60 59/59/59 61/61/61
f 38/62/38 6/64/6 22/63/22
f 62/65/62 61/61/61 63/66/63
f 64/67/64 63/66/63 1/68/1
f 31/69/31 63/71/63 47/70/47
f 2/1/2 3/2/3 4/4/4
f 4/4/4 5/5/5 6/6/6
f 6/6/6 7/7/7 8/8/8
f 8/8/8 9/9/9 10/10/10
f 10/10/10 11/11/11 12/12/12
f 12/12/12 13/13/13 14/14/14
f 14/14/14 15/15/15 16/16/16
f 16/16/16 17/17/17 18/18/18
f 18/18/18 19/19/19 20/20/20
f 20/20/20 21/21/21 22/22/22
f 22/22/22 23/23/23 24/24/24
f 24/24/24 25/25/25 26/26/26
f 26/26/26 27/27/27 28/28/28
f 28/28/28 29/29/29 30/30/30
f 30/30/30 31/31/31 32/32/32
f 32/32/32 33/33/33 34/34/34
f 34/34/34 35/35/35 36/36/36
f 36/36/36 37/37/37 38/38/38
f 38/38/38 39/39/39 40/40/40
f 40/40/40 41/41/41 42/42/42
f 42/42/42 43/43/43 44/44/44
f 44/44/44 45/45/45 46/46/46
f 46/46/46 47/47/47 48/48/48
f 48/48/48 49/49/49 50/50/50
f 50/50/50 51/51/51 52/52/52
f 52/52/52 53/53/53 54/54/54
f 54/54/54 55/55/55 56/56/56
f 56/56/56 57/57/57 58/58/58
f 58/58/58 59/59/59 60/60/60
f 60/60/60 61/61/61 62/65/62
f 6/64/6 2/73/2 4/72/4
f 2/73/2 62/75/62 64/74/64
f 62/75/62 58/77/58 60/76/60
f 58/77/58 54/79/54 56/78/56
f 54/79/54 50/81/50 52/80/52
f 50/81/50 54/79/54 48/82/48
f 48/82/48 54/79/54 46/83/46
f 46/83/46 42/85/42 44/84/44
f 42/85/42 38/62/38 40/86/40
f 38/62/38 34/88/34 36/87/36
f 34/88/34 38/62/38 32/89/32
f 32/89/32 38/62/38 30/90/30
f 30/90/30 26/92/26 28/91/28
f 26/92/26 22/63/22 24/93/24
f 22/63/22 14/95/14 20/94/20
f 20/94/20 14/95/14 18/96/18
f 18/96/18 14/95/14 16/97/16
f 14/95/14 10/99/10 12/98/12
f 10/99/10 6/64/6 8/100/8
f 6/64/6 62/75/62 2/73/2
f 62/75/62 6/64/6 58/77/58
f 58/77/58 6/64/6 54/79/54
f 46/83/46 54/79/54 42/85/42
f 42/85/42 54/79/54 38/62/38
f 30/90/30 38/62/38 26/92/26
f 26/92/26 38/62/38 22/63/22
f 14/95/14 22/63/22 10/99/10
f 10/99/10 22/63/22 6/64/6
f 6/64/6 38/62/38 54/79/54
f 62/65/62 63/66/63 64/67/64
f 64/67/64 1/68/1 2/101/2
f 63/71/63 3/103/3 1/102/1
f 3/103/3 7/105/7 5/104/5
f 7/105/7 11/107/11 9/106/9
f 11/107/11 15/109/15 13/108/13
f 15/109/15 19/111/19 17/110/17
f 19/111/19 23/113/23 21/112/21
f 23/113/23 27/115/27 25/114/25
f 27/115/27 31/69/31 29/116/29
f 31/69/31 35/118/35 33/117/33
f 35/118/35 39/120/39 37/119/37
f 39/120/39 43/122/43 41/121/41
f 43/122/43 47/70/47 45/123/45
f 47/70/47 51/125/51 49/124/49
f 51/125/51 55/127/55 53/126/53
f 55/127/55 59/129/59 57/128/57
f 59/129/59 63/71/63 61/130/61
f 63/71/63 15/109/15 3/103/3
f 3/103/3 15/109/15 7/105/7
f 7/105/7 15/109/15 11/107/11
f 15/109/15 31/69/31 19/111/19
f 19/111/19 31/69/31 23/113/23
f 23/113/23 31/69/31 27/115/27
f 31/69/31 47/70/47 35/118/35
f 35/118/35 47/70/47 39/120/39
f 39/120/39 47/70/47 43/122/43
f 47/70/47 63/71/63 51/125/51
f 51/125/51 63/71/63 55/127/55
f 55/127/55 63/71/63 59/129/59
f 63/71/63 31/69/31 15/109/15
