# Blender 4.1.1
# www.blender.org
mtllib ventilatorBlaetter.mtl
o Cube.006
v 0.907368 -1.772458 -0.133171
v 0.907368 -1.789042 -0.133171
v 0.907368 -1.772458 0.117876
v 0.907368 -1.789042 0.117876
v 1.521330 -1.772458 -0.069154
v 1.364769 -1.772458 -0.133171
v 1.515995 -1.772458 -0.085723
v 1.500355 -1.772458 -0.101162
v 1.475474 -1.772458 -0.114421
v 1.443050 -1.772458 -0.124594
v 1.405290 -1.772458 -0.130989
v 1.364769 -1.789042 -0.133171
v 1.521330 -1.789042 -0.069154
v 1.405290 -1.789042 -0.130989
v 1.443050 -1.789042 -0.124594
v 1.475474 -1.789042 -0.114421
v 1.500355 -1.789042 -0.101162
v 1.515995 -1.789042 -0.085723
v 1.364769 -1.772458 0.117876
v 1.521330 -1.772458 0.053859
v 1.405290 -1.772458 0.115694
v 1.443050 -1.772458 0.109299
v 1.475474 -1.772458 0.099126
v 1.500355 -1.772458 0.085867
v 1.515995 -1.772458 0.070428
v 1.521330 -1.789042 0.053859
v 1.364769 -1.789042 0.117876
v 1.515995 -1.789042 0.070428
v 1.500355 -1.789042 0.085867
v 1.475474 -1.789042 0.099126
v 1.443050 -1.789042 0.109299
v 1.405290 -1.789042 0.115694
v 1.034757 -1.873249 0.504700
v 1.060718 -1.883184 0.545922
v 1.087543 -1.891294 0.579572
v 1.123022 -1.897377 0.604809
v 1.178404 -1.899202 0.612381
v 5.345442 -1.853492 0.446325
v 5.382778 -1.850125 0.427845
v 5.437480 -1.840787 0.377478
v 5.448513 -1.827156 0.305205
v 5.439494 -1.796583 0.140238
v 5.413448 -1.796583 -0.202076
v 5.394844 -1.796583 -0.403000
v 5.342753 -1.796583 -0.447650
v 5.272058 -1.796583 -0.462533
v 1.160984 -1.796583 -0.657901
v 1.112525 -1.796583 -0.654440
v 1.069258 -1.796583 -0.638863
v 1.025126 -1.796583 -0.609442
v 0.993108 -1.796583 -0.564444
v 0.969744 -1.796583 -0.528965
v 0.948975 -1.796583 -0.490890
v 0.953960 -1.796583 -0.437308
v 0.995081 -1.796583 -0.357558
v 1.037448 -1.796583 -0.247902
v 1.064862 -1.796583 -0.047281
v 1.078569 -1.797007 0.088570
v 1.057385 -1.812148 0.251182
v 1.029971 -1.837841 0.357786
v 1.024987 -1.862658 0.460755
v 1.076700 -1.820019 0.145429
v 5.446970 -1.814431 0.260655
v 1.034757 -1.873249 0.504700
v 1.060718 -1.883184 0.545922
v 1.087543 -1.891294 0.579572
v 1.123022 -1.897377 0.604809
v 1.178404 -1.899202 0.612381
v 5.345442 -1.853492 0.446325
v 5.382778 -1.850125 0.427845
v 5.437480 -1.840787 0.377478
v 5.448513 -1.827156 0.305205
v 5.439494 -1.796583 0.140238
v 5.413448 -1.796583 -0.202076
v 5.394844 -1.796583 -0.403000
v 5.342753 -1.796583 -0.447650
v 5.272058 -1.796583 -0.462533
v 1.160984 -1.796583 -0.657901
v 1.112525 -1.796583 -0.654440
v 1.069258 -1.796583 -0.638863
v 1.025126 -1.796583 -0.609442
v 0.993108 -1.796583 -0.564444
v 0.969744 -1.796583 -0.528965
v 0.948975 -1.796583 -0.490890
v 0.953960 -1.796583 -0.437308
v 0.995081 -1.796583 -0.357558
v 1.037448 -1.796583 -0.247902
v 1.064862 -1.796583 -0.047281
v 1.078569 -1.797007 0.088570
v 1.057385 -1.812148 0.251182
v 1.029971 -1.837841 0.357786
v 1.024987 -1.862658 0.460755
v 1.076700 -1.820019 0.145429
v 5.446970 -1.814431 0.260655
v -0.973124 -1.873249 0.612517
v -1.021817 -1.883184 0.613971
v -1.064425 -1.891294 0.620013
v -1.104175 -1.897377 0.637780
v -1.138800 -1.899202 0.681661
v -3.110076 -1.853493 4.356692
v -3.113097 -1.850126 4.398242
v -3.097450 -1.840787 4.470934
v -3.040771 -1.827157 4.517113
v -2.894041 -1.796583 4.593047
v -2.585850 -1.796583 4.744294
v -2.403272 -1.796583 4.830212
v -2.338366 -1.796583 4.807981
v -2.289670 -1.796583 4.754612
v -0.035348 -1.796583 1.311195
v -0.013742 -1.796583 1.267681
v -0.005211 -1.796583 1.222494
v -0.008171 -1.796583 1.169536
v -0.030700 -1.796583 1.119115
v -0.049417 -1.796583 1.080979
v -0.071689 -1.796583 1.043764
v -0.120390 -1.796583 1.020871
v -0.209976 -1.796583 1.015840
v -0.325965 -1.796583 0.996708
v -0.512752 -1.796583 0.918536
v -0.636770 -1.797007 0.861416
v -0.766147 -1.812148 0.760652
v -0.844098 -1.837841 0.682938
v -0.930299 -1.862658 0.626395
v -0.684818 -1.820019 0.830955
v -3.001598 -1.814431 4.538389
v -0.973124 -1.873249 0.612517
v -1.021817 -1.883184 0.613971
v -1.064425 -1.891294 0.620013
v -1.104175 -1.897377 0.637780
v -1.138800 -1.899202 0.681661
v -3.110076 -1.853493 4.356692
v -3.113097 -1.850126 4.398242
v -3.097450 -1.840787 4.470934
v -3.040771 -1.827157 4.517113
v -2.894041 -1.796583 4.593047
v -2.585850 -1.796583 4.744294
v -2.403272 -1.796583 4.830212
v -2.338366 -1.796583 4.807981
v -2.289670 -1.796583 4.754612
v -0.035348 -1.796583 1.311195
v -0.013742 -1.796583 1.267681
v -0.005211 -1.796583 1.222494
v -0.008171 -1.796583 1.169536
v -0.030700 -1.796583 1.119115
v -0.049417 -1.796583 1.080979
v -0.071689 -1.796583 1.043764
v -0.120390 -1.796583 1.020871
v -0.209976 -1.796583 1.015840
v -0.325965 -1.796583 0.996708
v -0.512752 -1.796583 0.918536
v -0.636770 -1.797007 0.861416
v -0.766147 -1.812148 0.760652
v -0.844098 -1.837841 0.682938
v -0.930299 -1.862658 0.626395
v -0.684818 -1.820019 0.830955
v -3.001598 -1.814431 4.538389
v -0.058576 -1.873249 -1.171879
v -0.035542 -1.883184 -1.214805
v -0.019519 -1.891294 -1.254745
v -0.015085 -1.897377 -1.298058
v -0.035839 -1.899202 -1.349959
v -2.237270 -1.853492 -4.891920
v -2.271772 -1.850125 -4.915268
v -2.342577 -1.840787 -4.937976
v -2.410877 -1.827156 -4.911894
v -2.549891 -1.796582 -4.822617
v -2.834733 -1.796582 -4.630986
v -3.000287 -1.796582 -4.515622
v -3.013402 -1.796582 -4.448279
v -2.991447 -1.796582 -4.379451
v -1.131961 -1.796582 -0.707748
v -1.105029 -1.796583 -0.667313
v -1.070125 -1.796583 -0.637374
v -1.022753 -1.796583 -0.613518
v -0.967814 -1.796583 -0.607886
v -0.925426 -1.796583 -0.605080
v -0.882061 -1.796583 -0.605814
v -0.837923 -1.796583 -0.636599
v -0.788867 -1.796582 -0.711729
v -0.714417 -1.796582 -0.802705
v -0.553476 -1.796582 -0.925580
v -0.442097 -1.797006 -1.004562
v -0.290221 -1.812148 -1.066412
v -0.183979 -1.837841 -1.095194
v -0.091970 -1.862658 -1.141690
v -0.391726 -1.820019 -1.031005
v -2.448860 -1.814431 -4.888561
v -0.058576 -1.873249 -1.171879
v -0.035542 -1.883184 -1.214805
v -0.019519 -1.891294 -1.254745
v -0.015085 -1.897377 -1.298058
v -0.035839 -1.899202 -1.349959
v -2.237270 -1.853492 -4.891920
v -2.271772 -1.850125 -4.915268
v -2.342577 -1.840787 -4.937976
v -2.410877 -1.827156 -4.911894
v -2.549891 -1.796582 -4.822617
v -2.834733 -1.796582 -4.630986
v -3.000287 -1.796582 -4.515622
v -3.013402 -1.796582 -4.448279
v -2.991447 -1.796582 -4.379451
v -1.131961 -1.796582 -0.707748
v -1.105029 -1.796583 -0.667313
v -1.070125 -1.796583 -0.637374
v -1.022753 -1.796583 -0.613518
v -0.967814 -1.796583 -0.607886
v -0.925426 -1.796583 -0.605080
v -0.882061 -1.796583 -0.605814
v -0.837923 -1.796583 -0.636599
v -0.788867 -1.796582 -0.711729
v -0.714417 -1.796582 -0.802705
v -0.553476 -1.796582 -0.925580
v -0.442097 -1.797006 -1.004562
v -0.290221 -1.812148 -1.066412
v -0.183979 -1.837841 -1.095194
v -0.091970 -1.862658 -1.141690
v -0.391726 -1.820019 -1.031005
v -2.448860 -1.814431 -4.888561
v -0.550331 -1.772458 -0.746285
v -0.550331 -1.789042 -0.746285
v -0.331989 -1.772458 -0.870184
v -0.331989 -1.789042 -0.870184
v -0.797662 -1.772458 -1.311860
v -0.776072 -1.772458 -1.144101
v -0.809439 -1.772458 -1.299043
v -0.815148 -1.772458 -1.277821
v -0.814400 -1.772458 -1.249638
v -0.807246 -1.772458 -1.216416
v -0.794173 -1.772458 -1.180420
v -0.776072 -1.789042 -1.144101
v -0.797662 -1.789042 -1.311860
v -0.794173 -1.789042 -1.180420
v -0.807246 -1.789042 -1.216416
v -0.814400 -1.789042 -1.249638
v -0.815148 -1.789042 -1.277821
v -0.809439 -1.789042 -1.299043
v -0.557729 -1.772458 -1.267999
v -0.690674 -1.772458 -1.372571
v -0.579625 -1.772458 -1.302165
v -0.603822 -1.772458 -1.331849
v -0.628673 -1.772458 -1.355029
v -0.652483 -1.772458 -1.370125
v -0.673630 -1.772458 -1.376108
v -0.690674 -1.789042 -1.372571
v -0.557729 -1.789042 -1.267999
v -0.673630 -1.789042 -1.376108
v -0.652483 -1.789042 -1.370125
v -0.628673 -1.789042 -1.355029
v -0.603822 -1.789042 -1.331849
v -0.579625 -1.789042 -1.302165
v -0.376840 -1.772458 0.818493
v -0.376840 -1.789042 0.818493
v -0.590381 -1.772458 0.686489
v -0.590381 -1.789042 0.686489
v -0.754122 -1.772458 1.307068
v -0.617348 -1.772458 1.207559
v -0.737224 -1.772458 1.311242
v -0.715867 -1.772458 1.306057
v -0.691507 -1.772458 1.291865
v -0.665804 -1.772458 1.269634
v -0.640510 -1.772458 1.240879
v -0.617348 -1.789042 1.207559
v -0.754122 -1.789042 1.307068
v -0.640510 -1.789042 1.240879
v -0.665804 -1.789042 1.269634
v -0.691507 -1.789042 1.291865
v -0.715867 -1.789042 1.306057
v -0.737224 -1.789042 1.311242
v -0.830888 -1.772458 1.075555
v -0.858757 -1.772458 1.242386
v -0.850339 -1.772458 1.111169
v -0.864753 -1.772458 1.146650
v -0.873149 -1.772458 1.179580
v -0.874954 -1.772458 1.207715
v -0.870045 -1.772458 1.229137
v -0.858757 -1.789042 1.242386
v -0.830888 -1.789042 1.075555
v -0.870045 -1.789042 1.229137
v -0.874954 -1.789042 1.207715
v -0.873149 -1.789042 1.179580
v -0.864753 -1.789042 1.146650
v -0.850339 -1.789042 1.111169
vn -1.0000 -0.0000 -0.0000
vn -0.0000 -0.0000 -1.0000
vn -0.0000 -1.0000 -0.0000
vn 1.0000 -0.0000 -0.0000
vn -0.0000 -0.0000 1.0000
vn 0.9519 -0.0000 0.3065
vn 0.7025 -0.0000 0.7117
vn 0.4703 -0.0000 0.8825
vn 0.2994 -0.0000 0.9541
vn 0.1670 -0.0000 0.9860
vn 0.0538 -0.0000 0.9986
vn 0.0538 -0.0000 -0.9986
vn 0.1670 -0.0000 -0.9860
vn 0.2994 -0.0000 -0.9541
vn 0.4703 -0.0000 -0.8825
vn 0.7025 -0.0000 -0.7117
vn 0.9519 -0.0000 -0.3065
vn -0.0000 1.0000 -0.0000
vn -0.0013 0.9722 0.2342
vn 0.0001 1.0000 0.0031
vn 0.0002 -0.9834 -0.1813
vn -0.5127 0.7219 0.4648
vn -0.3292 -0.5225 0.7865
vn 0.1723 -0.9850 -0.0014
vn -0.2664 0.7580 -0.5954
vn 0.2294 -0.8535 0.4678
vn 0.4935 -0.0000 0.8697
vn -0.8697 -0.0000 0.4935
vn -0.4935 -0.0000 -0.8697
vn 0.8697 -0.0000 -0.4935
vn -0.2032 -0.0000 -0.9791
vn 0.2722 -0.0000 -0.9622
vn 0.5355 -0.0000 -0.8446
vn 0.6821 -0.0000 -0.7313
vn 0.7751 -0.0000 -0.6318
vn 0.8419 -0.0000 -0.5396
vn -0.8950 -0.0000 0.4461
vn -0.9399 -0.0000 0.3414
vn -0.9776 -0.0000 0.2105
vn -0.9996 -0.0000 0.0265
vn -0.9657 -0.0000 -0.2598
vn -0.7363 -0.0000 -0.6766
vn 0.5258 -0.0000 -0.8506
vn 0.8506 -0.0000 0.5258
vn -0.5258 -0.0000 0.8506
vn -0.8506 -0.0000 -0.5258
vn -0.7612 -0.0000 0.6485
vn -0.9747 -0.0000 0.2234
vn -0.9979 -0.0000 -0.0640
vn -0.9690 -0.0000 -0.2471
vn -0.9265 -0.0000 -0.3764
vn -0.8776 -0.0000 -0.4793
vn 0.8211 -0.0000 0.5708
vn 0.7508 -0.0000 0.6605
vn 0.6542 -0.0000 0.7563
vn 0.5034 -0.0000 0.8641
vn 0.2359 -0.0000 0.9718
vn -0.2398 -0.0000 0.9708
vn -0.0013 0.9721 0.2346
vn -0.0013 0.9720 0.2351
vn -0.0000 0.9722 0.2343
vn -0.0012 0.9717 0.2364
vn 0.0034 0.9826 0.1858
vn -0.0002 0.9827 0.1853
vn -0.0085 0.9614 0.2749
vn 0.9552 -0.2257 0.1913
vn -0.0014 0.9965 0.0833
vn -0.0002 0.9834 0.1813
vn -0.0045 0.9270 0.3750
vn -0.0051 0.9891 0.1469
vn -0.0001 1.0000 -0.0000
vn 0.0013 -0.9720 -0.2351
vn 0.0013 -0.9721 -0.2346
vn 0.0013 -0.9722 -0.2342
vn -0.9552 0.2257 -0.1913
vn 0.0085 -0.9614 -0.2749
vn 0.0014 -0.9965 -0.0833
vn -0.0034 -0.9826 -0.1858
vn -0.0000 -0.9722 -0.2343
vn 0.0012 -0.9717 -0.2364
vn 0.0002 -0.9827 -0.1853
vn 0.0001 -1.0000 -0.0000
vn 0.0051 -0.9891 -0.1469
vn 0.0045 -0.9270 -0.3750
vn -0.0001 -1.0000 -0.0031
vn -0.2019 0.9722 -0.1189
vn -0.1427 0.9858 -0.0888
vn -0.1619 0.9826 -0.0914
vn -0.1618 0.9826 -0.0914
vn -0.2942 0.9553 -0.0297
vn -0.6495 -0.2257 0.7261
vn -0.1711 0.9793 -0.1084
vn -0.1723 0.9850 0.0014
vn -0.3962 -0.3145 0.8626
vn -0.0239 0.9996 -0.0164
vn -0.1137 0.9886 -0.0990
vn -0.1126 0.9882 0.1041
vn 0.2019 -0.9722 0.1189
vn 0.5127 -0.7219 -0.4648
vn 0.6495 0.2257 -0.7261
vn 0.1711 -0.9793 0.1084
vn 0.2942 -0.9553 0.0297
vn 0.1619 -0.9826 0.0914
vn 0.1427 -0.9858 0.0888
vn 0.1618 -0.9826 0.0914
vn 0.3962 0.3145 -0.8626
vn 0.3292 0.5225 -0.7865
vn 0.1137 -0.9886 0.0990
vn 0.0239 -0.9996 0.0164
vn 0.1126 -0.9882 -0.1041
vn 0.2038 0.9722 -0.1157
vn 0.2037 0.9722 -0.1157
vn 0.1387 0.9862 -0.0901
vn 0.1482 0.9858 -0.0794
vn 0.1600 0.9826 -0.0947
vn 0.1599 0.9826 -0.0947
vn 0.1725 0.9553 -0.2401
vn 0.1793 0.9793 -0.0942
vn 0.3027 0.9253 -0.2286
vn 0.0228 0.9997 -0.0107
vn 0.0788 0.9957 0.0491
vn 0.5557 0.0938 0.8260
vn 0.0005 1.0000 -0.0003
vn -0.0043 0.9999 -0.0114
vn -0.2038 -0.9722 0.1157
vn -0.1793 -0.9793 0.0942
vn -0.1725 -0.9553 0.2401
vn -0.1599 -0.9826 0.0947
vn -0.1600 -0.9826 0.0947
vn -0.1482 -0.9858 0.0794
vn -0.0005 -1.0000 0.0003
vn -0.3027 -0.9253 0.2286
vn -0.5557 -0.0938 -0.8260
vn -0.0228 -0.9997 0.0107
vn -0.0788 -0.9957 -0.0491
vn 0.0043 -0.9999 0.0114
vn 0.7509 -0.0000 0.6605
vt 0.625000 0.000000
vt 0.375000 0.250000
vt 0.375000 0.000000
vt 0.625000 0.813750
vt 0.375000 1.000000
vt 0.375000 0.813750
vt 0.688750 0.750000
vt 0.656875 0.741459
vt 0.625000 0.686250
vt 0.625000 0.563750
vt 0.375000 0.686250
vt 0.375000 0.563750
vt 0.625000 0.250000
vt 0.375000 0.436250
vt 0.625000 0.547250
vt 0.375000 0.547250
vt 0.625000 0.531875
vt 0.375000 0.531875
vt 0.625000 0.500000
vt 0.375000 0.500000
vt 0.625000 0.468125
vt 0.375000 0.468125
vt 0.625000 0.452750
vt 0.375000 0.452750
vt 0.625000 0.436250
vt 0.625000 0.797250
vt 0.375000 0.797250
vt 0.625000 0.781875
vt 0.375000 0.781875
vt 0.625000 0.750000
vt 0.375000 0.750000
vt 0.625000 0.718125
vt 0.375000 0.718125
vt 0.625000 0.702750
vt 0.375000 0.702750
vt 0.372828 0.702750
vt 0.356328 0.731328
vt 0.327750 0.747828
vt 0.000000 0.000000
vt 0.627172 0.702750
vt 0.672250 0.502172
vt 0.343125 0.741459
vt 0.311250 0.500000
vt 0.633541 0.718125
vt 0.311250 0.750000
vt 0.125000 0.750000
vt 0.625000 1.000000
vt 0.688750 0.500000
vt 0.627172 0.547250
vt 0.633541 0.531875
vt 0.643672 0.518672
vt 0.656875 0.508541
vt 0.875000 0.500000
vt 0.875000 0.750000
vt 0.672250 0.747828
vt 0.643672 0.731328
vt 0.125000 0.500000
vt 0.327750 0.502172
vt 0.343125 0.508541
vt 0.356328 0.518672
vt 0.366459 0.531875
vt 0.372828 0.547250
vt 0.366459 0.718125
s 0
usemtl Material.002
f 2/1/1 3/2/1 1/3/1
f 12/4/2 1/5/2 6/6/2
f 12/7/3 15/8/3 13/9/3
f 26/10/4 5/11/4 20/12/4
f 4/13/5 19/14/5 3/2/5
f 20/12/6 28/15/6 26/10/6
f 25/16/7 29/17/7 28/15/7
f 24/18/8 30/19/8 29/17/8
f 23/20/9 31/21/9 30/19/9
f 22/22/10 32/23/10 31/21/10
f 21/24/11 27/25/11 32/23/11
f 6/6/12 14/26/12 12/4/12
f 11/27/13 15/28/13 14/26/13
f 10/29/14 16/30/14 15/28/14
f 9/31/15 17/32/15 16/30/15
f 8/33/16 18/34/16 17/32/16
f 7/35/17 13/9/17 18/34/17
f 7/36/18 9/37/18 11/38/18
f 61/39/19 38/39/19 60/39/19
f 43/39/20 57/39/20 58/39/20
f 71/39/21 69/39/21 91/39/21
f 87/39/3 86/39/3 78/39/3
f 39/39/3 71/39/3 40/39/3
f 53/39/3 85/39/3 54/39/3
f 40/39/3 72/39/3 41/39/3
f 54/39/3 86/39/3 55/39/3
f 63/39/3 73/39/3 42/39/3
f 55/39/3 87/39/3 56/39/3
f 42/39/3 74/39/3 43/39/3
f 56/39/3 88/39/3 57/39/3
f 43/39/3 75/39/3 44/39/3
f 57/39/3 89/39/3 58/39/3
f 44/39/3 76/39/3 45/39/3
f 62/39/3 90/39/3 59/39/3
f 45/39/3 77/39/3 46/39/3
f 59/39/3 91/39/3 60/39/3
f 46/39/3 78/39/3 47/39/3
f 33/39/3 65/39/3 34/39/3
f 60/39/3 92/39/3 61/39/3
f 47/39/3 79/39/3 48/39/3
f 34/39/3 66/39/3 35/39/3
f 61/39/3 64/39/3 33/39/3
f 48/39/3 80/39/3 49/39/3
f 35/39/3 67/39/3 36/39/3
f 58/39/3 93/39/3 62/39/3
f 49/39/3 81/39/3 50/39/3
f 36/39/3 68/39/3 37/39/3
f 41/39/3 94/39/3 63/39/3
f 50/39/3 82/39/3 51/39/3
f 37/39/3 69/39/3 38/39/3
f 51/39/3 83/39/3 52/39/3
f 38/39/3 70/39/3 39/39/3
f 52/39/3 84/39/3 53/39/3
f 124/39/22 122/39/22 123/39/22
f 118/39/23 119/39/23 124/39/23
f 154/39/24 155/39/24 130/39/24
f 144/39/3 149/39/3 148/39/3
f 101/39/3 133/39/3 102/39/3
f 115/39/3 147/39/3 116/39/3
f 102/39/3 134/39/3 103/39/3
f 116/39/3 148/39/3 117/39/3
f 125/39/3 135/39/3 104/39/3
f 117/39/3 149/39/3 118/39/3
f 104/39/3 136/39/3 105/39/3
f 118/39/3 150/39/3 119/39/3
f 105/39/3 137/39/3 106/39/3
f 119/39/3 151/39/3 120/39/3
f 106/39/3 138/39/3 107/39/3
f 124/39/3 152/39/3 121/39/3
f 107/39/3 139/39/3 108/39/3
f 121/39/3 153/39/3 122/39/3
f 108/39/3 140/39/3 109/39/3
f 95/39/3 127/39/3 96/39/3
f 122/39/3 154/39/3 123/39/3
f 109/39/3 141/39/3 110/39/3
f 96/39/3 128/39/3 97/39/3
f 123/39/3 126/39/3 95/39/3
f 110/39/3 142/39/3 111/39/3
f 97/39/3 129/39/3 98/39/3
f 120/39/3 155/39/3 124/39/3
f 111/39/3 143/39/3 112/39/3
f 98/39/3 130/39/3 99/39/3
f 103/39/3 156/39/3 125/39/3
f 112/39/3 144/39/3 113/39/3
f 99/39/3 131/39/3 100/39/3
f 113/39/3 145/39/3 114/39/3
f 100/39/3 132/39/3 101/39/3
f 114/39/3 146/39/3 115/39/3
f 160/39/25 186/39/25 183/39/25
f 180/39/18 181/39/18 171/39/18
f 214/39/26 217/39/26 192/39/26
f 211/39/3 210/39/3 202/39/3
f 163/39/3 195/39/3 164/39/3
f 177/39/3 209/39/3 178/39/3
f 164/39/3 196/39/3 165/39/3
f 178/39/3 210/39/3 179/39/3
f 187/39/3 197/39/3 166/39/3
f 179/39/3 211/39/3 180/39/3
f 166/39/3 198/39/3 167/39/3
f 180/39/3 212/39/3 181/39/3
f 167/39/3 199/39/3 168/39/3
f 181/39/3 213/39/3 182/39/3
f 168/39/3 200/39/3 169/39/3
f 186/39/3 214/39/3 183/39/3
f 169/39/3 201/39/3 170/39/3
f 183/39/3 215/39/3 184/39/3
f 170/39/3 202/39/3 171/39/3
f 157/39/3 189/39/3 158/39/3
f 184/39/3 216/39/3 185/39/3
f 171/39/3 203/39/3 172/39/3
f 158/39/3 190/39/3 159/39/3
f 185/39/3 188/39/3 157/39/3
f 172/39/3 204/39/3 173/39/3
f 159/39/3 191/39/3 160/39/3
f 182/39/3 217/39/3 186/39/3
f 173/39/3 205/39/3 174/39/3
f 160/39/3 192/39/3 161/39/3
f 165/39/3 218/39/3 187/39/3
f 174/39/3 206/39/3 175/39/3
f 161/39/3 193/39/3 162/39/3
f 175/39/3 207/39/3 176/39/3
f 162/39/3 194/39/3 163/39/3
f 176/39/3 208/39/3 177/39/3
f 220/1/27 221/2/27 219/3/27
f 230/4/28 219/5/28 224/6/28
f 236/40/3 231/9/3 250/41/3
f 244/10/29 223/11/29 238/12/29
f 222/13/30 237/14/30 221/2/30
f 238/12/31 246/15/31 244/10/31
f 243/16/32 247/17/32 246/15/32
f 242/18/33 248/19/33 247/17/33
f 241/20/34 249/21/34 248/19/34
f 240/22/35 250/23/35 249/21/35
f 239/24/36 245/25/36 250/23/36
f 224/6/37 232/26/37 230/4/37
f 229/27/38 233/28/38 232/26/38
f 228/29/39 234/30/39 233/28/39
f 227/31/40 235/32/40 234/30/40
f 226/33/41 236/34/41 235/32/41
f 225/35/42 231/9/42 236/34/42
f 228/42/18 229/38/18 237/43/18
f 252/1/43 253/2/43 251/3/43
f 262/4/44 251/5/44 256/6/44
f 267/44/3 268/40/3 263/9/3
f 276/10/45 255/11/45 270/12/45
f 254/13/46 269/14/46 253/2/46
f 270/12/47 278/15/47 276/10/47
f 275/16/48 279/17/48 278/15/48
f 274/18/49 280/19/49 279/17/49
f 273/20/50 281/21/50 280/19/50
f 272/22/51 282/23/51 281/21/51
f 271/24/52 277/25/52 282/23/52
f 256/6/53 264/26/53 262/4/53
f 261/27/54 265/28/54 264/26/54
f 260/29/55 266/30/55 265/28/55
f 259/31/56 267/32/56 266/30/56
f 258/33/57 268/34/57 267/32/57
f 257/35/58 263/9/58 268/34/58
f 256/45/18 251/46/18 269/43/18
f 2/1/1 4/13/1 3/2/1
f 12/4/2 2/47/2 1/5/2
f 13/9/3 26/10/3 27/48/3
f 26/10/3 28/49/3 32/41/3
f 28/49/3 29/50/3 30/51/3
f 30/51/3 31/52/3 32/41/3
f 32/41/3 27/48/3 26/10/3
f 27/48/3 4/53/3 12/7/3
f 13/9/3 27/48/3 12/7/3
f 4/53/3 2/54/3 12/7/3
f 12/7/3 14/55/3 15/8/3
f 15/8/3 16/56/3 17/44/3
f 17/44/3 18/40/3 15/8/3
f 18/40/3 13/9/3 15/8/3
f 28/49/3 30/51/3 32/41/3
f 26/10/4 13/9/4 5/11/4
f 4/13/5 27/25/5 19/14/5
f 20/12/6 25/16/6 28/15/6
f 25/16/7 24/18/7 29/17/7
f 24/18/8 23/20/8 30/19/8
f 23/20/9 22/22/9 31/21/9
f 22/22/10 21/24/10 32/23/10
f 21/24/11 19/14/11 27/25/11
f 6/6/12 11/27/12 14/26/12
f 11/27/13 10/29/13 15/28/13
f 10/29/14 9/31/14 16/30/14
f 9/31/15 8/33/15 17/32/15
f 8/33/16 7/35/16 18/34/16
f 7/35/17 5/11/17 13/9/17
f 1/46/18 3/57/18 19/43/18
f 19/43/18 21/58/18 22/59/18
f 22/59/18 23/60/18 24/61/18
f 24/61/18 25/62/18 22/59/18
f 25/62/18 20/12/18 22/59/18
f 20/12/18 5/11/18 6/45/18
f 5/11/18 7/36/18 11/38/18
f 7/36/18 8/63/18 9/37/18
f 9/37/18 10/42/18 11/38/18
f 11/38/18 6/45/18 5/11/18
f 6/45/18 1/46/18 19/43/18
f 20/12/18 6/45/18 19/43/18
f 19/43/18 22/59/18 20/12/18
f 61/39/59 33/39/59 38/39/59
f 33/39/60 34/39/60 38/39/60
f 34/39/61 35/39/61 37/39/61
f 35/39/61 36/39/61 37/39/61
f 37/39/62 38/39/62 34/39/62
f 38/39/63 39/39/63 40/39/63
f 40/39/64 41/39/64 60/39/64
f 41/39/65 63/39/65 62/39/65
f 62/39/66 59/39/66 60/39/66
f 41/39/67 62/39/67 60/39/67
f 38/39/68 40/39/68 60/39/68
f 58/39/69 62/39/69 42/39/69
f 62/39/70 63/39/70 42/39/70
f 42/39/71 43/39/71 58/39/71
f 57/39/18 43/39/18 46/39/18
f 43/39/18 44/39/18 46/39/18
f 44/39/18 45/39/18 46/39/18
f 46/39/18 47/39/18 56/39/18
f 47/39/18 48/39/18 49/39/18
f 49/39/18 50/39/18 47/39/18
f 50/39/18 51/39/18 47/39/18
f 51/39/18 52/39/18 47/39/18
f 52/39/18 53/39/18 54/39/18
f 47/39/18 52/39/18 54/39/18
f 54/39/18 55/39/18 47/39/18
f 55/39/18 56/39/18 47/39/18
f 46/39/18 56/39/18 57/39/18
f 65/39/72 64/39/72 69/39/72
f 64/39/73 92/39/73 69/39/73
f 92/39/74 91/39/74 69/39/74
f 91/39/75 90/39/75 93/39/75
f 93/39/76 94/39/76 72/39/76
f 91/39/77 93/39/77 72/39/77
f 69/39/78 71/39/78 70/39/78
f 66/39/79 65/39/79 68/39/79
f 68/39/79 67/39/79 66/39/79
f 69/39/80 68/39/80 65/39/80
f 72/39/81 71/39/81 91/39/81
f 86/39/3 85/39/3 78/39/3
f 85/39/3 84/39/3 83/39/3
f 78/39/3 85/39/3 83/39/3
f 83/39/3 82/39/3 78/39/3
f 82/39/3 81/39/3 78/39/3
f 81/39/3 80/39/3 78/39/3
f 80/39/3 79/39/3 78/39/3
f 78/39/3 77/39/3 87/39/3
f 77/39/3 76/39/3 75/39/3
f 87/39/3 77/39/3 88/39/3
f 75/39/3 74/39/3 77/39/3
f 74/39/82 73/39/82 89/39/82
f 73/39/83 94/39/83 93/39/83
f 74/39/3 88/39/3 77/39/3
f 93/39/84 89/39/84 73/39/84
f 89/39/85 88/39/85 74/39/85
f 39/39/3 70/39/3 71/39/3
f 53/39/3 84/39/3 85/39/3
f 40/39/3 71/39/3 72/39/3
f 54/39/3 85/39/3 86/39/3
f 63/39/3 94/39/3 73/39/3
f 55/39/3 86/39/3 87/39/3
f 42/39/3 73/39/3 74/39/3
f 56/39/3 87/39/3 88/39/3
f 43/39/3 74/39/3 75/39/3
f 57/39/3 88/39/3 89/39/3
f 44/39/3 75/39/3 76/39/3
f 62/39/3 93/39/3 90/39/3
f 45/39/3 76/39/3 77/39/3
f 59/39/3 90/39/3 91/39/3
f 46/39/3 77/39/3 78/39/3
f 33/39/3 64/39/3 65/39/3
f 60/39/3 91/39/3 92/39/3
f 47/39/3 78/39/3 79/39/3
f 34/39/3 65/39/3 66/39/3
f 61/39/3 92/39/3 64/39/3
f 48/39/3 79/39/3 80/39/3
f 35/39/3 66/39/3 67/39/3
f 58/39/3 89/39/3 93/39/3
f 49/39/3 80/39/3 81/39/3
f 36/39/3 67/39/3 68/39/3
f 41/39/3 72/39/3 94/39/3
f 50/39/3 81/39/3 82/39/3
f 37/39/3 68/39/3 69/39/3
f 51/39/3 82/39/3 83/39/3
f 38/39/3 69/39/3 70/39/3
f 52/39/3 83/39/3 84/39/3
f 123/39/86 95/39/86 99/39/86
f 95/39/86 96/39/86 99/39/86
f 96/39/86 97/39/86 99/39/86
f 97/39/86 98/39/86 99/39/86
f 99/39/87 100/39/87 124/39/87
f 100/39/88 101/39/88 102/39/88
f 102/39/89 103/39/89 100/39/89
f 103/39/90 125/39/90 100/39/90
f 124/39/91 121/39/91 122/39/91
f 125/39/92 124/39/92 100/39/92
f 99/39/93 124/39/93 123/39/93
f 119/39/94 120/39/94 124/39/94
f 124/39/95 125/39/95 109/39/95
f 125/39/96 104/39/96 109/39/96
f 124/39/97 109/39/97 118/39/97
f 104/39/18 105/39/18 108/39/18
f 105/39/18 106/39/18 107/39/18
f 108/39/18 105/39/18 107/39/18
f 108/39/18 109/39/18 104/39/18
f 109/39/18 110/39/18 118/39/18
f 110/39/18 111/39/18 118/39/18
f 111/39/18 112/39/18 118/39/18
f 112/39/18 113/39/18 118/39/18
f 113/39/18 114/39/18 117/39/18
f 118/39/18 113/39/18 117/39/18
f 114/39/18 115/39/18 117/39/18
f 115/39/18 116/39/18 117/39/18
f 127/39/98 126/39/98 130/39/98
f 126/39/98 154/39/98 130/39/98
f 154/39/99 153/39/99 155/39/99
f 153/39/100 152/39/100 155/39/100
f 155/39/101 156/39/101 131/39/101
f 156/39/102 134/39/102 131/39/102
f 128/39/98 127/39/98 130/39/98
f 130/39/98 129/39/98 128/39/98
f 132/39/103 131/39/103 133/39/103
f 131/39/104 130/39/104 155/39/104
f 134/39/105 133/39/105 131/39/105
f 155/39/106 151/39/106 150/39/106
f 155/39/107 150/39/107 149/39/107
f 135/39/108 156/39/108 140/39/108
f 156/39/109 155/39/109 140/39/109
f 140/39/110 155/39/110 149/39/110
f 137/39/3 136/39/3 138/39/3
f 136/39/3 135/39/3 139/39/3
f 139/39/3 138/39/3 136/39/3
f 141/39/3 140/39/3 149/39/3
f 140/39/3 139/39/3 135/39/3
f 143/39/3 142/39/3 149/39/3
f 142/39/3 141/39/3 149/39/3
f 145/39/3 144/39/3 148/39/3
f 144/39/3 143/39/3 149/39/3
f 147/39/3 146/39/3 148/39/3
f 146/39/3 145/39/3 148/39/3
f 101/39/3 132/39/3 133/39/3
f 115/39/3 146/39/3 147/39/3
f 102/39/3 133/39/3 134/39/3
f 116/39/3 147/39/3 148/39/3
f 125/39/3 156/39/3 135/39/3
f 117/39/3 148/39/3 149/39/3
f 104/39/3 135/39/3 136/39/3
f 118/39/3 149/39/3 150/39/3
f 105/39/3 136/39/3 137/39/3
f 119/39/3 150/39/3 151/39/3
f 106/39/3 137/39/3 138/39/3
f 124/39/3 155/39/3 152/39/3
f 107/39/3 138/39/3 139/39/3
f 121/39/3 152/39/3 153/39/3
f 108/39/3 139/39/3 140/39/3
f 95/39/3 126/39/3 127/39/3
f 122/39/3 153/39/3 154/39/3
f 109/39/3 140/39/3 141/39/3
f 96/39/3 127/39/3 128/39/3
f 123/39/3 154/39/3 126/39/3
f 110/39/3 141/39/3 142/39/3
f 97/39/3 128/39/3 129/39/3
f 120/39/3 151/39/3 155/39/3
f 111/39/3 142/39/3 143/39/3
f 98/39/3 129/39/3 130/39/3
f 103/39/3 134/39/3 156/39/3
f 112/39/3 143/39/3 144/39/3
f 99/39/3 130/39/3 131/39/3
f 113/39/3 144/39/3 145/39/3
f 100/39/3 131/39/3 132/39/3
f 114/39/3 145/39/3 146/39/3
f 185/39/111 157/39/111 158/39/111
f 158/39/112 159/39/112 160/39/112
f 160/39/113 161/39/113 186/39/113
f 161/39/114 162/39/114 186/39/114
f 162/39/115 163/39/115 164/39/115
f 164/39/116 165/39/116 162/39/116
f 165/39/117 187/39/117 162/39/117
f 187/39/118 186/39/118 162/39/118
f 185/39/111 158/39/111 160/39/111
f 183/39/111 184/39/111 160/39/111
f 184/39/111 185/39/111 160/39/111
f 182/39/119 186/39/119 170/39/119
f 186/39/120 187/39/120 170/39/120
f 170/39/121 187/39/121 167/39/121
f 187/39/122 166/39/122 167/39/122
f 167/39/18 168/39/18 169/39/18
f 169/39/18 170/39/18 167/39/18
f 170/39/123 171/39/123 182/39/123
f 171/39/18 172/39/18 179/39/18
f 172/39/18 173/39/18 178/39/18
f 179/39/18 172/39/18 178/39/18
f 173/39/18 174/39/18 178/39/18
f 174/39/18 175/39/18 178/39/18
f 175/39/18 176/39/18 178/39/18
f 176/39/18 177/39/18 178/39/18
f 179/39/18 180/39/18 171/39/18
f 181/39/124 182/39/124 171/39/124
f 189/39/125 188/39/125 192/39/125
f 188/39/125 216/39/125 192/39/125
f 216/39/125 215/39/125 192/39/125
f 215/39/125 214/39/125 192/39/125
f 217/39/126 218/39/126 193/39/126
f 218/39/127 196/39/127 193/39/127
f 196/39/128 195/39/128 193/39/128
f 193/39/129 195/39/129 194/39/129
f 190/39/125 189/39/125 192/39/125
f 191/39/125 190/39/125 192/39/125
f 217/39/130 193/39/130 192/39/130
f 210/39/3 209/39/3 203/39/3
f 209/39/3 208/39/3 207/39/3
f 204/39/3 209/39/3 205/39/3
f 207/39/3 206/39/3 209/39/3
f 206/39/3 205/39/3 209/39/3
f 204/39/3 203/39/3 209/39/3
f 203/39/3 202/39/3 210/39/3
f 202/39/131 201/39/131 213/39/131
f 201/39/3 200/39/3 198/39/3
f 213/39/132 201/39/132 217/39/132
f 200/39/3 199/39/3 198/39/3
f 198/39/133 197/39/133 218/39/133
f 218/39/134 217/39/134 201/39/134
f 218/39/135 201/39/135 198/39/135
f 213/39/136 212/39/136 202/39/136
f 211/39/3 202/39/3 212/39/3
f 163/39/3 194/39/3 195/39/3
f 177/39/3 208/39/3 209/39/3
f 164/39/3 195/39/3 196/39/3
f 178/39/3 209/39/3 210/39/3
f 187/39/3 218/39/3 197/39/3
f 179/39/3 210/39/3 211/39/3
f 166/39/3 197/39/3 198/39/3
f 180/39/3 211/39/3 212/39/3
f 167/39/3 198/39/3 199/39/3
f 181/39/3 212/39/3 213/39/3
f 168/39/3 199/39/3 200/39/3
f 186/39/3 217/39/3 214/39/3
f 169/39/3 200/39/3 201/39/3
f 183/39/3 214/39/3 215/39/3
f 170/39/3 201/39/3 202/39/3
f 157/39/3 188/39/3 189/39/3
f 184/39/3 215/39/3 216/39/3
f 171/39/3 202/39/3 203/39/3
f 158/39/3 189/39/3 190/39/3
f 185/39/3 216/39/3 188/39/3
f 172/39/3 203/39/3 204/39/3
f 159/39/3 190/39/3 191/39/3
f 182/39/3 213/39/3 217/39/3
f 173/39/3 204/39/3 205/39/3
f 160/39/3 191/39/3 192/39/3
f 165/39/3 196/39/3 218/39/3
f 174/39/3 205/39/3 206/39/3
f 161/39/3 192/39/3 193/39/3
f 175/39/3 206/39/3 207/39/3
f 162/39/3 193/39/3 194/39/3
f 176/39/3 207/39/3 208/39/3
f 220/1/27 222/13/27 221/2/27
f 230/4/28 220/47/28 219/5/28
f 231/9/3 244/10/3 248/51/3
f 244/10/3 246/49/3 247/50/3
f 248/51/3 244/10/3 247/50/3
f 248/51/3 249/52/3 231/9/3
f 249/52/3 250/41/3 231/9/3
f 250/41/3 245/48/3 235/44/3
f 245/48/3 222/53/3 230/7/3
f 233/8/3 245/48/3 232/55/3
f 222/53/3 220/54/3 230/7/3
f 230/7/3 232/55/3 245/48/3
f 233/8/3 234/56/3 245/48/3
f 234/56/3 235/44/3 245/48/3
f 235/44/3 236/40/3 250/41/3
f 244/10/29 231/9/29 223/11/29
f 222/13/30 245/25/30 237/14/30
f 238/12/31 243/16/31 246/15/31
f 243/16/32 242/18/32 247/17/32
f 242/18/33 241/20/33 248/19/33
f 241/20/34 240/22/34 249/21/34
f 240/22/35 239/24/35 250/23/35
f 239/24/36 237/14/36 245/25/36
f 224/6/37 229/27/37 232/26/37
f 229/27/38 228/29/38 233/28/38
f 228/29/39 227/31/39 234/30/39
f 227/31/40 226/33/40 235/32/40
f 226/33/41 225/35/41 236/34/41
f 225/35/42 223/11/42 231/9/42
f 219/46/18 221/57/18 224/45/18
f 221/57/18 237/43/18 224/45/18
f 224/45/18 237/43/18 229/38/18
f 237/43/18 239/58/18 226/63/18
f 239/58/18 240/59/18 223/11/18
f 237/43/18 226/63/18 227/37/18
f 240/59/18 241/60/18 223/11/18
f 241/60/18 242/61/18 238/12/18
f 242/61/18 243/62/18 238/12/18
f 238/12/18 223/11/18 241/60/18
f 223/11/18 225/36/18 239/58/18
f 225/36/18 226/63/18 239/58/18
f 227/37/18 228/42/18 237/43/18
f 252/1/43 254/13/43 253/2/43
f 262/4/44 252/47/44 251/5/44
f 263/9/3 276/10/3 266/56/3
f 276/10/3 278/49/3 264/55/3
f 265/8/3 276/10/3 264/55/3
f 278/49/3 279/50/3 264/55/3
f 279/50/3 280/51/3 262/7/3
f 280/51/3 281/52/3 262/7/3
f 281/52/3 282/41/3 262/7/3
f 282/41/3 277/48/3 262/7/3
f 277/48/3 254/53/3 252/54/3
f 252/54/3 262/7/3 277/48/3
f 262/7/3 264/55/3 279/50/3
f 265/8/3 266/56/3 276/10/3
f 266/56/3 267/44/3 263/9/3
f 276/10/45 263/9/45 255/11/45
f 254/13/46 277/25/46 269/14/46
f 270/12/47 275/16/47 278/15/47
f 275/16/48 274/18/48 279/17/48
f 274/18/49 273/20/49 280/19/49
f 273/20/50 272/22/50 281/21/50
f 272/22/51 271/24/51 282/23/51
f 271/24/52 269/14/52 277/25/52
f 256/6/53 261/27/53 264/26/53
f 261/27/137 260/29/137 265/28/137
f 260/29/55 259/31/55 266/30/55
f 259/31/56 258/33/56 267/32/56
f 258/33/57 257/35/57 268/34/57
f 257/35/58 255/11/58 263/9/58
f 251/46/18 253/57/18 269/43/18
f 269/43/18 271/58/18 256/45/18
f 271/58/18 272/59/18 256/45/18
f 272/59/18 273/60/18 256/45/18
f 273/60/18 274/61/18 256/45/18
f 274/61/18 275/62/18 261/38/18
f 275/62/18 270/12/18 261/38/18
f 270/12/18 255/11/18 259/37/18
f 255/11/18 257/36/18 258/63/18
f 259/37/18 255/11/18 258/63/18
f 259/37/18 260/42/18 270/12/18
f 260/42/18 261/38/18 270/12/18
f 261/38/18 256/45/18 274/61/18
